<?xml version="1.0" encoding="utf-8"?>
<!-- Generator: Adobe Illustrator 14.0.0, SVG Export Plug-In . SVG Version: 6.00 Build 43363)  -->
<!DOCTYPE svg PUBLIC "-//W3C//DTD SVG 1.1//EN" "http://www.w3.org/Graphics/SVG/1.1/DTD/svg11.dtd">
<svg version="1.1" xmlns="http://www.w3.org/2000/svg" xmlns:xlink="http://www.w3.org/1999/xlink" x="0px" y="0px" width="2048px"
	 height="2048px" viewBox="0 0 2048 2048" enable-background="new 0 0 2048 2048" xml:space="preserve">
<g id="Layer_3">
	<g id="Layer_2_1_">
		
			<image overflow="visible" enable-background="new    " width="254" height="248" xlink:href="brass.jpg"  transform="matrix(8.063 0 0 8.258 -0.0039 0)">
		</image>
	</g>
</g>
<g id="Layer_1">
	<g id="Layer_2_2_">
	</g>
	<g>
		<defs>
			<path id="SVGID_1_" d="M0,0v2048h2048V0H0z M1024,1999c-538.478,0-975-436.521-975-975c0-538.478,436.521-975,975-975
				c538.477,0,975,436.522,975,975C1999,1562.479,1562.477,1999,1024,1999z"/>
		</defs>
		<clipPath id="SVGID_2_">
			<use xlink:href="#SVGID_1_"  overflow="visible"/>
		</clipPath>
		<line clip-path="url(#SVGID_2_)" fill="none" stroke="#000000" stroke-width="2" x1="1024" y1="0" x2="1024" y2="2048"/>
		
			<line clip-path="url(#SVGID_2_)" fill="none" stroke="#000000" stroke-width="2" x1="934.752" y1="3.896" x2="1113.247" y2="2044.104"/>
		
			<line clip-path="url(#SVGID_2_)" fill="none" stroke="#000000" stroke-width="2" x1="846.184" y1="15.557" x2="1201.814" y2="2032.443"/>
		
			<line clip-path="url(#SVGID_2_)" fill="none" stroke="#000000" stroke-width="2" x1="758.969" y1="34.893" x2="1289.029" y2="2013.108"/>
		
			<line clip-path="url(#SVGID_2_)" fill="none" stroke="#000000" stroke-width="2" x1="673.771" y1="61.755" x2="1374.227" y2="1986.246"/>
		
			<line clip-path="url(#SVGID_2_)" fill="none" stroke="#000000" stroke-width="2" x1="591.237" y1="95.942" x2="1456.759" y2="1952.06"/>
		
			<line clip-path="url(#SVGID_2_)" fill="none" stroke="#000000" stroke-width="2" x1="511.998" y1="137.191" x2="1535.998" y2="1910.812"/>
		
			<line clip-path="url(#SVGID_2_)" fill="none" stroke="#000000" stroke-width="2" x1="436.655" y1="185.19" x2="1611.34" y2="1862.813"/>
		
			<line clip-path="url(#SVGID_2_)" fill="none" stroke="#000000" stroke-width="2" x1="365.783" y1="239.573" x2="1682.212" y2="1808.432"/>
		
			<line clip-path="url(#SVGID_2_)" fill="none" stroke="#000000" stroke-width="2" x1="299.92" y1="299.925" x2="1748.074" y2="1748.08"/>
		
			<line clip-path="url(#SVGID_2_)" fill="none" stroke="#000000" stroke-width="2" x1="239.568" y1="365.789" x2="1808.427" y2="1682.217"/>
		
			<line clip-path="url(#SVGID_2_)" fill="none" stroke="#000000" stroke-width="2" x1="185.186" y1="436.661" x2="1862.809" y2="1611.345"/>
		
			<line clip-path="url(#SVGID_2_)" fill="none" stroke="#000000" stroke-width="2" x1="137.188" y1="512.004" x2="1910.807" y2="1536.002"/>
		
			<line clip-path="url(#SVGID_2_)" fill="none" stroke="#000000" stroke-width="2" x1="95.938" y1="591.243" x2="1952.056" y2="1456.764"/>
		
			<line clip-path="url(#SVGID_2_)" fill="none" stroke="#000000" stroke-width="2" x1="61.752" y1="673.776" x2="1986.242" y2="1374.232"/>
		
			<line clip-path="url(#SVGID_2_)" fill="none" stroke="#000000" stroke-width="2" x1="34.89" y1="758.974" x2="2013.104" y2="1289.035"/>
		
			<line clip-path="url(#SVGID_2_)" fill="none" stroke="#000000" stroke-width="2" x1="15.555" y1="846.189" x2="2032.439" y2="1201.82"/>
		
			<line clip-path="url(#SVGID_2_)" fill="none" stroke="#000000" stroke-width="2" x1="3.895" y1="934.758" x2="2044.1" y2="1113.252"/>
		
			<line clip-path="url(#SVGID_2_)" fill="none" stroke="#000000" stroke-width="2" x1="-0.002" y1="1024.006" x2="2047.996" y2="1024.005"/>
		
			<line clip-path="url(#SVGID_2_)" fill="none" stroke="#000000" stroke-width="2" x1="3.895" y1="1113.254" x2="2044.1" y2="934.758"/>
		
			<line clip-path="url(#SVGID_2_)" fill="none" stroke="#000000" stroke-width="2" x1="15.555" y1="1201.822" x2="2032.439" y2="846.19"/>
		
			<line clip-path="url(#SVGID_2_)" fill="none" stroke="#000000" stroke-width="2" x1="34.891" y1="1289.037" x2="2013.104" y2="758.976"/>
		
			<line clip-path="url(#SVGID_2_)" fill="none" stroke="#000000" stroke-width="2" x1="61.753" y1="1374.235" x2="1986.242" y2="673.778"/>
		
			<line clip-path="url(#SVGID_2_)" fill="none" stroke="#000000" stroke-width="2" x1="95.94" y1="1456.768" x2="1952.056" y2="591.246"/>
		
			<line clip-path="url(#SVGID_2_)" fill="none" stroke="#000000" stroke-width="2" x1="137.189" y1="1536.007" x2="1910.807" y2="512.007"/>
		
			<line clip-path="url(#SVGID_2_)" fill="none" stroke="#000000" stroke-width="2" x1="185.188" y1="1611.35" x2="1862.809" y2="436.665"/>
		
			<line clip-path="url(#SVGID_2_)" fill="none" stroke="#000000" stroke-width="2" x1="239.57" y1="1682.222" x2="1808.427" y2="365.793"/>
		
			<line clip-path="url(#SVGID_2_)" fill="none" stroke="#000000" stroke-width="2" x1="299.923" y1="1748.084" x2="1748.074" y2="299.93"/>
		
			<line clip-path="url(#SVGID_2_)" fill="none" stroke="#000000" stroke-width="2" x1="365.786" y1="1808.436" x2="1682.212" y2="239.579"/>
		
			<line clip-path="url(#SVGID_2_)" fill="none" stroke="#000000" stroke-width="2" x1="436.658" y1="1862.817" x2="1611.34" y2="185.197"/>
		
			<line clip-path="url(#SVGID_2_)" fill="none" stroke="#000000" stroke-width="2" x1="512.001" y1="1910.815" x2="1535.998" y2="137.199"/>
		
			<line clip-path="url(#SVGID_2_)" fill="none" stroke="#000000" stroke-width="2" x1="591.24" y1="1952.064" x2="1456.76" y2="95.95"/>
		
			<line clip-path="url(#SVGID_2_)" fill="none" stroke="#000000" stroke-width="2" x1="673.772" y1="1986.251" x2="1374.229" y2="61.764"/>
		
			<line clip-path="url(#SVGID_2_)" fill="none" stroke="#000000" stroke-width="2" x1="758.971" y1="2013.113" x2="1289.031" y2="34.901"/>
		
			<line clip-path="url(#SVGID_2_)" fill="none" stroke="#000000" stroke-width="2" x1="846.186" y1="2032.448" x2="1201.816" y2="15.566"/>
		
			<line clip-path="url(#SVGID_2_)" fill="none" stroke="#000000" stroke-width="2" x1="934.754" y1="2044.108" x2="1113.249" y2="3.906"/>
		<g id="Layer_1_1_" clip-path="url(#SVGID_2_)">
			<g id="Layer_2" display="none">
				<circle display="inline" fill="none" stroke="#000000" stroke-width="2" cx="1024" cy="1024" r="995"/>
			</g>
			<line fill="none" stroke="#000000" stroke-width="2" x1="1024" y1="29" x2="1024" y2="2018.625"/>
			<line fill="none" stroke="#000000" stroke-width="2" x1="1006.638" y1="29.151" x2="1041.361" y2="2018.475"/>
			<line fill="none" stroke="#000000" stroke-width="2" x1="989.28" y1="29.606" x2="1058.717" y2="2018.021"/>
			<line fill="none" stroke="#000000" stroke-width="2" x1="971.935" y1="30.364" x2="1076.062" y2="2017.264"/>
			<line fill="none" stroke="#000000" stroke-width="2" x1="954.604" y1="31.424" x2="1093.393" y2="2016.203"/>
			<line fill="none" stroke="#000000" stroke-width="2" x1="937.293" y1="32.786" x2="1110.701" y2="2014.841"/>
			<line fill="none" stroke="#000000" stroke-width="2" x1="920.011" y1="34.451" x2="1127.983" y2="2013.176"/>
			<line fill="none" stroke="#000000" stroke-width="2" x1="902.76" y1="36.417" x2="1145.233" y2="2011.212"/>
			<line fill="none" stroke="#000000" stroke-width="2" x1="885.545" y1="38.682" x2="1162.449" y2="2008.947"/>
			<line fill="none" stroke="#000000" stroke-width="2" x1="868.373" y1="41.25" x2="1179.619" y2="2006.38"/>
			<line fill="none" stroke="#000000" stroke-width="2" x1="851.248" y1="44.115" x2="1196.743" y2="2003.516"/>
			<line fill="none" stroke="#000000" stroke-width="2" x1="834.176" y1="47.28" x2="1213.815" y2="2000.351"/>
			<line fill="none" stroke="#000000" stroke-width="2" x1="817.163" y1="50.742" x2="1230.83" y2="1996.89"/>
			<line fill="none" stroke="#000000" stroke-width="2" x1="800.21" y1="54.499" x2="1247.781" y2="1993.132"/>
			<line fill="none" stroke="#000000" stroke-width="2" x1="783.328" y1="58.553" x2="1264.664" y2="1989.079"/>
			<line fill="none" stroke="#000000" stroke-width="2" x1="766.518" y1="62.901" x2="1281.473" y2="1984.732"/>
			<line fill="none" stroke="#000000" stroke-width="2" x1="749.786" y1="67.54" x2="1298.203" y2="1980.092"/>
			<line fill="none" stroke="#000000" stroke-width="2" x1="733.138" y1="72.472" x2="1314.851" y2="1975.162"/>
			<line fill="none" stroke="#000000" stroke-width="2" x1="716.579" y1="77.692" x2="1331.409" y2="1969.941"/>
			<line fill="none" stroke="#000000" stroke-width="2" x1="700.114" y1="83.202" x2="1347.874" y2="1964.433"/>
			<line fill="none" stroke="#000000" stroke-width="2" x1="683.747" y1="88.997" x2="1364.241" y2="1958.637"/>
			<line fill="none" stroke="#000000" stroke-width="2" x1="667.484" y1="95.079" x2="1380.504" y2="1952.556"/>
			<line fill="none" stroke="#000000" stroke-width="2" x1="651.33" y1="101.442" x2="1396.658" y2="1946.192"/>
			<line fill="none" stroke="#000000" stroke-width="2" x1="635.288" y1="108.086" x2="1412.699" y2="1939.548"/>
			<line fill="none" stroke="#000000" stroke-width="2" x1="619.365" y1="115.01" x2="1428.622" y2="1932.623"/>
			<line fill="none" stroke="#000000" stroke-width="2" x1="603.566" y1="122.209" x2="1444.421" y2="1925.425"/>
			<line fill="none" stroke="#000000" stroke-width="2" x1="587.895" y1="129.685" x2="1460.092" y2="1917.949"/>
			<line fill="none" stroke="#000000" stroke-width="2" x1="572.355" y1="137.432" x2="1475.629" y2="1910.202"/>
			<line fill="none" stroke="#000000" stroke-width="2" x1="556.955" y1="145.45" x2="1491.031" y2="1902.186"/>
			<line fill="none" stroke="#000000" stroke-width="2" x1="541.697" y1="153.734" x2="1506.289" y2="1893.9"/>
			<line fill="none" stroke="#000000" stroke-width="2" x1="526.584" y1="162.284" x2="1521.4" y2="1885.352"/>
			<line fill="none" stroke="#000000" stroke-width="2" x1="511.625" y1="171.097" x2="1536.361" y2="1876.54"/>
			<line fill="none" stroke="#000000" stroke-width="2" x1="496.82" y1="180.169" x2="1551.163" y2="1867.469"/>
			<line fill="none" stroke="#000000" stroke-width="2" x1="482.177" y1="189.498" x2="1565.808" y2="1858.14"/>
			<line fill="none" stroke="#000000" stroke-width="2" x1="467.699" y1="199.082" x2="1580.285" y2="1848.557"/>
			<line fill="none" stroke="#000000" stroke-width="2" x1="453.389" y1="208.917" x2="1594.594" y2="1838.723"/>
			<line fill="none" stroke="#000000" stroke-width="2" x1="439.253" y1="219" x2="1608.729" y2="1828.641"/>
			<line fill="none" stroke="#000000" stroke-width="2" x1="425.297" y1="229.327" x2="1622.685" y2="1818.312"/>
			<line fill="none" stroke="#000000" stroke-width="2" x1="411.522" y1="239.897" x2="1636.461" y2="1807.743"/>
			<line fill="none" stroke="#000000" stroke-width="2" x1="397.934" y1="250.706" x2="1650.047" y2="1796.936"/>
			<line fill="none" stroke="#000000" stroke-width="2" x1="384.537" y1="261.75" x2="1663.445" y2="1785.892"/>
			<line fill="none" stroke="#000000" stroke-width="2" x1="371.333" y1="273.026" x2="1676.647" y2="1774.615"/>
			<line fill="none" stroke="#000000" stroke-width="2" x1="358.33" y1="284.532" x2="1689.65" y2="1763.11"/>
			<line fill="none" stroke="#000000" stroke-width="2" x1="345.528" y1="296.262" x2="1702.45" y2="1751.381"/>
			<line fill="none" stroke="#000000" stroke-width="2" x1="332.934" y1="308.214" x2="1715.045" y2="1739.431"/>
			<line fill="none" stroke="#000000" stroke-width="2" x1="320.55" y1="320.385" x2="1727.428" y2="1727.261"/>
			<line fill="none" stroke="#000000" stroke-width="2" x1="308.381" y1="332.769" x2="1739.598" y2="1714.877"/>
			<line fill="none" stroke="#000000" stroke-width="2" x1="296.428" y1="345.363" x2="1751.548" y2="1702.283"/>
			<line fill="none" stroke="#000000" stroke-width="2" x1="284.698" y1="358.165" x2="1763.278" y2="1689.482"/>
			<line fill="none" stroke="#000000" stroke-width="2" x1="273.194" y1="371.168" x2="1774.784" y2="1676.479"/>
			<line fill="none" stroke="#000000" stroke-width="2" x1="261.917" y1="384.373" x2="1786.06" y2="1663.275"/>
			<line fill="none" stroke="#000000" stroke-width="2" x1="250.875" y1="397.77" x2="1797.104" y2="1649.878"/>
			<line fill="none" stroke="#000000" stroke-width="2" x1="240.064" y1="411.358" x2="1807.912" y2="1636.29"/>
			<line fill="none" stroke="#000000" stroke-width="2" x1="229.496" y1="425.133" x2="1818.482" y2="1622.517"/>
			<line fill="none" stroke="#000000" stroke-width="2" x1="219.167" y1="439.091" x2="1828.81" y2="1608.561"/>
			<line fill="none" stroke="#000000" stroke-width="2" x1="209.085" y1="453.226" x2="1838.89" y2="1594.426"/>
			<line fill="none" stroke="#000000" stroke-width="2" x1="199.25" y1="467.536" x2="1848.725" y2="1580.116"/>
			<line fill="none" stroke="#000000" stroke-width="2" x1="189.668" y1="482.015" x2="1858.308" y2="1565.639"/>
			<line fill="none" stroke="#000000" stroke-width="2" x1="180.339" y1="496.658" x2="1867.637" y2="1550.996"/>
			<line fill="none" stroke="#000000" stroke-width="2" x1="171.267" y1="511.461" x2="1876.708" y2="1536.191"/>
			<line fill="none" stroke="#000000" stroke-width="2" x1="162.455" y1="526.422" x2="1885.521" y2="1521.231"/>
			<line fill="none" stroke="#000000" stroke-width="2" x1="153.905" y1="541.535" x2="1894.069" y2="1506.121"/>
			<line fill="none" stroke="#000000" stroke-width="2" x1="145.62" y1="556.793" x2="1902.355" y2="1490.863"/>
			<line fill="none" stroke="#000000" stroke-width="2" x1="137.602" y1="572.194" x2="1910.372" y2="1475.462"/>
			<line fill="none" stroke="#000000" stroke-width="2" x1="129.855" y1="587.733" x2="1918.119" y2="1459.924"/>
			<line fill="none" stroke="#000000" stroke-width="2" x1="122.381" y1="603.404" x2="1925.594" y2="1444.252"/>
			<line fill="none" stroke="#000000" stroke-width="2" x1="115.18" y1="619.204" x2="1932.793" y2="1428.454"/>
			<line fill="none" stroke="#000000" stroke-width="2" x1="108.257" y1="635.127" x2="1939.717" y2="1412.532"/>
			<line fill="none" stroke="#000000" stroke-width="2" x1="101.613" y1="651.168" x2="1946.361" y2="1396.491"/>
			<line fill="none" stroke="#000000" stroke-width="2" x1="95.249" y1="667.324" x2="1952.726" y2="1380.337"/>
			<line fill="none" stroke="#000000" stroke-width="2" x1="89.169" y1="683.586" x2="1958.806" y2="1364.075"/>
			<line fill="none" stroke="#000000" stroke-width="2" x1="83.373" y1="699.954" x2="1964.602" y2="1347.708"/>
			<line fill="none" stroke="#000000" stroke-width="2" x1="77.863" y1="716.42" x2="1970.111" y2="1331.243"/>
			<line fill="none" stroke="#000000" stroke-width="2" x1="72.643" y1="732.978" x2="1975.332" y2="1314.684"/>
			<line fill="none" stroke="#000000" stroke-width="2" x1="67.712" y1="749.627" x2="1980.261" y2="1298.037"/>
			<line fill="none" stroke="#000000" stroke-width="2" x1="63.072" y1="766.357" x2="1984.902" y2="1281.307"/>
			<line fill="none" stroke="#000000" stroke-width="2" x1="58.725" y1="783.168" x2="1989.249" y2="1264.497"/>
			<line fill="none" stroke="#000000" stroke-width="2" x1="54.671" y1="800.051" x2="1993.302" y2="1247.615"/>
			<line fill="none" stroke="#000000" stroke-width="2" x1="50.913" y1="817.002" x2="1997.061" y2="1230.666"/>
			<line fill="none" stroke="#000000" stroke-width="2" x1="47.451" y1="834.017" x2="2000.521" y2="1213.65"/>
			<line fill="none" stroke="#000000" stroke-width="2" x1="44.288" y1="851.089" x2="2003.687" y2="1196.58"/>
			<line fill="none" stroke="#000000" stroke-width="2" x1="41.421" y1="868.212" x2="2006.552" y2="1179.456"/>
			<line fill="none" stroke="#000000" stroke-width="2" x1="38.856" y1="885.384" x2="2009.118" y2="1162.283"/>
			<line fill="none" stroke="#000000" stroke-width="2" x1="36.59" y1="902.601" x2="2011.386" y2="1145.071"/>
			<line fill="none" stroke="#000000" stroke-width="2" x1="34.625" y1="919.852" x2="2013.351" y2="1127.821"/>
			<line fill="none" stroke="#000000" stroke-width="2" x1="32.96" y1="937.135" x2="2015.016" y2="1110.539"/>
			<line fill="none" stroke="#000000" stroke-width="2" x1="31.598" y1="954.443" x2="2016.377" y2="1093.23"/>
			<line fill="none" stroke="#000000" stroke-width="2" x1="30.538" y1="971.773" x2="2017.438" y2="1075.901"/>
			<line fill="none" stroke="#000000" stroke-width="2" x1="29.781" y1="989.121" x2="2018.195" y2="1058.555"/>
			<line fill="none" stroke="#000000" stroke-width="2" x1="29.328" y1="1006.477" x2="2018.65" y2="1041.199"/>
			<line fill="none" stroke="#000000" stroke-width="2" x1="29.176" y1="1023.801" x2="2018.801" y2="1023.801"/>
			<line fill="none" stroke="#000000" stroke-width="2" x1="29.328" y1="1041.163" x2="2018.65" y2="1006.44"/>
			<line fill="none" stroke="#000000" stroke-width="2" x1="29.782" y1="1058.52" x2="2018.195" y2="989.083"/>
			<line fill="none" stroke="#000000" stroke-width="2" x1="30.539" y1="1075.866" x2="2017.439" y2="971.738"/>
			<line fill="none" stroke="#000000" stroke-width="2" x1="31.6" y1="1093.197" x2="2016.379" y2="954.408"/>
			<line fill="none" stroke="#000000" stroke-width="2" x1="32.962" y1="1110.507" x2="2015.018" y2="937.1"/>
			<line fill="none" stroke="#000000" stroke-width="2" x1="34.627" y1="1127.791" x2="2013.353" y2="919.817"/>
			<line fill="none" stroke="#000000" stroke-width="2" x1="36.592" y1="1145.041" x2="2011.388" y2="902.567"/>
			<line fill="none" stroke="#000000" stroke-width="2" x1="38.859" y1="1162.256" x2="2009.122" y2="885.353"/>
			<line fill="none" stroke="#000000" stroke-width="2" x1="41.425" y1="1179.428" x2="2006.556" y2="868.182"/>
			<line fill="none" stroke="#000000" stroke-width="2" x1="44.292" y1="1196.553" x2="2003.69" y2="851.057"/>
			<line fill="none" stroke="#000000" stroke-width="2" x1="47.455" y1="1213.625" x2="2000.526" y2="833.985"/>
			<line fill="none" stroke="#000000" stroke-width="2" x1="50.917" y1="1230.64" x2="1997.065" y2="816.971"/>
			<line fill="none" stroke="#000000" stroke-width="2" x1="54.675" y1="1247.59" x2="1993.308" y2="800.02"/>
			<line fill="none" stroke="#000000" stroke-width="2" x1="58.729" y1="1264.474" x2="1989.255" y2="783.137"/>
			<line fill="none" stroke="#000000" stroke-width="2" x1="63.077" y1="1281.283" x2="1984.907" y2="766.328"/>
			<line fill="none" stroke="#000000" stroke-width="2" x1="67.717" y1="1298.015" x2="1980.268" y2="749.598"/>
			<line fill="none" stroke="#000000" stroke-width="2" x1="72.648" y1="1314.662" x2="1975.338" y2="732.95"/>
			<line fill="none" stroke="#000000" stroke-width="2" x1="77.869" y1="1331.222" x2="1970.117" y2="716.392"/>
			<line fill="none" stroke="#000000" stroke-width="2" x1="83.377" y1="1347.686" x2="1964.608" y2="699.926"/>
			<line fill="none" stroke="#000000" stroke-width="2" x1="89.174" y1="1364.054" x2="1958.812" y2="683.56"/>
			<line fill="none" stroke="#000000" stroke-width="2" x1="95.254" y1="1380.316" x2="1952.731" y2="667.296"/>
			<line fill="none" stroke="#000000" stroke-width="2" x1="101.618" y1="1396.472" x2="1946.368" y2="651.142"/>
			<line fill="none" stroke="#000000" stroke-width="2" x1="108.263" y1="1412.513" x2="1939.724" y2="635.101"/>
			<line fill="none" stroke="#000000" stroke-width="2" x1="115.186" y1="1428.436" x2="1932.801" y2="619.179"/>
			<line fill="none" stroke="#000000" stroke-width="2" x1="122.386" y1="1444.235" x2="1925.601" y2="603.38"/>
			<line fill="none" stroke="#000000" stroke-width="2" x1="129.861" y1="1459.906" x2="1918.125" y2="587.709"/>
			<line fill="none" stroke="#000000" stroke-width="2" x1="137.608" y1="1475.444" x2="1910.378" y2="572.171"/>
			<line fill="none" stroke="#000000" stroke-width="2" x1="145.625" y1="1490.846" x2="1902.361" y2="556.77"/>
			<line fill="none" stroke="#000000" stroke-width="2" x1="153.91" y1="1506.104" x2="1894.077" y2="541.512"/>
			<line fill="none" stroke="#000000" stroke-width="2" x1="162.46" y1="1521.216" x2="1885.526" y2="526.4"/>
			<line fill="none" stroke="#000000" stroke-width="2" x1="171.272" y1="1536.176" x2="1876.716" y2="511.44"/>
			<line fill="none" stroke="#000000" stroke-width="2" x1="180.344" y1="1550.98" x2="1867.645" y2="496.636"/>
			<line fill="none" stroke="#000000" stroke-width="2" x1="189.673" y1="1565.624" x2="1858.315" y2="481.993"/>
			<line fill="none" stroke="#000000" stroke-width="2" x1="199.258" y1="1580.102" x2="1848.732" y2="467.515"/>
			<line fill="none" stroke="#000000" stroke-width="2" x1="209.093" y1="1594.411" x2="1838.898" y2="453.207"/>
			<line fill="none" stroke="#000000" stroke-width="2" x1="219.175" y1="1608.547" x2="1828.815" y2="439.072"/>
			<line fill="none" stroke="#000000" stroke-width="2" x1="229.503" y1="1622.504" x2="1818.488" y2="425.115"/>
			<line fill="none" stroke="#000000" stroke-width="2" x1="240.073" y1="1636.278" x2="1807.918" y2="411.34"/>
			<line fill="none" stroke="#000000" stroke-width="2" x1="250.882" y1="1649.866" x2="1797.111" y2="397.752"/>
			<line fill="none" stroke="#000000" stroke-width="2" x1="261.927" y1="1663.265" x2="1786.067" y2="384.356"/>
			<line fill="none" stroke="#000000" stroke-width="2" x1="273.203" y1="1676.468" x2="1774.79" y2="371.154"/>
			<line fill="none" stroke="#000000" stroke-width="2" x1="284.708" y1="1689.471" x2="1763.286" y2="358.15"/>
			<line fill="none" stroke="#000000" stroke-width="2" x1="296.438" y1="1702.272" x2="1751.557" y2="345.349"/>
			<line fill="none" stroke="#000000" stroke-width="2" x1="308.39" y1="1714.866" x2="1739.606" y2="332.756"/>
			<line fill="none" stroke="#000000" stroke-width="2" x1="320.56" y1="1727.251" x2="1727.438" y2="320.373"/>
			<line fill="none" stroke="#000000" stroke-width="2" x1="332.944" y1="1739.421" x2="1715.053" y2="308.203"/>
			<line fill="none" stroke="#000000" stroke-width="2" x1="345.539" y1="1751.372" x2="1702.459" y2="296.253"/>
			<line fill="none" stroke="#000000" stroke-width="2" x1="358.341" y1="1763.103" x2="1689.658" y2="284.523"/>
			<line fill="none" stroke="#000000" stroke-width="2" x1="371.344" y1="1774.607" x2="1676.654" y2="273.018"/>
			<line fill="none" stroke="#000000" stroke-width="2" x1="384.547" y1="1785.883" x2="1663.451" y2="261.742"/>
			<line fill="none" stroke="#000000" stroke-width="2" x1="397.946" y1="1796.927" x2="1650.055" y2="250.698"/>
			<line fill="none" stroke="#000000" stroke-width="2" x1="411.534" y1="1807.735" x2="1636.466" y2="239.89"/>
			<line fill="none" stroke="#000000" stroke-width="2" x1="425.308" y1="1818.306" x2="1622.692" y2="229.319"/>
			<line fill="none" stroke="#000000" stroke-width="2" x1="439.267" y1="1828.634" x2="1608.736" y2="218.993"/>
			<line fill="none" stroke="#000000" stroke-width="2" x1="453.401" y1="1838.717" x2="1594.602" y2="208.91"/>
			<line fill="none" stroke="#000000" stroke-width="2" x1="467.711" y1="1848.55" x2="1580.293" y2="199.077"/>
			<line fill="none" stroke="#000000" stroke-width="2" x1="482.189" y1="1858.134" x2="1565.814" y2="189.493"/>
			<line fill="none" stroke="#000000" stroke-width="2" x1="496.834" y1="1867.463" x2="1551.171" y2="180.164"/>
			<line fill="none" stroke="#000000" stroke-width="2" x1="511.637" y1="1876.534" x2="1536.367" y2="171.093"/>
			<line fill="none" stroke="#000000" stroke-width="2" x1="526.598" y1="1885.347" x2="1521.408" y2="162.28"/>
			<line fill="none" stroke="#000000" stroke-width="2" x1="541.711" y1="1893.896" x2="1506.297" y2="153.73"/>
			<line fill="none" stroke="#000000" stroke-width="2" x1="556.969" y1="1902.181" x2="1491.039" y2="145.446"/>
			<line fill="none" stroke="#000000" stroke-width="2" x1="572.371" y1="1910.198" x2="1475.638" y2="137.429"/>
			<line fill="none" stroke="#000000" stroke-width="2" x1="587.908" y1="1917.945" x2="1460.1" y2="129.682"/>
			<line fill="none" stroke="#000000" stroke-width="2" x1="603.581" y1="1925.421" x2="1444.429" y2="122.208"/>
			<line fill="none" stroke="#000000" stroke-width="2" x1="619.38" y1="1932.621" x2="1428.63" y2="115.007"/>
			<line fill="none" stroke="#000000" stroke-width="2" x1="635.303" y1="1939.544" x2="1412.708" y2="108.083"/>
			<line fill="none" stroke="#000000" stroke-width="2" x1="651.344" y1="1946.188" x2="1396.667" y2="101.439"/>
			<line fill="none" stroke="#000000" stroke-width="2" x1="667.5" y1="1952.552" x2="1380.514" y2="95.076"/>
			<line fill="none" stroke="#000000" stroke-width="2" x1="683.763" y1="1958.633" x2="1364.251" y2="88.995"/>
			<line fill="none" stroke="#000000" stroke-width="2" x1="700.129" y1="1964.429" x2="1347.884" y2="83.2"/>
			<line fill="none" stroke="#000000" stroke-width="2" x1="716.595" y1="1969.938" x2="1331.419" y2="77.69"/>
			<line fill="none" stroke="#000000" stroke-width="2" x1="733.155" y1="1975.158" x2="1314.859" y2="72.47"/>
			<line fill="none" stroke="#000000" stroke-width="2" x1="749.802" y1="1980.09" x2="1298.213" y2="67.538"/>
			<line fill="none" stroke="#000000" stroke-width="2" x1="766.534" y1="1984.729" x2="1281.482" y2="62.898"/>
			<line fill="none" stroke="#000000" stroke-width="2" x1="783.343" y1="1989.076" x2="1264.674" y2="58.552"/>
			<line fill="none" stroke="#000000" stroke-width="2" x1="800.228" y1="1993.13" x2="1247.791" y2="54.499"/>
			<line fill="none" stroke="#000000" stroke-width="2" x1="817.178" y1="1996.888" x2="1230.842" y2="50.741"/>
			<line fill="none" stroke="#000000" stroke-width="2" x1="834.192" y1="2000.35" x2="1213.827" y2="47.279"/>
			<line fill="none" stroke="#000000" stroke-width="2" x1="851.265" y1="2003.514" x2="1196.756" y2="44.114"/>
			<line fill="none" stroke="#000000" stroke-width="2" x1="868.39" y1="2006.378" x2="1179.632" y2="41.25"/>
			<line fill="none" stroke="#000000" stroke-width="2" x1="885.561" y1="2008.945" x2="1162.461" y2="38.681"/>
			<line fill="none" stroke="#000000" stroke-width="2" x1="902.776" y1="2011.211" x2="1145.246" y2="36.416"/>
			<line fill="none" stroke="#000000" stroke-width="2" x1="920.026" y1="2013.176" x2="1127.997" y2="34.451"/>
			<line fill="none" stroke="#000000" stroke-width="2" x1="937.311" y1="2014.84" x2="1110.715" y2="32.786"/>
			<line fill="none" stroke="#000000" stroke-width="2" x1="954.62" y1="2016.201" x2="1093.406" y2="31.424"/>
			<line fill="none" stroke="#000000" stroke-width="2" x1="971.949" y1="2017.263" x2="1076.077" y2="30.363"/>
			<line fill="none" stroke="#000000" stroke-width="2" x1="989.296" y1="2018.02" x2="1058.73" y2="29.605"/>
			<line fill="none" stroke="#000000" stroke-width="2" x1="1006.653" y1="2018.474" x2="1041.375" y2="29.15"/>
		</g>
	</g>
</g>
<g id="Layer_5" display="none">
	<circle display="inline" fill="#FFFFFF" stroke="#000000" stroke-width="2" cx="1024" cy="1024" r="975"/>
</g>
<g id="Layer_4">
	<text transform="matrix(1 0 0 1 1027.5 65.54)" font-family="'Copperplate-Bold'" font-size="21">0</text>
	<text transform="matrix(0.9997 -0.0262 0.0262 0.9997 943.0947 68.5361)" font-family="'Copperplate-Bold'" font-size="21">5</text>
	<text transform="matrix(0.991 -0.1342 0.1342 0.991 860.0405 79.6924)" font-family="'Copperplate-Bold'" font-size="21">10</text>
	<text transform="matrix(0.9794 -0.2018 0.2018 0.9794 780.5674 96.9121)" font-family="'Copperplate-Bold'" font-size="21">15</text>
	<text transform="matrix(0.9522 -0.3055 0.3055 0.9522 699.1172 122.0938)" font-family="'Copperplate-Bold'" font-size="21">20</text>
	<text transform="matrix(0.9238 -0.3828 0.3828 0.9238 621.9707 155.73)" font-family="'Copperplate-Bold'" font-size="21">25</text>
	<text transform="matrix(0.8857 -0.4643 0.4643 0.8857 546.7109 192.4839)" font-family="'Copperplate-Bold'" font-size="21">30</text>
	<text transform="matrix(0.8402 -0.5422 0.5422 0.8402 477.4873 236.9966)" font-family="'Copperplate-Bold'" font-size="21">35</text>
	<text transform="matrix(0.7935 -0.6085 0.6085 0.7935 409.522 287.5317)" font-family="'Copperplate-Bold'" font-size="21">40</text>
	<text transform="matrix(0.7289 -0.6847 0.6847 0.7289 348.4365 344.9141)" font-family="'Copperplate-Bold'" font-size="21">45</text>
	<text transform="matrix(0.6421 -0.7666 0.7666 0.6421 291.8047 406.8618)" font-family="'Copperplate-Bold'" font-size="21">50</text>
	<text transform="matrix(0.5827 -0.8127 0.8127 0.5827 240.4531 473.8389)" font-family="'Copperplate-Bold'" font-size="21">55</text>
	<text transform="matrix(0.4872 -0.8733 0.8733 0.4872 196.6162 543.9341)" font-family="'Copperplate-Bold'" font-size="21">60</text>
	<text transform="matrix(0.4616 -0.8871 0.8871 0.4616 156.7891 618.7617)" font-family="'Copperplate-Bold'" font-size="21">65</text>
	<text transform="matrix(0.3658 -0.9307 0.9307 0.3658 124.3857 694.8892)" font-family="'Copperplate-Bold'" font-size="21">70</text>
	<text transform="matrix(0.2519 -0.9678 0.9678 0.2519 100.1855 773.9707)" font-family="'Copperplate-Bold'" font-size="21">75</text>
	<text transform="matrix(0.1674 -0.9859 0.9859 0.1674 80.8687 856.8501)" font-family="'Copperplate-Bold'" font-size="21">80</text>
	<text transform="matrix(0.1726 -0.985 0.985 0.1726 68.0781 938.5469)" font-family="'Copperplate-Bold'" font-size="21">85</text>
	<text transform="matrix(0.0061 -1 1 0.0061 66.7168 1021.2256)" font-family="'Copperplate-Bold'" font-size="21">90</text>
	<text transform="matrix(-0.1004 -0.995 0.995 -0.1004 70.1582 1104.5371)" font-family="'Copperplate-Bold'" font-size="21">95</text>
	<text transform="matrix(-0.156 -0.9878 0.9878 -0.156 80.8535 1188.4551)" font-family="'Copperplate-Bold'" font-size="21">100</text>
	<text transform="matrix(-0.2335 -0.9724 0.9724 -0.2335 97.9399 1269.498)" font-family="'Copperplate-Bold'" font-size="21">105</text>
	<text transform="matrix(-0.3504 -0.9366 0.9366 -0.3504 123.4048 1350.0342)" font-family="'Copperplate-Bold'" font-size="21">110</text>
	<text transform="matrix(-0.3522 -0.9359 0.9359 -0.3522 153.9199 1428.002)" font-family="'Copperplate-Bold'" font-size="21">115</text>
	<text transform="matrix(-0.5172 -0.8559 0.8559 -0.5172 194.6738 1500.7822)" font-family="'Copperplate-Bold'" font-size="21">120</text>
	<text transform="matrix(-0.5339 -0.8456 0.8456 -0.5339 238.0576 1571.2529)" font-family="'Copperplate-Bold'" font-size="21">125</text>
	<text transform="matrix(-0.6096 -0.7927 0.7927 -0.6096 288.8164 1638.0312)" font-family="'Copperplate-Bold'" font-size="21">130</text>
	<text transform="matrix(-0.6726 -0.74 0.74 -0.6726 344.7559 1700.9766)" font-family="'Copperplate-Bold'" font-size="21">135</text>
	<text transform="matrix(-0.7719 -0.6357 0.6357 -0.7719 406.7466 1755.8926)" font-family="'Copperplate-Bold'" font-size="21">140</text>
	<text transform="matrix(-0.8027 -0.5964 0.5964 -0.8027 473.2021 1807.1641)" font-family="'Copperplate-Bold'" font-size="21">145</text>
	<text transform="matrix(-0.8543 -0.5197 0.5197 -0.8543 543.6973 1851.2256)" font-family="'Copperplate-Bold'" font-size="21">150</text>
	<text transform="matrix(-0.9211 -0.3894 0.3894 -0.9211 618.3652 1889.8965)" font-family="'Copperplate-Bold'" font-size="21">155</text>
	<text transform="matrix(-0.9345 -0.3558 0.3558 -0.9345 694.6846 1923.084)" font-family="'Copperplate-Bold'" font-size="21">160</text>
	<text transform="matrix(-0.9594 -0.2822 0.2822 -0.9594 774.48 1947.0596)" font-family="'Copperplate-Bold'" font-size="21">165</text>
	<text transform="matrix(-0.9821 -0.1884 0.1884 -0.9821 856.5776 1966.0645)" font-family="'Copperplate-Bold'" font-size="21">170</text>
	<text transform="matrix(-0.9899 -0.1416 0.1416 -0.9899 939.7524 1977.4785)" font-family="'Copperplate-Bold'" font-size="21">175</text>
	<text transform="matrix(-0.9999 -0.0107 0.0107 -0.9999 1022.7451 1979.7275)" font-family="'Copperplate-Bold'" font-size="21">180</text>
	<text transform="matrix(-0.9994 0.035 -0.035 -0.9994 1106.0791 1978.0684)" font-family="'Copperplate-Bold'" font-size="21">185</text>
	<text transform="matrix(-0.9842 0.1772 -0.1772 -0.9842 1188.7041 1967.0752)" font-family="'Copperplate-Bold'" font-size="21">190</text>
	<text transform="matrix(-0.9717 0.2362 -0.2362 -0.9717 1272.0068 1948.957)" font-family="'Copperplate-Bold'" font-size="21">195</text>
	<text transform="matrix(-0.9532 0.3023 -0.3023 -0.9532 1350.7891 1923.8291)" font-family="'Copperplate-Bold'" font-size="21">200</text>
	<text transform="matrix(-0.9177 0.3972 -0.3972 -0.9177 1427.5547 1892.1562)" font-family="'Copperplate-Bold'" font-size="21">205</text>
	<text transform="matrix(-0.8738 0.4862 -0.4862 -0.8738 1500.6953 1854.1348)" font-family="'Copperplate-Bold'" font-size="21">210</text>
	<text transform="matrix(-0.8327 0.5537 -0.5537 -0.8327 1571.3555 1808.334)" font-family="'Copperplate-Bold'" font-size="21">215</text>
	<text transform="matrix(-0.7491 0.6625 -0.6625 -0.7491 1635.748 1758.0352)" font-family="'Copperplate-Bold'" font-size="21">220</text>
	<text transform="matrix(-0.7596 0.6503 -0.6503 -0.7596 1701.1572 1700.8213)" font-family="'Copperplate-Bold'" font-size="21">225</text>
	<text transform="matrix(-0.6227 0.7825 -0.7825 -0.6227 1755.4102 1639.6172)" font-family="'Copperplate-Bold'" font-size="21">230</text>
	<text transform="matrix(-0.5662 0.8242 -0.8242 -0.5662 1806.4824 1574.7402)" font-family="'Copperplate-Bold'" font-size="21">235</text>
	<text transform="matrix(-0.4748 0.8801 -0.8801 -0.4748 1851.998 1504.3701)" font-family="'Copperplate-Bold'" font-size="21">240</text>
	<text transform="matrix(-0.4806 0.8769 -0.8769 -0.4806 1892.2285 1431.1348)" font-family="'Copperplate-Bold'" font-size="21">245</text>
	<text transform="matrix(-0.3387 0.9409 -0.9409 -0.3387 1922.3896 1354.0332)" font-family="'Copperplate-Bold'" font-size="21">250</text>
	<text transform="matrix(-0.2689 0.9632 -0.9632 -0.2689 1946.7061 1273.9355)" font-family="'Copperplate-Bold'" font-size="21">255</text>
	<text transform="matrix(-0.1581 0.9874 -0.9874 -0.1581 1965.7188 1191.9229)" font-family="'Copperplate-Bold'" font-size="21">260</text>
	<text transform="matrix(-0.0616 0.9981 -0.9981 -0.0616 1976.5771 1110.7969)" font-family="'Copperplate-Bold'" font-size="21">265</text>
	<text transform="matrix(-0.0102 0.9999 -0.9999 -0.0102 1980.877 1025.7246)" font-family="'Copperplate-Bold'" font-size="21">270</text>
	<text transform="matrix(0.0659 0.9978 -0.9978 0.0659 1977.3311 942.7676)" font-family="'Copperplate-Bold'" font-size="21">275</text>
	<text transform="matrix(0.1756 0.9845 -0.9845 0.1756 1966.1816 859.4502)" font-family="'Copperplate-Bold'" font-size="21">280</text>
	<text transform="matrix(0.2314 0.9729 -0.9729 0.2314 1948.958 778.748)" font-family="'Copperplate-Bold'" font-size="21">285</text>
	<text transform="matrix(0.2973 0.9548 -0.9548 0.2973 1925.4346 699.2563)" font-family="'Copperplate-Bold'" font-size="21">290</text>
	<text transform="matrix(0.3986 0.9171 -0.9171 0.3986 1892.5264 621.125)" font-family="'Copperplate-Bold'" font-size="21">295</text>
	<text transform="matrix(0.5502 0.8351 -0.8351 0.5502 1854.1045 547.5293)" font-family="'Copperplate-Bold'" font-size="21">300</text>
	<text transform="matrix(0.5449 0.8385 -0.8385 0.5449 1810.2891 476.6309)" font-family="'Copperplate-Bold'" font-size="21">305</text>
	<text transform="matrix(0.6407 0.7678 -0.7678 0.6407 1758.8457 409.6514)" font-family="'Copperplate-Bold'" font-size="21">310</text>
	<text transform="matrix(0.7228 0.6911 -0.6911 0.7228 1702.7773 347.9102)" font-family="'Copperplate-Bold'" font-size="21">315</text>
	<text transform="matrix(0.7639 0.6454 -0.6454 0.7639 1640.1416 291.3389)" font-family="'Copperplate-Bold'" font-size="21">320</text>
	<text transform="matrix(0.7782 0.628 -0.628 0.7782 1574.9258 240.3545)" font-family="'Copperplate-Bold'" font-size="21">325</text>
	<text transform="matrix(0.8612 0.5083 -0.5083 0.8612 1504.1523 196.0767)" font-family="'Copperplate-Bold'" font-size="21">330</text>
	<text transform="matrix(0.9045 0.4264 -0.4264 0.9045 1430.5498 156.3926)" font-family="'Copperplate-Bold'" font-size="21">335</text>
	<text transform="matrix(0.9486 0.3166 -0.3166 0.9486 1353.6953 125.4961)" font-family="'Copperplate-Bold'" font-size="21">340</text>
	<text transform="matrix(0.9689 0.2474 -0.2474 0.9689 1273.4883 100.1426)" font-family="'Copperplate-Bold'" font-size="21">345</text>
	<text transform="matrix(0.9895 0.1443 -0.1443 0.9895 1191.7559 81.4834)" font-family="'Copperplate-Bold'" font-size="21">350</text>
	<text transform="matrix(0.9936 0.1127 -0.1127 0.9936 1110.9141 69.7417)" font-family="'Copperplate-Bold'" font-size="21">355</text>
</g>
</svg>
