<?xml version="1.0" encoding="utf-8"?>
<!-- Generator: Adobe Illustrator 14.0.0, SVG Export Plug-In . SVG Version: 6.00 Build 43363)  -->
<!DOCTYPE svg PUBLIC "-//W3C//DTD SVG 1.1//EN" "http://www.w3.org/Graphics/SVG/1.1/DTD/svg11.dtd">
<svg version="1.1" id="Layer_1" xmlns="http://www.w3.org/2000/svg" xmlns:xlink="http://www.w3.org/1999/xlink" x="0px" y="0px"
	 width="2048px" height="512px" viewBox="0 0 2048 512" enable-background="new 0 0 2048 512" xml:space="preserve">
<g id="svg3059" xmlns:inkscape="http://www.inkscape.org/namespaces/inkscape" xmlns:sodipodi="http://sodipodi.sourceforge.net/DTD/sodipodi-0.dtd" xmlns:svg="http://www.w3.org/2000/svg" xmlns:cc="http://creativecommons.org/ns#" xmlns:dc="http://purl.org/dc/elements/1.1/" xmlns:rdf="http://www.w3.org/1999/02/22-rdf-syntax-ns#" sodipodi:docname="New document 4" inkscape:version="0.48.4 r9939">
	
		<sodipodi:namedview  id="base" inkscape:pageshadow="2" borderopacity="1.0" inkscape:zoom="0.35" inkscape:window-width="787" inkscape:cx="912.65107" inkscape:pageopacity="0.0" inkscape:window-y="72" inkscape:window-height="588" inkscape:cy="291.42857" bordercolor="#666666" inkscape:document-units="px" showgrid="false" pagecolor="#ffffff" inkscape:current-layer="layer1" inkscape:window-x="115" inkscape:window-maximized="0">
		</sodipodi:namedview>
	<g id="layer1" transform="translate(0,-540.36218)" inkscape:label="Layer 1" inkscape:groupmode="layer">
		
			<image overflow="visible" enable-background="new    " width="254" height="248" id="image3075" xlink:href="F43D6C8B.jpeg"  transform="matrix(8.063 0 0 2.0645 -0.0078 540.3622)">
		</image>
	</g>
	<line fill="none" stroke="#000000" stroke-width="2" x1="586.5" y1="313.5" x2="586.5" y2="375.5"/>
	<line fill="none" stroke="#000000" stroke-width="2" x1="294.5" y1="313.5" x2="294.5" y2="375.5"/>
	<line fill="none" stroke="#000000" stroke-width="2" x1="164.5" y1="313.5" x2="164.5" y2="375.5"/>
	<line fill="none" stroke="#000000" stroke-width="2" x1="140.5" y1="313.5" x2="140.5" y2="375.5"/>
	<line fill="none" stroke="#000000" stroke-width="2" x1="1098.5" y1="313.5" x2="1098.5" y2="375.5"/>
	<line fill="none" stroke="#000000" stroke-width="2" x1="1226.5" y1="313.5" x2="1226.5" y2="375.5"/>
	<text transform="matrix(1 0 0 1 592.5 325.3877)" font-family="'Copperplate-Bold'" font-size="12">MERCURY</text>
	<text transform="matrix(1 0 0 1 1233.5 326.2129)" font-family="'Copperplate-Bold'" font-size="12">VENUS</text>
	<text transform="matrix(1 0 0 1 1103.5 326.2129)" font-family="'Copperplate-Bold'" font-size="12">MARS</text>
	<text transform="matrix(1 0 0 1 299.5 326.3633)" font-family="'Copperplate-Bold'" font-size="12">JUPITER</text>
	<text transform="matrix(1 0 0 1 170.5054 327.2129)" font-family="'Copperplate-Bold'" font-size="12">SATURN</text>
	<text transform="matrix(1 0 0 1 95.8354 328.3389)" font-family="'Copperplate-Bold'" font-size="12">MOON</text>
</g>
<g id="Layer_2">
	<rect y="313.5" fill="none" width="1600" height="180"/>
</g>
</svg>
