<?xml version="1.0" encoding="utf-8"?>
<!-- Generator: Adobe Illustrator 14.0.0, SVG Export Plug-In . SVG Version: 6.00 Build 43363)  -->
<!DOCTYPE svg PUBLIC "-//W3C//DTD SVG 1.1//EN" "http://www.w3.org/Graphics/SVG/1.1/DTD/svg11.dtd">
<svg version="1.1" id="Layer_1" xmlns="http://www.w3.org/2000/svg" xmlns:xlink="http://www.w3.org/1999/xlink" x="0px" y="0px"
	 width="2048px" height="2048px" viewBox="0 0 2048 2048" enable-background="new 0 0 2048 2048" xml:space="preserve">
<g id="Layer_1_1_">
	<g id="Layer_2">
		
			<image overflow="visible" enable-background="new    " width="2048" height="2048" xlink:href="brassfeb.jpg"  transform="matrix(1 0 0 1 0 -0.002)">
		</image>
	</g>
</g>
<g id="Layer_2_1_" display="none">
	<g id="Layer_1_2_" display="inline">
		<ellipse fill="none" stroke="#662D91" stroke-width="3" cx="1024" cy="1024" rx="961.059" ry="1000"/>
		<ellipse fill="none" stroke="#662D91" stroke-width="3" cx="1024" cy="1024" rx="910" ry="946.873"/>
	</g>
</g>
<g id="Layer_3">
	<g>
		<g>
			<defs>
				<path id="SVGID_1_" d="M51.2,51.2v1945.6h1945.6V51.2H51.2z M1024,1950.25c-511.555,0-926.25-414.695-926.25-926.25
					c0-511.554,414.695-926.25,926.25-926.25c511.553,0,926.25,414.696,926.25,926.25
					C1950.25,1535.555,1535.553,1950.25,1024,1950.25z"/>
			</defs>
			<clipPath id="SVGID_2_">
				<use xlink:href="#SVGID_1_"  overflow="visible"/>
			</clipPath>
			<line clip-path="url(#SVGID_2_)" fill="none" stroke="#000000" stroke-width="2" x1="1024" y1="51.2" x2="1024" y2="1996.8"/>
		</g>
		<g>
			<defs>
				<path id="SVGID_3_" d="M51.2,51.2v1945.6h1945.6V51.2H51.2z M1024,1950.25c-511.555,0-926.25-414.695-926.25-926.25
					c0-511.554,414.695-926.25,926.25-926.25c511.553,0,926.25,414.696,926.25,926.25
					C1950.25,1535.555,1535.553,1950.25,1024,1950.25z"/>
			</defs>
			<clipPath id="SVGID_4_">
				<use xlink:href="#SVGID_3_"  overflow="visible"/>
			</clipPath>
			
				<line clip-path="url(#SVGID_4_)" fill="none" stroke="#000000" stroke-width="2" x1="939.214" y1="54.902" x2="1108.785" y2="1993.099"/>
		</g>
		<g>
			<defs>
				<path id="SVGID_5_" d="M51.2,51.2v1945.6h1945.6V51.2H51.2z M1024,1950.25c-511.555,0-926.25-414.695-926.25-926.25
					c0-511.554,414.695-926.25,926.25-926.25c511.553,0,926.25,414.696,926.25,926.25
					C1950.25,1535.555,1535.553,1950.25,1024,1950.25z"/>
			</defs>
			<clipPath id="SVGID_6_">
				<use xlink:href="#SVGID_5_"  overflow="visible"/>
			</clipPath>
			
				<line clip-path="url(#SVGID_6_)" fill="none" stroke="#000000" stroke-width="2" x1="855.075" y1="65.979" x2="1192.924" y2="1982.021"/>
		</g>
		<g>
			<defs>
				<path id="SVGID_7_" d="M51.2,51.2v1945.6h1945.6V51.2H51.2z M1024,1950.25c-511.555,0-926.25-414.695-926.25-926.25
					c0-511.554,414.695-926.25,926.25-926.25c511.553,0,926.25,414.696,926.25,926.25
					C1950.25,1535.555,1535.553,1950.25,1024,1950.25z"/>
			</defs>
			<clipPath id="SVGID_8_">
				<use xlink:href="#SVGID_7_"  overflow="visible"/>
			</clipPath>
			
				<line clip-path="url(#SVGID_8_)" fill="none" stroke="#000000" stroke-width="2" x1="772.22" y1="84.348" x2="1275.777" y2="1963.653"/>
		</g>
		<g>
			<defs>
				<path id="SVGID_9_" d="M51.2,51.2v1945.6h1945.6V51.2H51.2z M1024,1950.25c-511.555,0-926.25-414.695-926.25-926.25
					c0-511.554,414.695-926.25,926.25-926.25c511.553,0,926.25,414.696,926.25,926.25
					C1950.25,1535.555,1535.553,1950.25,1024,1950.25z"/>
			</defs>
			<clipPath id="SVGID_10_">
				<use xlink:href="#SVGID_9_"  overflow="visible"/>
			</clipPath>
			
				<line clip-path="url(#SVGID_10_)" fill="none" stroke="#000000" stroke-width="2" x1="691.282" y1="109.868" x2="1356.715" y2="1938.134"/>
		</g>
		<g>
			<defs>
				<path id="SVGID_11_" d="M51.2,51.2v1945.6h1945.6V51.2H51.2z M1024,1950.25c-511.555,0-926.25-414.695-926.25-926.25
					c0-511.554,414.695-926.25,926.25-926.25c511.553,0,926.25,414.696,926.25,926.25
					C1950.25,1535.555,1535.553,1950.25,1024,1950.25z"/>
			</defs>
			<clipPath id="SVGID_12_">
				<use xlink:href="#SVGID_11_"  overflow="visible"/>
			</clipPath>
			
				<line clip-path="url(#SVGID_12_)" fill="none" stroke="#000000" stroke-width="2" x1="612.875" y1="142.345" x2="1435.121" y2="1905.656"/>
		</g>
		<g>
			<defs>
				<path id="SVGID_13_" d="M51.2,51.2v1945.6h1945.6V51.2H51.2z M1024,1950.25c-511.555,0-926.25-414.695-926.25-926.25
					c0-511.554,414.695-926.25,926.25-926.25c511.553,0,926.25,414.696,926.25,926.25
					C1950.25,1535.555,1535.553,1950.25,1024,1950.25z"/>
			</defs>
			<clipPath id="SVGID_14_">
				<use xlink:href="#SVGID_13_"  overflow="visible"/>
			</clipPath>
			
				<line clip-path="url(#SVGID_14_)" fill="none" stroke="#000000" stroke-width="2" x1="537.598" y1="181.532" x2="1510.398" y2="1866.471"/>
		</g>
		<g>
			<defs>
				<path id="SVGID_15_" d="M51.2,51.2v1945.6h1945.6V51.2H51.2z M1024,1950.25c-511.555,0-926.25-414.695-926.25-926.25
					c0-511.554,414.695-926.25,926.25-926.25c511.553,0,926.25,414.696,926.25,926.25
					C1950.25,1535.555,1535.553,1950.25,1024,1950.25z"/>
			</defs>
			<clipPath id="SVGID_16_">
				<use xlink:href="#SVGID_15_"  overflow="visible"/>
			</clipPath>
			
				<line clip-path="url(#SVGID_16_)" fill="none" stroke="#000000" stroke-width="2" x1="466.021" y1="227.13" x2="1581.973" y2="1820.873"/>
		</g>
		<g>
			<defs>
				<path id="SVGID_17_" d="M51.2,51.2v1945.6h1945.6V51.2H51.2z M1024,1950.25c-511.555,0-926.25-414.695-926.25-926.25
					c0-511.554,414.695-926.25,926.25-926.25c511.553,0,926.25,414.696,926.25,926.25
					C1950.25,1535.555,1535.553,1950.25,1024,1950.25z"/>
			</defs>
			<clipPath id="SVGID_18_">
				<use xlink:href="#SVGID_17_"  overflow="visible"/>
			</clipPath>
			
				<line clip-path="url(#SVGID_18_)" fill="none" stroke="#000000" stroke-width="2" x1="398.694" y1="278.794" x2="1649.302" y2="1769.21"/>
		</g>
		<g>
			<defs>
				<path id="SVGID_19_" d="M51.2,51.2v1945.6h1945.6V51.2H51.2z M1024,1950.25c-511.555,0-926.25-414.695-926.25-926.25
					c0-511.554,414.695-926.25,926.25-926.25c511.553,0,926.25,414.696,926.25,926.25
					C1950.25,1535.555,1535.553,1950.25,1024,1950.25z"/>
			</defs>
			<clipPath id="SVGID_20_">
				<use xlink:href="#SVGID_19_"  overflow="visible"/>
			</clipPath>
			
				<line clip-path="url(#SVGID_20_)" fill="none" stroke="#000000" stroke-width="2" x1="336.125" y1="336.129" x2="1711.87" y2="1711.876"/>
		</g>
		<g>
			<defs>
				<path id="SVGID_21_" d="M51.2,51.2v1945.6h1945.6V51.2H51.2z M1024,1950.25c-511.555,0-926.25-414.695-926.25-926.25
					c0-511.554,414.695-926.25,926.25-926.25c511.553,0,926.25,414.696,926.25,926.25
					C1950.25,1535.555,1535.553,1950.25,1024,1950.25z"/>
			</defs>
			<clipPath id="SVGID_22_">
				<use xlink:href="#SVGID_21_"  overflow="visible"/>
			</clipPath>
			
				<line clip-path="url(#SVGID_22_)" fill="none" stroke="#000000" stroke-width="2" x1="278.79" y1="398.699" x2="1769.205" y2="1649.306"/>
		</g>
		<g>
			<defs>
				<path id="SVGID_23_" d="M51.2,51.2v1945.6h1945.6V51.2H51.2z M1024,1950.25c-511.555,0-926.25-414.695-926.25-926.25
					c0-511.554,414.695-926.25,926.25-926.25c511.553,0,926.25,414.696,926.25,926.25
					C1950.25,1535.555,1535.553,1950.25,1024,1950.25z"/>
			</defs>
			<clipPath id="SVGID_24_">
				<use xlink:href="#SVGID_23_"  overflow="visible"/>
			</clipPath>
			
				<line clip-path="url(#SVGID_24_)" fill="none" stroke="#000000" stroke-width="2" x1="227.127" y1="466.028" x2="1820.868" y2="1581.979"/>
		</g>
		<g>
			<defs>
				<path id="SVGID_25_" d="M51.2,51.2v1945.6h1945.6V51.2H51.2z M1024,1950.25c-511.555,0-926.25-414.695-926.25-926.25
					c0-511.554,414.695-926.25,926.25-926.25c511.553,0,926.25,414.696,926.25,926.25
					C1950.25,1535.555,1535.553,1950.25,1024,1950.25z"/>
			</defs>
			<clipPath id="SVGID_26_">
				<use xlink:href="#SVGID_25_"  overflow="visible"/>
			</clipPath>
			
				<line clip-path="url(#SVGID_26_)" fill="none" stroke="#000000" stroke-width="2" x1="181.528" y1="537.604" x2="1866.467" y2="1510.402"/>
		</g>
		<g>
			<defs>
				<path id="SVGID_27_" d="M51.2,51.2v1945.6h1945.6V51.2H51.2z M1024,1950.25c-511.555,0-926.25-414.695-926.25-926.25
					c0-511.554,414.695-926.25,926.25-926.25c511.553,0,926.25,414.696,926.25,926.25
					C1950.25,1535.555,1535.553,1950.25,1024,1950.25z"/>
			</defs>
			<clipPath id="SVGID_28_">
				<use xlink:href="#SVGID_27_"  overflow="visible"/>
			</clipPath>
			
				<line clip-path="url(#SVGID_28_)" fill="none" stroke="#000000" stroke-width="2" x1="142.342" y1="612.881" x2="1905.652" y2="1435.126"/>
		</g>
		<g>
			<defs>
				<path id="SVGID_29_" d="M51.2,51.2v1945.6h1945.6V51.2H51.2z M1024,1950.25c-511.555,0-926.25-414.695-926.25-926.25
					c0-511.554,414.695-926.25,926.25-926.25c511.553,0,926.25,414.696,926.25,926.25
					C1950.25,1535.555,1535.553,1950.25,1024,1950.25z"/>
			</defs>
			<clipPath id="SVGID_30_">
				<use xlink:href="#SVGID_29_"  overflow="visible"/>
			</clipPath>
			
				<line clip-path="url(#SVGID_30_)" fill="none" stroke="#000000" stroke-width="2" x1="109.865" y1="691.287" x2="1938.13" y2="1356.721"/>
		</g>
		<g>
			<defs>
				<path id="SVGID_31_" d="M51.2,51.2v1945.6h1945.6V51.2H51.2z M1024,1950.25c-511.555,0-926.25-414.695-926.25-926.25
					c0-511.554,414.695-926.25,926.25-926.25c511.553,0,926.25,414.696,926.25,926.25
					C1950.25,1535.555,1535.553,1950.25,1024,1950.25z"/>
			</defs>
			<clipPath id="SVGID_32_">
				<use xlink:href="#SVGID_31_"  overflow="visible"/>
			</clipPath>
			
				<line clip-path="url(#SVGID_32_)" fill="none" stroke="#000000" stroke-width="2" x1="84.345" y1="772.226" x2="1963.648" y2="1275.783"/>
		</g>
		<g>
			<defs>
				<path id="SVGID_33_" d="M51.2,51.2v1945.6h1945.6V51.2H51.2z M1024,1950.25c-511.555,0-926.25-414.695-926.25-926.25
					c0-511.554,414.695-926.25,926.25-926.25c511.553,0,926.25,414.696,926.25,926.25
					C1950.25,1535.555,1535.553,1950.25,1024,1950.25z"/>
			</defs>
			<clipPath id="SVGID_34_">
				<use xlink:href="#SVGID_33_"  overflow="visible"/>
			</clipPath>
			
				<line clip-path="url(#SVGID_34_)" fill="none" stroke="#000000" stroke-width="2" x1="65.977" y1="855.08" x2="1982.018" y2="1192.93"/>
		</g>
		<g>
			<defs>
				<path id="SVGID_35_" d="M51.2,51.2v1945.6h1945.6V51.2H51.2z M1024,1950.25c-511.555,0-926.25-414.695-926.25-926.25
					c0-511.554,414.695-926.25,926.25-926.25c511.553,0,926.25,414.696,926.25,926.25
					C1950.25,1535.555,1535.553,1950.25,1024,1950.25z"/>
			</defs>
			<clipPath id="SVGID_36_">
				<use xlink:href="#SVGID_35_"  overflow="visible"/>
			</clipPath>
			
				<line clip-path="url(#SVGID_36_)" fill="none" stroke="#000000" stroke-width="2" x1="54.9" y1="939.221" x2="1993.095" y2="1108.789"/>
		</g>
		<g>
			<defs>
				<path id="SVGID_37_" d="M51.2,51.2v1945.6h1945.6V51.2H51.2z M1024,1950.25c-511.555,0-926.25-414.695-926.25-926.25
					c0-511.554,414.695-926.25,926.25-926.25c511.553,0,926.25,414.696,926.25,926.25
					C1950.25,1535.555,1535.553,1950.25,1024,1950.25z"/>
			</defs>
			<clipPath id="SVGID_38_">
				<use xlink:href="#SVGID_37_"  overflow="visible"/>
			</clipPath>
			
				<line clip-path="url(#SVGID_38_)" fill="none" stroke="#000000" stroke-width="2" x1="51.198" y1="1024.006" x2="1996.796" y2="1024.005"/>
		</g>
		<g>
			<defs>
				<path id="SVGID_39_" d="M51.2,51.2v1945.6h1945.6V51.2H51.2z M1024,1950.25c-511.555,0-926.25-414.695-926.25-926.25
					c0-511.554,414.695-926.25,926.25-926.25c511.553,0,926.25,414.696,926.25,926.25
					C1950.25,1535.555,1535.553,1950.25,1024,1950.25z"/>
			</defs>
			<clipPath id="SVGID_40_">
				<use xlink:href="#SVGID_39_"  overflow="visible"/>
			</clipPath>
			
				<line clip-path="url(#SVGID_40_)" fill="none" stroke="#000000" stroke-width="2" x1="54.9" y1="1108.791" x2="1993.095" y2="939.22"/>
		</g>
		<g>
			<defs>
				<path id="SVGID_41_" d="M51.2,51.2v1945.6h1945.6V51.2H51.2z M1024,1950.25c-511.555,0-926.25-414.695-926.25-926.25
					c0-511.554,414.695-926.25,926.25-926.25c511.553,0,926.25,414.696,926.25,926.25
					C1950.25,1535.555,1535.553,1950.25,1024,1950.25z"/>
			</defs>
			<clipPath id="SVGID_42_">
				<use xlink:href="#SVGID_41_"  overflow="visible"/>
			</clipPath>
			
				<line clip-path="url(#SVGID_42_)" fill="none" stroke="#000000" stroke-width="2" x1="65.978" y1="1192.932" x2="1982.018" y2="855.081"/>
		</g>
		<g>
			<defs>
				<path id="SVGID_43_" d="M51.2,51.2v1945.6h1945.6V51.2H51.2z M1024,1950.25c-511.555,0-926.25-414.695-926.25-926.25
					c0-511.554,414.695-926.25,926.25-926.25c511.553,0,926.25,414.696,926.25,926.25
					C1950.25,1535.555,1535.553,1950.25,1024,1950.25z"/>
			</defs>
			<clipPath id="SVGID_44_">
				<use xlink:href="#SVGID_43_"  overflow="visible"/>
			</clipPath>
			
				<line clip-path="url(#SVGID_44_)" fill="none" stroke="#000000" stroke-width="2" x1="84.346" y1="1275.785" x2="1963.648" y2="772.227"/>
		</g>
		<g>
			<defs>
				<path id="SVGID_45_" d="M51.2,51.2v1945.6h1945.6V51.2H51.2z M1024,1950.25c-511.555,0-926.25-414.695-926.25-926.25
					c0-511.554,414.695-926.25,926.25-926.25c511.553,0,926.25,414.696,926.25,926.25
					C1950.25,1535.555,1535.553,1950.25,1024,1950.25z"/>
			</defs>
			<clipPath id="SVGID_46_">
				<use xlink:href="#SVGID_45_"  overflow="visible"/>
			</clipPath>
			
				<line clip-path="url(#SVGID_46_)" fill="none" stroke="#000000" stroke-width="2" x1="109.866" y1="1356.724" x2="1938.13" y2="691.289"/>
		</g>
		<g>
			<defs>
				<path id="SVGID_47_" d="M51.2,51.2v1945.6h1945.6V51.2H51.2z M1024,1950.25c-511.555,0-926.25-414.695-926.25-926.25
					c0-511.554,414.695-926.25,926.25-926.25c511.553,0,926.25,414.696,926.25,926.25
					C1950.25,1535.555,1535.553,1950.25,1024,1950.25z"/>
			</defs>
			<clipPath id="SVGID_48_">
				<use xlink:href="#SVGID_47_"  overflow="visible"/>
			</clipPath>
			
				<line clip-path="url(#SVGID_48_)" fill="none" stroke="#000000" stroke-width="2" x1="142.343" y1="1435.129" x2="1905.652" y2="612.883"/>
		</g>
		<g>
			<defs>
				<path id="SVGID_49_" d="M51.2,51.2v1945.6h1945.6V51.2H51.2z M1024,1950.25c-511.555,0-926.25-414.695-926.25-926.25
					c0-511.554,414.695-926.25,926.25-926.25c511.553,0,926.25,414.696,926.25,926.25
					C1950.25,1535.555,1535.553,1950.25,1024,1950.25z"/>
			</defs>
			<clipPath id="SVGID_50_">
				<use xlink:href="#SVGID_49_"  overflow="visible"/>
			</clipPath>
			
				<line clip-path="url(#SVGID_50_)" fill="none" stroke="#000000" stroke-width="2" x1="181.53" y1="1510.406" x2="1866.467" y2="537.606"/>
		</g>
		<g>
			<defs>
				<path id="SVGID_51_" d="M51.2,51.2v1945.6h1945.6V51.2H51.2z M1024,1950.25c-511.555,0-926.25-414.695-926.25-926.25
					c0-511.554,414.695-926.25,926.25-926.25c511.553,0,926.25,414.696,926.25,926.25
					C1950.25,1535.555,1535.553,1950.25,1024,1950.25z"/>
			</defs>
			<clipPath id="SVGID_52_">
				<use xlink:href="#SVGID_51_"  overflow="visible"/>
			</clipPath>
			
				<line clip-path="url(#SVGID_52_)" fill="none" stroke="#000000" stroke-width="2" x1="227.128" y1="1581.982" x2="1820.868" y2="466.032"/>
		</g>
		<g>
			<defs>
				<path id="SVGID_53_" d="M51.2,51.2v1945.6h1945.6V51.2H51.2z M1024,1950.25c-511.555,0-926.25-414.695-926.25-926.25
					c0-511.554,414.695-926.25,926.25-926.25c511.553,0,926.25,414.696,926.25,926.25
					C1950.25,1535.555,1535.553,1950.25,1024,1950.25z"/>
			</defs>
			<clipPath id="SVGID_54_">
				<use xlink:href="#SVGID_53_"  overflow="visible"/>
			</clipPath>
			
				<line clip-path="url(#SVGID_54_)" fill="none" stroke="#000000" stroke-width="2" x1="278.792" y1="1649.311" x2="1769.205" y2="398.704"/>
		</g>
		<g>
			<defs>
				<path id="SVGID_55_" d="M51.2,51.2v1945.6h1945.6V51.2H51.2z M1024,1950.25c-511.555,0-926.25-414.695-926.25-926.25
					c0-511.554,414.695-926.25,926.25-926.25c511.553,0,926.25,414.696,926.25,926.25
					C1950.25,1535.555,1535.553,1950.25,1024,1950.25z"/>
			</defs>
			<clipPath id="SVGID_56_">
				<use xlink:href="#SVGID_55_"  overflow="visible"/>
			</clipPath>
			
				<line clip-path="url(#SVGID_56_)" fill="none" stroke="#000000" stroke-width="2" x1="336.127" y1="1711.88" x2="1711.87" y2="336.134"/>
		</g>
		<g>
			<defs>
				<path id="SVGID_57_" d="M51.2,51.2v1945.6h1945.6V51.2H51.2z M1024,1950.25c-511.555,0-926.25-414.695-926.25-926.25
					c0-511.554,414.695-926.25,926.25-926.25c511.553,0,926.25,414.696,926.25,926.25
					C1950.25,1535.555,1535.553,1950.25,1024,1950.25z"/>
			</defs>
			<clipPath id="SVGID_58_">
				<use xlink:href="#SVGID_57_"  overflow="visible"/>
			</clipPath>
			
				<line clip-path="url(#SVGID_58_)" fill="none" stroke="#000000" stroke-width="2" x1="398.697" y1="1769.214" x2="1649.302" y2="278.8"/>
		</g>
		<g>
			<defs>
				<path id="SVGID_59_" d="M51.2,51.2v1945.6h1945.6V51.2H51.2z M1024,1950.25c-511.555,0-926.25-414.695-926.25-926.25
					c0-511.554,414.695-926.25,926.25-926.25c511.553,0,926.25,414.696,926.25,926.25
					C1950.25,1535.555,1535.553,1950.25,1024,1950.25z"/>
			</defs>
			<clipPath id="SVGID_60_">
				<use xlink:href="#SVGID_59_"  overflow="visible"/>
			</clipPath>
			
				<line clip-path="url(#SVGID_60_)" fill="none" stroke="#000000" stroke-width="2" x1="466.025" y1="1820.877" x2="1581.973" y2="227.137"/>
		</g>
		<g>
			<defs>
				<path id="SVGID_61_" d="M51.2,51.2v1945.6h1945.6V51.2H51.2z M1024,1950.25c-511.555,0-926.25-414.695-926.25-926.25
					c0-511.554,414.695-926.25,926.25-926.25c511.553,0,926.25,414.696,926.25,926.25
					C1950.25,1535.555,1535.553,1950.25,1024,1950.25z"/>
			</defs>
			<clipPath id="SVGID_62_">
				<use xlink:href="#SVGID_61_"  overflow="visible"/>
			</clipPath>
			
				<line clip-path="url(#SVGID_62_)" fill="none" stroke="#000000" stroke-width="2" x1="537.602" y1="1866.475" x2="1510.398" y2="181.539"/>
		</g>
		<g>
			<defs>
				<path id="SVGID_63_" d="M51.2,51.2v1945.6h1945.6V51.2H51.2z M1024,1950.25c-511.555,0-926.25-414.695-926.25-926.25
					c0-511.554,414.695-926.25,926.25-926.25c511.553,0,926.25,414.696,926.25,926.25
					C1950.25,1535.555,1535.553,1950.25,1024,1950.25z"/>
			</defs>
			<clipPath id="SVGID_64_">
				<use xlink:href="#SVGID_63_"  overflow="visible"/>
			</clipPath>
			
				<line clip-path="url(#SVGID_64_)" fill="none" stroke="#000000" stroke-width="2" x1="612.878" y1="1905.661" x2="1435.122" y2="142.353"/>
		</g>
		<g>
			<defs>
				<path id="SVGID_65_" d="M51.2,51.2v1945.6h1945.6V51.2H51.2z M1024,1950.25c-511.555,0-926.25-414.695-926.25-926.25
					c0-511.554,414.695-926.25,926.25-926.25c511.553,0,926.25,414.696,926.25,926.25
					C1950.25,1535.555,1535.553,1950.25,1024,1950.25z"/>
			</defs>
			<clipPath id="SVGID_66_">
				<use xlink:href="#SVGID_65_"  overflow="visible"/>
			</clipPath>
			
				<line clip-path="url(#SVGID_66_)" fill="none" stroke="#000000" stroke-width="2" x1="691.284" y1="1938.139" x2="1356.717" y2="109.875"/>
		</g>
		<g>
			<defs>
				<path id="SVGID_67_" d="M51.2,51.2v1945.6h1945.6V51.2H51.2z M1024,1950.25c-511.555,0-926.25-414.695-926.25-926.25
					c0-511.554,414.695-926.25,926.25-926.25c511.553,0,926.25,414.696,926.25,926.25
					C1950.25,1535.555,1535.553,1950.25,1024,1950.25z"/>
			</defs>
			<clipPath id="SVGID_68_">
				<use xlink:href="#SVGID_67_"  overflow="visible"/>
			</clipPath>
			
				<line clip-path="url(#SVGID_68_)" fill="none" stroke="#000000" stroke-width="2" x1="772.222" y1="1963.657" x2="1275.779" y2="84.356"/>
		</g>
		<g>
			<defs>
				<path id="SVGID_69_" d="M51.2,51.2v1945.6h1945.6V51.2H51.2z M1024,1950.25c-511.555,0-926.25-414.695-926.25-926.25
					c0-511.554,414.695-926.25,926.25-926.25c511.553,0,926.25,414.696,926.25,926.25
					C1950.25,1535.555,1535.553,1950.25,1024,1950.25z"/>
			</defs>
			<clipPath id="SVGID_70_">
				<use xlink:href="#SVGID_69_"  overflow="visible"/>
			</clipPath>
			
				<line clip-path="url(#SVGID_70_)" fill="none" stroke="#000000" stroke-width="2" x1="855.076" y1="1982.026" x2="1192.926" y2="65.988"/>
		</g>
		<g>
			<defs>
				<path id="SVGID_71_" d="M51.2,51.2v1945.6h1945.6V51.2H51.2z M1024,1950.25c-511.555,0-926.25-414.695-926.25-926.25
					c0-511.554,414.695-926.25,926.25-926.25c511.553,0,926.25,414.696,926.25,926.25
					C1950.25,1535.555,1535.553,1950.25,1024,1950.25z"/>
			</defs>
			<clipPath id="SVGID_72_">
				<use xlink:href="#SVGID_71_"  overflow="visible"/>
			</clipPath>
			
				<line clip-path="url(#SVGID_72_)" fill="none" stroke="#000000" stroke-width="2" x1="939.216" y1="1993.104" x2="1108.787" y2="54.911"/>
		</g>
		<g>
			<defs>
				<path id="SVGID_73_" d="M51.2,51.2v1945.6h1945.6V51.2H51.2z M1024,1950.25c-511.555,0-926.25-414.695-926.25-926.25
					c0-511.554,414.695-926.25,926.25-926.25c511.553,0,926.25,414.696,926.25,926.25
					C1950.25,1535.555,1535.553,1950.25,1024,1950.25z"/>
			</defs>
			<clipPath id="SVGID_74_">
				<use xlink:href="#SVGID_73_"  overflow="visible"/>
			</clipPath>
			<g id="Layer_1_3_" clip-path="url(#SVGID_74_)">
				<g id="Layer_2_2_" display="none">
					<circle display="inline" fill="none" stroke="#000000" stroke-width="2" cx="1024" cy="1024" r="945.25"/>
				</g>
				<line fill="none" stroke="#000000" stroke-width="2" x1="1024" y1="78.75" x2="1024" y2="1968.895"/>
				<line fill="none" stroke="#000000" stroke-width="2" x1="1007.507" y1="78.894" x2="1040.493" y2="1968.751"/>
				<line fill="none" stroke="#000000" stroke-width="2" x1="991.016" y1="79.326" x2="1056.98" y2="1968.319"/>
				<line fill="none" stroke="#000000" stroke-width="2" x1="974.538" y1="80.046" x2="1073.459" y2="1967.601"/>
				<line fill="none" stroke="#000000" stroke-width="2" x1="958.073" y1="81.053" x2="1089.923" y2="1966.593"/>
				<line fill="none" stroke="#000000" stroke-width="2" x1="941.628" y1="82.347" x2="1106.366" y2="1965.299"/>
				<line fill="none" stroke="#000000" stroke-width="2" x1="925.21" y1="83.928" x2="1122.784" y2="1963.717"/>
				<line fill="none" stroke="#000000" stroke-width="2" x1="908.822" y1="85.796" x2="1139.172" y2="1961.852"/>
				<line fill="none" stroke="#000000" stroke-width="2" x1="892.468" y1="87.948" x2="1155.527" y2="1959.7"/>
				<line fill="none" stroke="#000000" stroke-width="2" x1="876.154" y1="90.387" x2="1171.838" y2="1957.261"/>
				<line fill="none" stroke="#000000" stroke-width="2" x1="859.886" y1="93.109" x2="1188.105" y2="1954.54"/>
				<line fill="none" stroke="#000000" stroke-width="2" x1="843.667" y1="96.116" x2="1204.324" y2="1951.533"/>
				<line fill="none" stroke="#000000" stroke-width="2" x1="827.504" y1="99.405" x2="1220.488" y2="1948.245"/>
				<line fill="none" stroke="#000000" stroke-width="2" x1="811.4" y1="102.974" x2="1236.592" y2="1944.676"/>
				<line fill="none" stroke="#000000" stroke-width="2" x1="795.361" y1="106.825" x2="1252.631" y2="1940.825"/>
				<line fill="none" stroke="#000000" stroke-width="2" x1="779.393" y1="110.956" x2="1268.6" y2="1936.696"/>
				<line fill="none" stroke="#000000" stroke-width="2" x1="763.497" y1="115.363" x2="1284.493" y2="1932.287"/>
				<line fill="none" stroke="#000000" stroke-width="2" x1="747.681" y1="120.048" x2="1300.309" y2="1927.604"/>
				<line fill="none" stroke="#000000" stroke-width="2" x1="731.95" y1="125.008" x2="1316.039" y2="1922.645"/>
				<line fill="none" stroke="#000000" stroke-width="2" x1="716.308" y1="130.242" x2="1331.68" y2="1917.411"/>
				<line fill="none" stroke="#000000" stroke-width="2" x1="700.76" y1="135.748" x2="1347.229" y2="1911.905"/>
				<line fill="none" stroke="#000000" stroke-width="2" x1="685.311" y1="141.525" x2="1362.679" y2="1906.128"/>
				<line fill="none" stroke="#000000" stroke-width="2" x1="669.963" y1="147.57" x2="1378.025" y2="1900.083"/>
				<line fill="none" stroke="#000000" stroke-width="2" x1="654.724" y1="153.882" x2="1393.264" y2="1893.771"/>
				<line fill="none" stroke="#000000" stroke-width="2" x1="639.597" y1="160.459" x2="1408.391" y2="1887.192"/>
				<line fill="none" stroke="#000000" stroke-width="2" x1="624.588" y1="167.299" x2="1423.4" y2="1880.354"/>
				<line fill="none" stroke="#000000" stroke-width="2" x1="609.7" y1="174.401" x2="1438.287" y2="1873.252"/>
				<line fill="none" stroke="#000000" stroke-width="2" x1="594.938" y1="181.761" x2="1453.048" y2="1865.893"/>
				<line fill="none" stroke="#000000" stroke-width="2" x1="580.307" y1="189.378" x2="1467.68" y2="1858.276"/>
				<line fill="none" stroke="#000000" stroke-width="2" x1="565.812" y1="197.247" x2="1482.175" y2="1850.405"/>
				<line fill="none" stroke="#000000" stroke-width="2" x1="551.456" y1="205.37" x2="1496.53" y2="1842.284"/>
				<line fill="none" stroke="#000000" stroke-width="2" x1="537.243" y1="213.742" x2="1510.743" y2="1833.913"/>
				<line fill="none" stroke="#000000" stroke-width="2" x1="523.179" y1="222.361" x2="1524.805" y2="1825.295"/>
				<line fill="none" stroke="#000000" stroke-width="2" x1="509.268" y1="231.223" x2="1538.718" y2="1816.433"/>
				<line fill="none" stroke="#000000" stroke-width="2" x1="495.514" y1="240.328" x2="1552.471" y2="1807.329"/>
				<line fill="none" stroke="#000000" stroke-width="2" x1="481.919" y1="249.671" x2="1566.064" y2="1797.986"/>
				<line fill="none" stroke="#000000" stroke-width="2" x1="468.49" y1="259.25" x2="1579.492" y2="1788.408"/>
				<line fill="none" stroke="#000000" stroke-width="2" x1="455.232" y1="269.061" x2="1592.75" y2="1778.597"/>
				<line fill="none" stroke="#000000" stroke-width="2" x1="442.146" y1="279.103" x2="1605.838" y2="1768.556"/>
				<line fill="none" stroke="#000000" stroke-width="2" x1="429.237" y1="289.371" x2="1618.744" y2="1758.289"/>
				<line fill="none" stroke="#000000" stroke-width="2" x1="416.51" y1="299.863" x2="1631.473" y2="1747.797"/>
				<line fill="none" stroke="#000000" stroke-width="2" x1="403.967" y1="310.575" x2="1644.016" y2="1737.085"/>
				<line fill="none" stroke="#000000" stroke-width="2" x1="391.613" y1="321.505" x2="1656.368" y2="1726.155"/>
				<line fill="none" stroke="#000000" stroke-width="2" x1="379.452" y1="332.649" x2="1668.527" y2="1715.012"/>
				<line fill="none" stroke="#000000" stroke-width="2" x1="367.487" y1="344.003" x2="1680.493" y2="1703.659"/>
				<line fill="none" stroke="#000000" stroke-width="2" x1="355.723" y1="355.565" x2="1692.257" y2="1692.098"/>
				<line fill="none" stroke="#000000" stroke-width="2" x1="344.163" y1="367.33" x2="1703.816" y2="1680.333"/>
				<line fill="none" stroke="#000000" stroke-width="2" x1="332.807" y1="379.295" x2="1715.171" y2="1668.369"/>
				<line fill="none" stroke="#000000" stroke-width="2" x1="321.664" y1="391.457" x2="1726.314" y2="1656.208"/>
				<line fill="none" stroke="#000000" stroke-width="2" x1="310.734" y1="403.81" x2="1737.245" y2="1643.854"/>
				<line fill="none" stroke="#000000" stroke-width="2" x1="300.021" y1="416.354" x2="1747.957" y2="1631.312"/>
				<line fill="none" stroke="#000000" stroke-width="2" x1="289.531" y1="429.082" x2="1758.448" y2="1618.584"/>
				<line fill="none" stroke="#000000" stroke-width="2" x1="279.261" y1="441.99" x2="1768.717" y2="1605.676"/>
				<line fill="none" stroke="#000000" stroke-width="2" x1="269.221" y1="455.077" x2="1778.759" y2="1592.591"/>
				<line fill="none" stroke="#000000" stroke-width="2" x1="259.409" y1="468.336" x2="1788.568" y2="1579.333"/>
				<line fill="none" stroke="#000000" stroke-width="2" x1="249.831" y1="481.765" x2="1798.146" y2="1565.904"/>
				<line fill="none" stroke="#000000" stroke-width="2" x1="240.488" y1="495.359" x2="1807.488" y2="1552.311"/>
				<line fill="none" stroke="#000000" stroke-width="2" x1="231.385" y1="509.114" x2="1816.593" y2="1538.557"/>
				<line fill="none" stroke="#000000" stroke-width="2" x1="222.522" y1="523.025" x2="1825.455" y2="1524.646"/>
				<line fill="none" stroke="#000000" stroke-width="2" x1="213.904" y1="537.088" x2="1834.072" y2="1510.582"/>
				<line fill="none" stroke="#000000" stroke-width="2" x1="205.532" y1="551.301" x2="1842.443" y2="1496.37"/>
				<line fill="none" stroke="#000000" stroke-width="2" x1="197.41" y1="565.658" x2="1850.566" y2="1482.015"/>
				<line fill="none" stroke="#000000" stroke-width="2" x1="189.539" y1="580.153" x2="1858.438" y2="1467.521"/>
				<line fill="none" stroke="#000000" stroke-width="2" x1="181.922" y1="594.785" x2="1866.054" y2="1452.889"/>
				<line fill="none" stroke="#000000" stroke-width="2" x1="174.562" y1="609.547" x2="1873.413" y2="1438.128"/>
				<line fill="none" stroke="#000000" stroke-width="2" x1="167.462" y1="624.434" x2="1880.514" y2="1423.239"/>
				<line fill="none" stroke="#000000" stroke-width="2" x1="160.621" y1="639.444" x2="1887.354" y2="1408.23"/>
				<line fill="none" stroke="#000000" stroke-width="2" x1="154.044" y1="654.571" x2="1893.932" y2="1393.105"/>
				<line fill="none" stroke="#000000" stroke-width="2" x1="147.733" y1="669.81" x2="1900.243" y2="1377.867"/>
				<line fill="none" stroke="#000000" stroke-width="2" x1="141.687" y1="685.158" x2="1906.289" y2="1362.52"/>
				<line fill="none" stroke="#000000" stroke-width="2" x1="135.911" y1="700.607" x2="1912.064" y2="1347.071"/>
				<line fill="none" stroke="#000000" stroke-width="2" x1="130.404" y1="716.156" x2="1917.571" y2="1331.521"/>
				<line fill="none" stroke="#000000" stroke-width="2" x1="125.17" y1="731.799" x2="1922.807" y2="1315.881"/>
				<line fill="none" stroke="#000000" stroke-width="2" x1="120.21" y1="747.529" x2="1927.766" y2="1300.149"/>
				<line fill="none" stroke="#000000" stroke-width="2" x1="115.526" y1="763.346" x2="1932.448" y2="1284.336"/>
				<line fill="none" stroke="#000000" stroke-width="2" x1="111.118" y1="779.24" x2="1936.857" y2="1268.441"/>
				<line fill="none" stroke="#000000" stroke-width="2" x1="106.988" y1="795.209" x2="1940.986" y2="1252.473"/>
				<line fill="none" stroke="#000000" stroke-width="2" x1="103.138" y1="811.249" x2="1944.837" y2="1236.436"/>
				<line fill="none" stroke="#000000" stroke-width="2" x1="99.567" y1="827.352" x2="1948.407" y2="1220.333"/>
				<line fill="none" stroke="#000000" stroke-width="2" x1="96.279" y1="843.516" x2="1951.695" y2="1204.168"/>
				<line fill="none" stroke="#000000" stroke-width="2" x1="93.273" y1="859.734" x2="1954.702" y2="1187.951"/>
				<line fill="none" stroke="#000000" stroke-width="2" x1="90.55" y1="876.002" x2="1957.424" y2="1171.684"/>
				<line fill="none" stroke="#000000" stroke-width="2" x1="88.113" y1="892.315" x2="1959.862" y2="1155.369"/>
				<line fill="none" stroke="#000000" stroke-width="2" x1="85.96" y1="908.671" x2="1962.018" y2="1139.018"/>
				<line fill="none" stroke="#000000" stroke-width="2" x1="84.093" y1="925.059" x2="1963.883" y2="1122.631"/>
				<line fill="none" stroke="#000000" stroke-width="2" x1="82.512" y1="941.479" x2="1965.465" y2="1106.213"/>
				<line fill="none" stroke="#000000" stroke-width="2" x1="81.218" y1="957.921" x2="1966.758" y2="1089.77"/>
				<line fill="none" stroke="#000000" stroke-width="2" x1="80.211" y1="974.385" x2="1967.766" y2="1073.307"/>
				<line fill="none" stroke="#000000" stroke-width="2" x1="79.492" y1="990.865" x2="1968.484" y2="1056.827"/>
				<line fill="none" stroke="#000000" stroke-width="2" x1="79.062" y1="1007.354" x2="1968.918" y2="1040.34"/>
				<line fill="none" stroke="#000000" stroke-width="2" x1="78.917" y1="1023.811" x2="1969.061" y2="1023.811"/>
				<line fill="none" stroke="#000000" stroke-width="2" x1="79.062" y1="1040.305" x2="1968.918" y2="1007.318"/>
				<line fill="none" stroke="#000000" stroke-width="2" x1="79.493" y1="1056.793" x2="1968.484" y2="990.83"/>
				<line fill="none" stroke="#000000" stroke-width="2" x1="80.212" y1="1073.273" x2="1967.768" y2="974.352"/>
				<line fill="none" stroke="#000000" stroke-width="2" x1="81.22" y1="1089.737" x2="1966.76" y2="957.888"/>
				<line fill="none" stroke="#000000" stroke-width="2" x1="82.514" y1="1106.182" x2="1965.467" y2="941.445"/>
				<line fill="none" stroke="#000000" stroke-width="2" x1="84.096" y1="1122.602" x2="1963.885" y2="925.027"/>
				<line fill="none" stroke="#000000" stroke-width="2" x1="85.962" y1="1138.989" x2="1962.02" y2="908.639"/>
				<line fill="none" stroke="#000000" stroke-width="2" x1="88.116" y1="1155.344" x2="1959.866" y2="892.286"/>
				<line fill="none" stroke="#000000" stroke-width="2" x1="90.554" y1="1171.656" x2="1957.428" y2="875.973"/>
				<line fill="none" stroke="#000000" stroke-width="2" x1="93.277" y1="1187.926" x2="1954.706" y2="859.704"/>
				<line fill="none" stroke="#000000" stroke-width="2" x1="96.282" y1="1204.145" x2="1951.7" y2="843.486"/>
				<line fill="none" stroke="#000000" stroke-width="2" x1="99.571" y1="1220.308" x2="1948.412" y2="827.323"/>
				<line fill="none" stroke="#000000" stroke-width="2" x1="103.142" y1="1236.41" x2="1944.843" y2="811.219"/>
				<line fill="none" stroke="#000000" stroke-width="2" x1="106.992" y1="1252.45" x2="1940.992" y2="795.181"/>
				<line fill="none" stroke="#000000" stroke-width="2" x1="111.123" y1="1268.419" x2="1936.862" y2="779.212"/>
				<line fill="none" stroke="#000000" stroke-width="2" x1="115.531" y1="1284.314" x2="1932.454" y2="763.318"/>
				<line fill="none" stroke="#000000" stroke-width="2" x1="120.216" y1="1300.129" x2="1927.771" y2="747.502"/>
				<line fill="none" stroke="#000000" stroke-width="2" x1="125.175" y1="1315.861" x2="1922.812" y2="731.771"/>
				<line fill="none" stroke="#000000" stroke-width="2" x1="130.409" y1="1331.502" x2="1917.578" y2="716.13"/>
				<line fill="none" stroke="#000000" stroke-width="2" x1="135.915" y1="1347.051" x2="1912.072" y2="700.582"/>
				<line fill="none" stroke="#000000" stroke-width="2" x1="141.691" y1="1362.5" x2="1906.295" y2="685.132"/>
				<line fill="none" stroke="#000000" stroke-width="2" x1="147.737" y1="1377.848" x2="1900.25" y2="669.785"/>
				<line fill="none" stroke="#000000" stroke-width="2" x1="154.05" y1="1393.087" x2="1893.938" y2="654.546"/>
				<line fill="none" stroke="#000000" stroke-width="2" x1="160.627" y1="1408.214" x2="1887.359" y2="639.42"/>
				<line fill="none" stroke="#000000" stroke-width="2" x1="167.467" y1="1423.224" x2="1880.521" y2="624.412"/>
				<line fill="none" stroke="#000000" stroke-width="2" x1="174.568" y1="1438.111" x2="1873.419" y2="609.523"/>
				<line fill="none" stroke="#000000" stroke-width="2" x1="181.928" y1="1452.872" x2="1866.061" y2="594.763"/>
				<line fill="none" stroke="#000000" stroke-width="2" x1="189.544" y1="1467.504" x2="1858.443" y2="580.131"/>
				<line fill="none" stroke="#000000" stroke-width="2" x1="197.415" y1="1481.998" x2="1850.573" y2="565.636"/>
				<line fill="none" stroke="#000000" stroke-width="2" x1="205.537" y1="1496.355" x2="1842.45" y2="551.28"/>
				<line fill="none" stroke="#000000" stroke-width="2" x1="213.909" y1="1510.567" x2="1834.08" y2="537.068"/>
				<line fill="none" stroke="#000000" stroke-width="2" x1="222.527" y1="1524.632" x2="1825.462" y2="523.004"/>
				<line fill="none" stroke="#000000" stroke-width="2" x1="231.39" y1="1538.543" x2="1816.6" y2="509.094"/>
				<line fill="none" stroke="#000000" stroke-width="2" x1="240.495" y1="1552.297" x2="1807.496" y2="495.339"/>
				<line fill="none" stroke="#000000" stroke-width="2" x1="249.839" y1="1565.891" x2="1798.152" y2="481.747"/>
				<line fill="none" stroke="#000000" stroke-width="2" x1="259.417" y1="1579.319" x2="1788.575" y2="468.319"/>
				<line fill="none" stroke="#000000" stroke-width="2" x1="269.229" y1="1592.579" x2="1778.764" y2="455.06"/>
				<line fill="none" stroke="#000000" stroke-width="2" x1="279.27" y1="1605.664" x2="1768.723" y2="441.974"/>
				<line fill="none" stroke="#000000" stroke-width="2" x1="289.538" y1="1618.573" x2="1758.456" y2="429.064"/>
				<line fill="none" stroke="#000000" stroke-width="2" x1="300.031" y1="1631.302" x2="1747.964" y2="416.339"/>
				<line fill="none" stroke="#000000" stroke-width="2" x1="310.743" y1="1643.845" x2="1737.251" y2="403.796"/>
				<line fill="none" stroke="#000000" stroke-width="2" x1="321.673" y1="1656.197" x2="1726.322" y2="391.443"/>
				<line fill="none" stroke="#000000" stroke-width="2" x1="332.817" y1="1668.359" x2="1715.179" y2="379.282"/>
				<line fill="none" stroke="#000000" stroke-width="2" x1="344.171" y1="1680.323" x2="1703.826" y2="367.318"/>
				<line fill="none" stroke="#000000" stroke-width="2" x1="355.732" y1="1692.089" x2="1692.266" y2="355.554"/>
				<line fill="none" stroke="#000000" stroke-width="2" x1="367.497" y1="1703.65" x2="1680.5" y2="343.993"/>
				<line fill="none" stroke="#000000" stroke-width="2" x1="379.462" y1="1715.004" x2="1668.536" y2="332.641"/>
				<line fill="none" stroke="#000000" stroke-width="2" x1="391.625" y1="1726.146" x2="1656.375" y2="321.497"/>
				<line fill="none" stroke="#000000" stroke-width="2" x1="403.977" y1="1737.077" x2="1644.021" y2="310.567"/>
				<line fill="none" stroke="#000000" stroke-width="2" x1="416.52" y1="1747.789" x2="1631.479" y2="299.854"/>
				<line fill="none" stroke="#000000" stroke-width="2" x1="429.249" y1="1758.28" x2="1618.752" y2="289.363"/>
				<line fill="none" stroke="#000000" stroke-width="2" x1="442.157" y1="1768.549" x2="1605.843" y2="279.095"/>
				<line fill="none" stroke="#000000" stroke-width="2" x1="455.243" y1="1778.591" x2="1592.758" y2="269.054"/>
				<line fill="none" stroke="#000000" stroke-width="2" x1="468.503" y1="1788.402" x2="1579.5" y2="259.243"/>
				<line fill="none" stroke="#000000" stroke-width="2" x1="481.932" y1="1797.98" x2="1566.071" y2="249.665"/>
				<line fill="none" stroke="#000000" stroke-width="2" x1="495.526" y1="1807.322" x2="1552.479" y2="240.323"/>
				<line fill="none" stroke="#000000" stroke-width="2" x1="509.28" y1="1816.427" x2="1538.725" y2="231.219"/>
				<line fill="none" stroke="#000000" stroke-width="2" x1="523.193" y1="1825.29" x2="1524.812" y2="222.356"/>
				<line fill="none" stroke="#000000" stroke-width="2" x1="537.255" y1="1833.907" x2="1510.749" y2="213.739"/>
				<line fill="none" stroke="#000000" stroke-width="2" x1="551.468" y1="1842.279" x2="1496.538" y2="205.366"/>
				<line fill="none" stroke="#000000" stroke-width="2" x1="565.826" y1="1850.401" x2="1482.182" y2="197.244"/>
				<line fill="none" stroke="#000000" stroke-width="2" x1="580.32" y1="1858.271" x2="1467.688" y2="189.374"/>
				<line fill="none" stroke="#000000" stroke-width="2" x1="594.953" y1="1865.889" x2="1453.057" y2="181.758"/>
				<line fill="none" stroke="#000000" stroke-width="2" x1="609.713" y1="1873.248" x2="1438.295" y2="174.398"/>
				<line fill="none" stroke="#000000" stroke-width="2" x1="624.602" y1="1880.35" x2="1423.407" y2="167.297"/>
				<line fill="none" stroke="#000000" stroke-width="2" x1="639.611" y1="1887.189" x2="1408.398" y2="160.457"/>
				<line fill="none" stroke="#000000" stroke-width="2" x1="654.738" y1="1893.767" x2="1393.271" y2="153.879"/>
				<line fill="none" stroke="#000000" stroke-width="2" x1="669.977" y1="1900.079" x2="1378.033" y2="147.567"/>
				<line fill="none" stroke="#000000" stroke-width="2" x1="685.325" y1="1906.124" x2="1362.688" y2="141.522"/>
				<line fill="none" stroke="#000000" stroke-width="2" x1="700.775" y1="1911.901" x2="1347.238" y2="135.746"/>
				<line fill="none" stroke="#000000" stroke-width="2" x1="716.323" y1="1917.407" x2="1331.689" y2="130.24"/>
				<line fill="none" stroke="#000000" stroke-width="2" x1="731.965" y1="1922.641" x2="1316.048" y2="125.006"/>
				<line fill="none" stroke="#000000" stroke-width="2" x1="747.697" y1="1927.601" x2="1300.316" y2="120.046"/>
				<line fill="none" stroke="#000000" stroke-width="2" x1="763.512" y1="1932.285" x2="1284.502" y2="115.361"/>
				<line fill="none" stroke="#000000" stroke-width="2" x1="779.408" y1="1936.692" x2="1268.608" y2="110.954"/>
				<line fill="none" stroke="#000000" stroke-width="2" x1="795.376" y1="1940.822" x2="1252.641" y2="106.824"/>
				<line fill="none" stroke="#000000" stroke-width="2" x1="811.417" y1="1944.674" x2="1236.602" y2="102.974"/>
				<line fill="none" stroke="#000000" stroke-width="2" x1="827.52" y1="1948.243" x2="1220.5" y2="99.404"/>
				<line fill="none" stroke="#000000" stroke-width="2" x1="843.683" y1="1951.532" x2="1204.336" y2="96.115"/>
				<line fill="none" stroke="#000000" stroke-width="2" x1="859.901" y1="1954.538" x2="1188.118" y2="93.109"/>
				<line fill="none" stroke="#000000" stroke-width="2" x1="876.17" y1="1957.259" x2="1171.85" y2="90.387"/>
				<line fill="none" stroke="#000000" stroke-width="2" x1="892.482" y1="1959.698" x2="1155.538" y2="87.947"/>
				<line fill="none" stroke="#000000" stroke-width="2" x1="908.838" y1="1961.851" x2="1139.184" y2="85.795"/>
				<line fill="none" stroke="#000000" stroke-width="2" x1="925.225" y1="1963.717" x2="1122.797" y2="83.928"/>
				<line fill="none" stroke="#000000" stroke-width="2" x1="941.645" y1="1965.298" x2="1106.379" y2="82.347"/>
				<line fill="none" stroke="#000000" stroke-width="2" x1="958.089" y1="1966.591" x2="1089.936" y2="81.053"/>
				<line fill="none" stroke="#000000" stroke-width="2" x1="974.552" y1="1967.6" x2="1073.473" y2="80.045"/>
				<line fill="none" stroke="#000000" stroke-width="2" x1="991.032" y1="1968.318" x2="1056.994" y2="79.325"/>
				<line fill="none" stroke="#000000" stroke-width="2" x1="1007.521" y1="1968.75" x2="1040.506" y2="78.893"/>
			</g>
		</g>
	</g>
	<text transform="matrix(1 0 0 1 1027.3252 113.4629)" font-family="'Copperplate-Bold'" font-size="19.95">0</text>
	<text transform="matrix(0.9997 -0.0262 0.0262 0.9997 947.1406 116.3091)" font-family="'Copperplate-Bold'" font-size="19.9509">5</text>
	<text transform="matrix(0.991 -0.1342 0.1342 0.991 865.2393 126.9082)" font-family="'Copperplate-Bold'" font-size="19.9509">10</text>
	<text transform="matrix(0.9794 -0.2018 0.2018 0.9794 787.7393 143.2671)" font-family="'Copperplate-Bold'" font-size="19.95">15</text>
	<text transform="matrix(0.9522 -0.3055 0.3055 0.9522 715.3613 167.1895)" font-family="'Copperplate-Bold'" font-size="19.95">20</text>
	<text transform="matrix(0.9238 -0.3828 0.3828 0.9238 642.0723 199.1436)" font-family="'Copperplate-Bold'" font-size="19.95">25</text>
	<text transform="matrix(0.8857 -0.4643 0.4643 0.8857 570.5771 234.0601)" font-family="'Copperplate-Bold'" font-size="19.95">30</text>
	<text transform="matrix(0.8402 -0.5422 0.5422 0.8402 504.8115 276.3462)" font-family="'Copperplate-Bold'" font-size="19.9492">35</text>
	<text transform="matrix(0.7935 -0.6085 0.6085 0.7935 440.2471 324.3564)" font-family="'Copperplate-Bold'" font-size="19.9491">40</text>
	<text transform="matrix(0.7289 -0.6847 0.6847 0.7289 382.2158 378.8701)" font-family="'Copperplate-Bold'" font-size="19.9511">45</text>
	<text transform="matrix(0.6421 -0.7666 0.7666 0.6421 328.415 437.7192)" font-family="'Copperplate-Bold'" font-size="19.95">50</text>
	<text transform="matrix(0.5827 -0.8127 0.8127 0.5827 279.6309 501.3477)" font-family="'Copperplate-Bold'" font-size="19.95">55</text>
	<text transform="matrix(0.4872 -0.8733 0.8733 0.4872 237.9863 567.938)" font-family="'Copperplate-Bold'" font-size="19.95">60</text>
	<text transform="matrix(0.4616 -0.8871 0.8871 0.4616 200.1504 639.0239)" font-family="'Copperplate-Bold'" font-size="19.95">65</text>
	<text transform="matrix(0.3658 -0.9307 0.9307 0.3658 169.3672 711.3462)" font-family="'Copperplate-Bold'" font-size="19.95">70</text>
	<text transform="matrix(0.2519 -0.9678 0.9678 0.2519 146.3779 786.4707)" font-family="'Copperplate-Bold'" font-size="19.9509">75</text>
	<text transform="matrix(0.1674 -0.9859 0.9859 0.1674 128.0244 865.2095)" font-family="'Copperplate-Bold'" font-size="19.95">80</text>
	<text transform="matrix(0.1726 -0.985 0.985 0.1726 115.873 942.8184)" font-family="'Copperplate-Bold'" font-size="19.95">85</text>
	<text transform="matrix(0.0061 -1 1 0.0061 114.5811 1021.3647)" font-family="'Copperplate-Bold'" font-size="19.95">90</text>
	
		<text transform="matrix(-0.1004 -0.9949 0.9949 -0.1004 117.8506 1100.5078)" font-family="'Copperplate-Bold'" font-size="19.951">95</text>
	<text transform="matrix(-0.156 -0.9878 0.9878 -0.156 128.0107 1180.2295)" font-family="'Copperplate-Bold'" font-size="19.9508">100</text>
	
		<text transform="matrix(-0.2335 -0.9724 0.9724 -0.2335 144.2441 1257.2236)" font-family="'Copperplate-Bold'" font-size="19.9508">105</text>
	<text transform="matrix(-0.3504 -0.9366 0.9366 -0.3504 168.4346 1333.7324)" font-family="'Copperplate-Bold'" font-size="19.95">110</text>
	<text transform="matrix(-0.3522 -0.9359 0.9359 -0.3522 197.4238 1407.8008)" font-family="'Copperplate-Bold'" font-size="19.95">115</text>
	<text transform="matrix(-0.5172 -0.8559 0.8559 -0.5172 236.1396 1476.9434)" font-family="'Copperplate-Bold'" font-size="19.95">120</text>
	
		<text transform="matrix(-0.5339 -0.8456 0.8456 -0.5339 277.3555 1543.8906)" font-family="'Copperplate-Bold'" font-size="19.9509">125</text>
	<text transform="matrix(-0.6096 -0.7927 0.7927 -0.6096 325.5742 1607.3291)" font-family="'Copperplate-Bold'" font-size="19.95">130</text>
	<text transform="matrix(-0.6726 -0.74 0.74 -0.6726 378.7183 1667.1309)" font-family="'Copperplate-Bold'" font-size="19.95">135</text>
	<text transform="matrix(-0.7719 -0.6357 0.6357 -0.7719 437.6104 1719.2988)" font-family="'Copperplate-Bold'" font-size="19.95">140</text>
	<text transform="matrix(-0.8027 -0.5964 0.5964 -0.8027 500.7417 1768.0059)" font-family="'Copperplate-Bold'" font-size="19.95">145</text>
	
		<text transform="matrix(-0.8543 -0.5197 0.5197 -0.8543 567.7109 1809.8643)" font-family="'Copperplate-Bold'" font-size="19.9492">150</text>
	<text transform="matrix(-0.9211 -0.3894 0.3894 -0.9211 638.647 1846.6055)" font-family="'Copperplate-Bold'" font-size="19.95">155</text>
	
		<text transform="matrix(-0.9346 -0.3558 0.3558 -0.9346 711.1523 1878.127)" font-family="'Copperplate-Bold'" font-size="19.9488">160</text>
	
		<text transform="matrix(-0.9594 -0.2822 0.2822 -0.9594 786.9551 1900.9043)" font-family="'Copperplate-Bold'" font-size="19.9508">165</text>
	<text transform="matrix(-0.9821 -0.1884 0.1884 -0.9821 864.9478 1918.959)" font-family="'Copperplate-Bold'" font-size="19.95">170</text>
	<text transform="matrix(-0.9899 -0.1416 0.1416 -0.9899 943.9673 1929.8037)" font-family="'Copperplate-Bold'" font-size="19.95">175</text>
	
		<text transform="matrix(-0.9999 -0.0107 0.0107 -0.9999 1022.8096 1931.9414)" font-family="'Copperplate-Bold'" font-size="19.9491">180</text>
	<text transform="matrix(-0.9994 0.035 -0.035 -0.9994 1101.9746 1930.3652)" font-family="'Copperplate-Bold'" font-size="19.95">185</text>
	
		<text transform="matrix(-0.9842 0.1772 -0.1772 -0.9842 1180.4707 1919.9209)" font-family="'Copperplate-Bold'" font-size="19.95">190</text>
	<text transform="matrix(-0.9717 0.2362 -0.2362 -0.9717 1259.6064 1902.709)" font-family="'Copperplate-Bold'" font-size="19.95">195</text>
	
		<text transform="matrix(-0.9532 0.3023 -0.3023 -0.9532 1334.4473 1878.8359)" font-family="'Copperplate-Bold'" font-size="19.95">200</text>
	<text transform="matrix(-0.9177 0.3972 -0.3972 -0.9177 1407.3789 1848.748)" font-family="'Copperplate-Bold'" font-size="19.95">205</text>
	
		<text transform="matrix(-0.8738 0.4862 -0.4862 -0.8738 1476.8633 1812.626)" font-family="'Copperplate-Bold'" font-size="19.9492">210</text>
	
		<text transform="matrix(-0.8327 0.5537 -0.5537 -0.8327 1543.9902 1769.1191)" font-family="'Copperplate-Bold'" font-size="19.95">215</text>
	<text transform="matrix(-0.7491 0.6625 -0.6625 -0.7491 1605.1592 1721.335)" font-family="'Copperplate-Bold'" font-size="19.95">220</text>
	
		<text transform="matrix(-0.7596 0.6503 -0.6503 -0.7596 1667.3018 1666.9805)" font-family="'Copperplate-Bold'" font-size="19.9488">225</text>
	
		<text transform="matrix(-0.6227 0.7825 -0.7825 -0.6227 1718.8389 1608.8359)" font-family="'Copperplate-Bold'" font-size="19.9506">230</text>
	
		<text transform="matrix(-0.5662 0.8242 -0.8242 -0.5662 1767.3604 1547.2031)" font-family="'Copperplate-Bold'" font-size="19.9489">235</text>
	
		<text transform="matrix(-0.4748 0.8801 -0.8801 -0.4748 1810.5957 1480.3516)" font-family="'Copperplate-Bold'" font-size="19.95">240</text>
	
		<text transform="matrix(-0.4806 0.8769 -0.8769 -0.4806 1848.8115 1410.7793)" font-family="'Copperplate-Bold'" font-size="19.9493">245</text>
	
		<text transform="matrix(-0.3387 0.9409 -0.9409 -0.3387 1877.4707 1337.5322)" font-family="'Copperplate-Bold'" font-size="19.95">250</text>
	
		<text transform="matrix(-0.2689 0.9632 -0.9632 -0.2689 1900.5723 1261.4395)" font-family="'Copperplate-Bold'" font-size="19.9506">255</text>
	
		<text transform="matrix(-0.1581 0.9874 -0.9874 -0.1581 1918.6348 1183.5283)" font-family="'Copperplate-Bold'" font-size="19.95">260</text>
	<text transform="matrix(-0.0616 0.9981 -0.9981 -0.0616 1928.9492 1106.457)" font-family="'Copperplate-Bold'" font-size="19.95">265</text>
	
		<text transform="matrix(-0.0102 0.9999 -0.9999 -0.0102 1933.0342 1025.6387)" font-family="'Copperplate-Bold'" font-size="19.949">270</text>
	<text transform="matrix(0.0659 0.9978 -0.9978 0.0659 1929.665 946.8301)" font-family="'Copperplate-Bold'" font-size="19.95">275</text>
	<text transform="matrix(0.1756 0.9845 -0.9845 0.1756 1919.0723 867.6787)" font-family="'Copperplate-Bold'" font-size="19.9508">280</text>
	<text transform="matrix(0.2314 0.9729 -0.9729 0.2314 1902.709 791.0098)" font-family="'Copperplate-Bold'" font-size="19.9508">285</text>
	<text transform="matrix(0.2973 0.9548 -0.9548 0.2973 1880.3633 715.4941)" font-family="'Copperplate-Bold'" font-size="19.95">290</text>
	<text transform="matrix(0.3986 0.9171 -0.9171 0.3986 1849.1016 641.2686)" font-family="'Copperplate-Bold'" font-size="19.95">295</text>
	<text transform="matrix(0.5502 0.8351 -0.8351 0.5502 1812.6006 571.3525)" font-family="'Copperplate-Bold'" font-size="19.9511">300</text>
	<text transform="matrix(0.5449 0.8385 -0.8385 0.5449 1770.9746 504)" font-family="'Copperplate-Bold'" font-size="19.95">305</text>
	<text transform="matrix(0.6407 0.7678 -0.7678 0.6407 1722.1016 440.3701)" font-family="'Copperplate-Bold'" font-size="19.95">310</text>
	<text transform="matrix(0.7228 0.6911 -0.6911 0.7228 1668.8379 381.7158)" font-family="'Copperplate-Bold'" font-size="19.95">315</text>
	<text transform="matrix(0.7639 0.6454 -0.6454 0.7639 1609.3359 327.9731)" font-family="'Copperplate-Bold'" font-size="19.9508">320</text>
	<text transform="matrix(0.7782 0.628 -0.628 0.7782 1547.3809 279.5371)" font-family="'Copperplate-Bold'" font-size="19.95">325</text>
	<text transform="matrix(0.8612 0.5083 -0.5083 0.8612 1480.1455 237.4727)" font-family="'Copperplate-Bold'" font-size="19.95">330</text>
	<text transform="matrix(0.9045 0.4264 -0.4264 0.9045 1410.2227 199.7729)" font-family="'Copperplate-Bold'" font-size="19.9494">335</text>
	<text transform="matrix(0.9486 0.3166 -0.3166 0.9486 1337.2109 170.4219)" font-family="'Copperplate-Bold'" font-size="19.9508">340</text>
	<text transform="matrix(0.9689 0.2474 -0.2474 0.9689 1261.0137 146.3359)" font-family="'Copperplate-Bold'" font-size="19.95">345</text>
	<text transform="matrix(0.9895 0.1443 -0.1443 0.9895 1183.3691 128.6099)" font-family="'Copperplate-Bold'" font-size="19.9493">350</text>
	<text transform="matrix(0.9936 0.1127 -0.1127 0.9936 1106.5693 117.4541)" font-family="'Copperplate-Bold'" font-size="19.95">355</text>
	<circle fill="none" stroke="#000000" stroke-width="3" cx="1024" cy="1024" r="905"/>
</g>
<g id="Layer_4">
	<line fill="none" stroke="#000000" stroke-width="3" x1="1024" y1="97.75" x2="1024" y2="1950.25"/>
	<line fill="none" stroke="#000000" stroke-width="3" x1="560.875" y1="221.844" x2="1487.125" y2="1826.156"/>
	<line fill="none" stroke="#000000" stroke-width="3" x1="221.844" y1="560.875" x2="1826.156" y2="1487.125"/>
	<line fill="none" stroke="#000000" stroke-width="3" x1="97.75" y1="1024" x2="1950.25" y2="1024"/>
	<line fill="none" stroke="#000000" stroke-width="3" x1="221.845" y1="1487.125" x2="1826.156" y2="560.875"/>
	<line fill="none" stroke="#000000" stroke-width="3" x1="560.876" y1="1826.156" x2="1487.125" y2="221.844"/>
	<circle fill="none" cx="1024" cy="1024" r="905"/>
	<circle fill="none" stroke="#000000" stroke-width="3" cx="1024" cy="1024" r="885"/>
</g>
<g id="Layer_5">
	<text transform="matrix(0.9744 -0.2249 0.2249 0.9744 771.7959 169.0303)" font-family="'Copperplate'" font-size="18">ARIES</text>
	<text transform="matrix(0.696 -0.718 0.718 0.696 370.873 419.8535)" font-family="'Copperplate'" font-size="18">TAURUS</text>
	<text transform="matrix(0.2463 -0.9692 0.9692 0.2463 155.9668 827.1357)" font-family="'Copperplate'" font-size="18">GEMINI</text>
	<text transform="matrix(-0.2469 -0.969 0.969 -0.2469 173.0684 1292.335)" font-family="'Copperplate'" font-size="17.9993">CANCER</text>
	<text transform="matrix(-0.6806 -0.7326 0.7326 -0.6806 406.5288 1666.8506)" font-family="'Copperplate'" font-size="17.9993">LEO</text>
	<text transform="matrix(-0.9692 -0.2464 0.2464 -0.9692 821.2549 1891.5117)" font-family="'Copperplate'" font-size="18.0006">VIRGO</text>
	<text transform="matrix(-0.9653 0.2613 -0.2613 -0.9653 1278.9307 1878.0977)" font-family="'Copperplate'" font-size="18.0007">LIBRA</text>
	<text transform="matrix(-0.721 0.6929 -0.6929 -0.721 1682.6514 1624.3516)" font-family="'Copperplate'" font-size="18">SCORPIO</text>
	<g>
		<g>
			<path d="M1900.975,1199.255c-0.053,0.064-0.076,0.101-0.127,0.164c-0.104-0.025-0.207-0.026-0.299,0.003
				c-0.158,0.051-0.334,0.184-0.522,0.4c-0.189,0.216-0.372,0.47-0.548,0.765s-0.338,0.61-0.48,0.946
				c-0.143,0.335-0.247,0.643-0.311,0.92c-0.047,0.207-0.09,0.477-0.135,0.811s-0.059,0.671-0.035,1.009
				c0.021,0.337,0.09,0.643,0.2,0.913c0.11,0.27,0.302,0.438,0.57,0.505c0.268,0.065,0.489,0.012,0.667-0.168
				c0.177-0.181,0.336-0.438,0.472-0.767c0.138-0.33,0.263-0.718,0.38-1.154c0.118-0.438,0.247-0.885,0.385-1.338
				c0.139-0.451,0.299-0.889,0.479-1.312c0.181-0.424,0.405-0.786,0.675-1.086c0.271-0.3,0.596-0.513,0.978-0.644
				c0.38-0.131,0.839-0.134,1.377-0.002c0.362,0.09,0.702,0.265,1.014,0.527c0.312,0.263,0.56,0.612,0.747,1.046
				s0.307,0.949,0.35,1.552c0.045,0.604-0.019,1.284-0.188,2.041c-0.146,0.646-0.323,1.194-0.523,1.646
				c-0.201,0.452-0.396,0.837-0.578,1.157c-0.186,0.319-0.352,0.588-0.5,0.802c-0.147,0.213-0.238,0.396-0.274,0.556
				c-0.039,0.171-0.032,0.3,0.021,0.391c-0.076,0.073-0.113,0.112-0.189,0.187c-0.76-0.727-1.139-1.093-1.899-1.815
				c0.046-0.065,0.068-0.099,0.113-0.163c0.169,0.018,0.313,0.001,0.437-0.046c0.162-0.062,0.336-0.185,0.521-0.375
				c0.186-0.191,0.365-0.429,0.54-0.705c0.174-0.277,0.335-0.583,0.479-0.919c0.145-0.337,0.256-0.684,0.336-1.035
				c0.062-0.27,0.102-0.549,0.125-0.846c0.022-0.297,0.021-0.571-0.01-0.824c-0.029-0.252-0.099-0.469-0.199-0.653
				c-0.101-0.187-0.248-0.304-0.445-0.354c-0.281-0.069-0.514-0.015-0.701,0.164s-0.357,0.433-0.505,0.762s-0.284,0.712-0.407,1.149
				c-0.124,0.438-0.254,0.882-0.395,1.334c-0.14,0.451-0.306,0.891-0.493,1.312c-0.188,0.42-0.417,0.782-0.688,1.078
				c-0.271,0.297-0.599,0.509-0.975,0.638s-0.824,0.125-1.35-0.007c-0.607-0.152-1.066-0.441-1.377-0.87
				c-0.309-0.429-0.516-0.919-0.623-1.469c-0.108-0.551-0.138-1.121-0.082-1.713c0.055-0.594,0.139-1.14,0.25-1.633
				c0.154-0.688,0.32-1.258,0.5-1.703c0.181-0.446,0.359-0.812,0.541-1.095c0.18-0.28,0.334-0.505,0.461-0.665
				c0.129-0.16,0.203-0.306,0.232-0.438c0.021-0.084-0.008-0.173-0.085-0.269c0.079-0.089,0.116-0.135,0.195-0.224
				C1899.833,1198.346,1900.213,1198.646,1900.975,1199.255z"/>
			<path d="M1896.08,1208.83c-0.014,0.162,0.035,0.307,0.143,0.43c0.107,0.122,0.229,0.246,0.373,0.371
				c2.41,2.026,3.613,3.047,6.014,5.1c0.131,0.125,0.252,0.237,0.364,0.338c0.112,0.1,0.216,0.165,0.31,0.188
				c0.115,0.03,0.207,0.006,0.273-0.065c0.067-0.072,0.123-0.153,0.17-0.244c0.127,0.031,0.188,0.05,0.314,0.082
				c-0.293,1.229-0.439,1.844-0.736,3.07c-0.125-0.032-0.188-0.052-0.312-0.085c-0.003-0.091-0.015-0.184-0.035-0.278
				c-0.021-0.097-0.095-0.16-0.224-0.194c-0.093-0.024-0.19-0.025-0.293-0.008c-0.104,0.018-0.242,0.047-0.414,0.092
				c-3.207,0.759-4.811,1.133-8.019,1.881c-0.143,0.025-0.257,0.085-0.339,0.171c-0.084,0.086-0.172,0.188-0.262,0.305
				c-0.126-0.033-0.189-0.05-0.315-0.082c0.312-1.265,0.468-1.896,0.773-3.162c0.126,0.032,0.189,0.049,0.315,0.082
				c-0.012,0.048-0.012,0.111,0.008,0.192c0.018,0.081,0.061,0.129,0.131,0.147c0.113,0.029,0.279,0.023,0.488-0.022
				c0.582-0.139,0.875-0.212,1.459-0.352c0.426-1.759,0.635-2.64,1.053-4.402c-0.436-0.388-0.65-0.582-1.086-0.969
				c-0.217-0.183-0.377-0.288-0.481-0.314c-0.129-0.032-0.221,0.069-0.274,0.298c-0.125-0.032-0.188-0.052-0.314-0.084
				c0.242-1.023,0.363-1.536,0.604-2.562C1895.893,1208.782,1895.954,1208.798,1896.08,1208.83z M1897.717,1216.475
				c1.446-0.268,2.168-0.402,3.614-0.672c-1.137-1.021-1.704-1.531-2.843-2.547
				C1898.184,1214.544,1898.027,1215.188,1897.717,1216.475z"/>
			<path d="M1896.75,1232.241c0.079-0.132,0.119-0.198,0.198-0.33c0.062,0.044,0.128,0.075,0.196,0.095
				c0.176,0.049,0.36-0.02,0.558-0.202c0.194-0.182,0.386-0.431,0.571-0.745c0.187-0.313,0.356-0.665,0.507-1.055
				c0.149-0.389,0.269-0.764,0.36-1.124c0.111-0.444,0.161-0.904,0.151-1.376c-0.011-0.473-0.099-0.915-0.269-1.326
				c-0.168-0.412-0.43-0.777-0.783-1.099c-0.354-0.319-0.823-0.562-1.404-0.718c-0.568-0.153-1.087-0.181-1.552-0.082
				c-0.464,0.1-0.865,0.287-1.206,0.56c-0.342,0.271-0.631,0.61-0.862,1.014s-0.403,0.825-0.517,1.268
				c-0.172,0.68-0.274,1.309-0.303,1.88c-0.029,0.57-0.031,1.063-0.002,1.48c0.599,0.164,0.898,0.247,1.498,0.412
				c0.235-0.917,0.354-1.374,0.59-2.292c0.043-0.167,0.037-0.302-0.012-0.404c-0.049-0.104-0.185-0.199-0.41-0.288
				c0.033-0.129,0.049-0.192,0.082-0.321c0.893,0.241,1.338,0.364,2.229,0.608c-0.033,0.129-0.049,0.195-0.082,0.324
				c-0.203-0.03-0.343-0.01-0.416,0.061c-0.073,0.069-0.132,0.187-0.177,0.354c-0.459,1.795-0.689,2.691-1.157,4.481
				c-0.125-0.034-0.187-0.053-0.312-0.087c0.027-0.25,0.026-0.408-0.004-0.48c-0.031-0.072-0.123-0.131-0.272-0.172
				c-0.786-0.219-1.181-0.326-1.966-0.543c-0.116-0.032-0.2-0.021-0.254,0.041c-0.054,0.062-0.117,0.134-0.188,0.217
				c-0.11-0.031-0.167-0.047-0.278-0.078c-0.164-0.466-0.273-0.94-0.336-1.422c-0.062-0.48-0.083-0.957-0.066-1.431
				c0.016-0.475,0.072-0.938,0.162-1.392c0.092-0.453,0.188-0.896,0.297-1.323c0.214-0.834,0.508-1.569,0.885-2.201
				c0.376-0.632,0.827-1.138,1.351-1.521s1.104-0.632,1.747-0.748s1.329-0.079,2.062,0.117c0.732,0.196,1.354,0.507,1.861,0.932
				c0.508,0.427,0.903,0.939,1.188,1.543c0.284,0.604,0.443,1.282,0.484,2.033c0.039,0.751-0.047,1.549-0.262,2.392
				c-0.135,0.529-0.299,1.024-0.492,1.485c-0.191,0.46-0.381,0.866-0.562,1.214c-0.184,0.348-0.345,0.633-0.482,0.857
				c-0.14,0.224-0.217,0.37-0.231,0.43c-0.028,0.107-0.028,0.199,0.002,0.271c0.028,0.072,0.06,0.142,0.079,0.212
				c-0.071,0.072-0.109,0.108-0.182,0.182C1897.961,1233.261,1897.559,1232.92,1896.75,1232.241z"/>
			<path d="M1889.611,1234.855c-0.082,0.309-0.017,0.489,0.19,0.549c3.155,0.881,4.732,1.328,7.886,2.225
				c0.207,0.061,0.352-0.062,0.434-0.374c0.125,0.035,0.189,0.05,0.314,0.085c-0.315,1.192-0.475,1.791-0.793,2.98
				c-0.125-0.035-0.188-0.054-0.312-0.09c0.083-0.311,0.021-0.499-0.188-0.559c-3.149-0.903-4.727-1.348-7.88-2.235
				c-0.208-0.059-0.354,0.064-0.436,0.372c-0.125-0.035-0.189-0.054-0.314-0.089c0.316-1.18,0.474-1.768,0.785-2.949
				C1889.424,1234.807,1889.486,1234.82,1889.611,1234.855z"/>
			<path d="M1886.98,1245.807c-0.207-0.061-0.347,0.041-0.418,0.302c-0.125-0.036-0.188-0.055-0.312-0.091
				c0.303-1.089,0.452-1.636,0.752-2.727c0.125,0.036,0.189,0.053,0.314,0.089c-0.023,0.082-0.019,0.165,0.016,0.245
				c0.033,0.079,0.105,0.135,0.209,0.164c2.759,0.795,4.135,1.197,6.892,2.005c0.324-1.177,0.487-1.771,0.808-2.948
				c0.028-0.106,0.028-0.219-0.002-0.336c-0.03-0.118-0.125-0.202-0.287-0.249c0.033-0.128,0.054-0.19,0.088-0.319
				c0.972,0.28,1.456,0.421,2.427,0.701c-0.035,0.129-0.052,0.192-0.087,0.321c-0.162-0.047-0.284-0.024-0.369,0.061
				c-0.085,0.084-0.146,0.178-0.175,0.284c-0.864,3.178-1.304,4.763-2.192,7.926c-0.029,0.106-0.031,0.22-0.002,0.338
				c0.028,0.116,0.126,0.202,0.287,0.251c-0.036,0.128-0.056,0.19-0.092,0.319c-0.969-0.291-1.45-0.434-2.419-0.723
				c0.036-0.128,0.054-0.191,0.09-0.32c0.161,0.049,0.285,0.03,0.371-0.053c0.085-0.082,0.144-0.182,0.174-0.288
				c0.33-1.174,0.496-1.759,0.822-2.935C1891.117,1247.012,1889.737,1246.607,1886.98,1245.807z"/>
			<path d="M1883.921,1256.582c-0.207-0.062-0.349,0.036-0.424,0.295c-0.125-0.038-0.187-0.056-0.312-0.094
				c0.315-1.082,0.475-1.623,0.787-2.707c0.123,0.037,0.185,0.058,0.309,0.095c-0.023,0.082-0.018,0.162,0.016,0.242
				c0.033,0.079,0.102,0.135,0.203,0.165c2.75,0.823,4.124,1.238,6.872,2.074c0.337-1.169,0.506-1.754,0.84-2.927
				c0.03-0.105,0.03-0.219,0.001-0.336c-0.029-0.118-0.124-0.201-0.285-0.25c0.036-0.127,0.055-0.19,0.091-0.317
				c0.968,0.29,1.453,0.436,2.421,0.727c-0.035,0.128-0.055,0.192-0.091,0.32c-0.161-0.049-0.284-0.03-0.37,0.053
				s-0.146,0.177-0.178,0.282c-0.898,3.157-1.355,4.73-2.281,7.873c-0.031,0.106-0.035,0.221-0.008,0.339s0.123,0.202,0.284,0.252
				c-0.037,0.127-0.056,0.191-0.093,0.318c-0.965-0.302-1.446-0.451-2.411-0.75c0.038-0.127,0.055-0.19,0.093-0.317
				c0.161,0.05,0.284,0.034,0.371-0.048c0.087-0.083,0.146-0.178,0.178-0.283c0.344-1.166,0.516-1.752,0.855-2.92
				C1888.043,1257.827,1886.669,1257.411,1883.921,1256.582z"/>
			<path d="M1882.221,1261.229c-0.021,0.159,0.016,0.3,0.115,0.426c0.1,0.127,0.218,0.255,0.354,0.387
				c2.295,2.122,3.439,3.191,5.723,5.339c0.125,0.128,0.24,0.246,0.348,0.351c0.107,0.105,0.207,0.172,0.299,0.2
				c0.114,0.036,0.207,0.021,0.277-0.047c0.071-0.067,0.13-0.146,0.182-0.231c0.123,0.038,0.187,0.059,0.31,0.098
				c-0.359,1.191-0.539,1.787-0.902,2.977c-0.123-0.039-0.187-0.062-0.309-0.101c0.001-0.09-0.003-0.179-0.02-0.272
				c-0.016-0.095-0.087-0.164-0.212-0.204c-0.092-0.029-0.191-0.037-0.295-0.025c-0.102,0.012-0.242,0.033-0.416,0.067
				c-3.243,0.569-4.865,0.854-8.109,1.415c-0.145,0.018-0.262,0.064-0.35,0.146s-0.177,0.174-0.273,0.284
				c-0.125-0.039-0.188-0.057-0.312-0.096c0.38-1.226,0.567-1.84,0.944-3.067c0.123,0.039,0.188,0.062,0.312,0.102
				c-0.015,0.047-0.017,0.107-0.004,0.188c0.013,0.08,0.056,0.134,0.125,0.155c0.114,0.036,0.276,0.036,0.487,0.001
				c0.59-0.104,0.886-0.157,1.476-0.263c0.522-1.704,0.778-2.562,1.292-4.271c-0.413-0.404-0.617-0.605-1.031-1.009
				c-0.205-0.192-0.361-0.304-0.464-0.336c-0.126-0.039-0.222,0.055-0.288,0.275c-0.124-0.038-0.188-0.059-0.312-0.097
				c0.298-0.993,0.446-1.488,0.741-2.483C1882.033,1261.172,1882.096,1261.189,1882.221,1261.229z M1883.436,1268.824
				c1.459-0.185,2.188-0.274,3.646-0.46c-1.079-1.065-1.622-1.599-2.704-2.657
				C1884.002,1266.955,1883.814,1267.578,1883.436,1268.824z"/>
			<path d="M1885.174,1282.695c-0.179,0.559-0.388,1.049-0.631,1.471c-0.242,0.421-0.523,0.758-0.84,1.012
				c-0.314,0.254-0.672,0.414-1.064,0.475c-0.392,0.062-0.834,0.009-1.322-0.155c-0.752-0.252-1.254-0.668-1.506-1.252
				s-0.324-1.283-0.215-2.093c-1.599,0.493-2.398,0.738-3.998,1.229c-0.14,0.044-0.238,0.117-0.297,0.219s-0.102,0.197-0.132,0.29
				c-0.124-0.041-0.187-0.059-0.31-0.1c0.42-1.291,0.631-1.938,1.047-3.231c0.123,0.04,0.186,0.061,0.308,0.101
				c-0.032,0.104-0.045,0.198-0.034,0.284c0.01,0.086,0.043,0.143,0.101,0.16c0.057,0.021,0.131,0.015,0.221-0.008
				c0.09-0.021,0.211-0.056,0.366-0.106c1.312-0.411,1.968-0.618,3.281-1.032c0.316-0.994,0.478-1.492,0.791-2.488
				c-1.221-0.396-1.832-0.591-3.053-0.984c-0.103-0.034-0.191-0.022-0.266,0.035c-0.075,0.06-0.146,0.188-0.209,0.384
				c-0.124-0.04-0.182-0.062-0.307-0.104c0.381-1.2,0.567-1.799,0.943-3.001c0.124,0.04,0.184,0.061,0.307,0.1
				c-0.104,0.338-0.053,0.536,0.152,0.604c3.116,1,4.676,1.504,7.788,2.521c0.206,0.066,0.358-0.07,0.464-0.409
				c0.124,0.04,0.188,0.062,0.311,0.103C1886.32,1279.111,1885.939,1280.307,1885.174,1282.695z M1881.318,1280.916
				c-0.135,0.418-0.217,0.775-0.242,1.074c-0.027,0.299-0.008,0.548,0.053,0.748c0.062,0.199,0.155,0.359,0.287,0.48
				s0.29,0.21,0.473,0.271c0.183,0.061,0.363,0.085,0.541,0.065c0.176-0.018,0.347-0.092,0.514-0.217s0.324-0.312,0.478-0.572
				c0.151-0.258,0.296-0.597,0.431-1.016c0.387-1.207,0.578-1.812,0.961-3.021c-1.016-0.332-1.52-0.498-2.533-0.828
				C1881.896,1279.109,1881.703,1279.712,1881.318,1280.916z"/>
			<path d="M1874.334,1286.443c-0.098,0.299-0.047,0.482,0.158,0.552c3.103,1.038,4.652,1.56,7.752,2.614
				c0.205,0.068,0.357-0.045,0.456-0.347c0.123,0.042,0.185,0.062,0.308,0.104c-0.38,1.154-0.57,1.729-0.953,2.882
				c-0.123-0.042-0.184-0.062-0.307-0.104c0.1-0.302,0.047-0.485-0.158-0.557c-3.097-1.061-4.646-1.586-7.746-2.631
				c-0.205-0.069-0.357,0.044-0.456,0.343c-0.123-0.042-0.183-0.061-0.306-0.103c0.38-1.143,0.568-1.713,0.943-2.857
				C1874.148,1286.381,1874.211,1286.402,1874.334,1286.443z"/>
			<path d="M1879.918,1297.581c0.086-0.253,0.025-0.417-0.178-0.488c-2.042-0.712-3.064-1.064-5.107-1.771
				c-0.715-0.246-1.284-0.185-1.709,0.188c-0.424,0.372-0.787,1.003-1.093,1.895c-0.306,0.891-0.407,1.613-0.302,2.168
				c0.105,0.556,0.519,0.957,1.231,1.208c2.039,0.716,3.061,1.073,5.099,1.798c0.203,0.072,0.365-0.062,0.484-0.406
				c0.122,0.043,0.184,0.064,0.307,0.107c-0.383,1.104-0.574,1.652-0.959,2.754c-0.122-0.044-0.187-0.065-0.309-0.109
				c0.096-0.273,0.044-0.449-0.16-0.521c-2.003-0.715-3.003-1.069-5.007-1.777c-0.668-0.235-1.186-0.528-1.554-0.876
				c-0.368-0.347-0.618-0.758-0.744-1.236c-0.126-0.478-0.134-1.02-0.025-1.625c0.106-0.605,0.291-1.286,0.549-2.038
				c0.259-0.753,0.527-1.404,0.813-1.949c0.287-0.546,0.629-0.968,1.021-1.269c0.393-0.3,0.841-0.473,1.343-0.518
				c0.504-0.045,1.092,0.046,1.762,0.276c2.011,0.688,3.017,1.036,5.025,1.731c0.204,0.07,0.362-0.055,0.471-0.378
				c0.122,0.042,0.187,0.062,0.308,0.104c-0.382,1.137-0.576,1.705-0.962,2.839
				C1880.102,1297.646,1880.04,1297.624,1879.918,1297.581z"/>
			<path d="M1870.419,1306.118c-0.06,0.056-0.09,0.084-0.147,0.14c-0.103-0.036-0.198-0.046-0.295-0.027
				c-0.162,0.029-0.354,0.139-0.564,0.326c-0.212,0.187-0.421,0.411-0.63,0.676s-0.402,0.548-0.581,0.854
				c-0.18,0.308-0.317,0.591-0.41,0.852c-0.068,0.192-0.146,0.447-0.229,0.765c-0.08,0.316-0.129,0.634-0.146,0.961
				s0.017,0.626,0.096,0.898c0.081,0.271,0.25,0.457,0.511,0.551c0.26,0.095,0.488,0.063,0.686-0.088
				c0.196-0.153,0.376-0.382,0.549-0.685c0.173-0.304,0.346-0.655,0.512-1.062c0.164-0.407,0.34-0.824,0.527-1.244
				s0.398-0.824,0.625-1.21c0.227-0.387,0.488-0.708,0.79-0.966c0.301-0.258,0.649-0.428,1.042-0.511
				c0.391-0.083,0.848-0.033,1.368,0.152c0.351,0.126,0.665,0.33,0.944,0.618c0.281,0.288,0.492,0.649,0.631,1.087
				s0.195,0.949,0.173,1.533c-0.023,0.586-0.16,1.23-0.415,1.939c-0.217,0.604-0.45,1.113-0.7,1.524
				c-0.251,0.412-0.485,0.761-0.704,1.048s-0.416,0.526-0.586,0.715c-0.171,0.188-0.283,0.355-0.337,0.504
				c-0.058,0.157-0.063,0.284-0.021,0.379c-0.084,0.062-0.127,0.094-0.212,0.154c-0.673-0.782-1.009-1.176-1.684-1.956
				c0.052-0.059,0.078-0.087,0.13-0.146c0.165,0.036,0.312,0.035,0.438,0.004c0.168-0.042,0.355-0.14,0.561-0.302
				c0.205-0.163,0.412-0.369,0.615-0.616c0.205-0.247,0.396-0.521,0.576-0.83c0.182-0.309,0.332-0.628,0.451-0.958
				c0.09-0.252,0.164-0.52,0.22-0.802c0.058-0.282,0.083-0.545,0.081-0.791c-0.002-0.245-0.043-0.462-0.122-0.651
				s-0.215-0.318-0.406-0.389c-0.271-0.099-0.513-0.071-0.72,0.079c-0.206,0.149-0.398,0.378-0.581,0.679
				c-0.185,0.301-0.362,0.649-0.533,1.057c-0.172,0.407-0.35,0.821-0.538,1.242c-0.188,0.419-0.402,0.822-0.637,1.205
				s-0.506,0.702-0.809,0.956c-0.305,0.255-0.648,0.421-1.036,0.503s-0.837,0.032-1.345-0.153c-0.586-0.215-1.006-0.545-1.266-0.991
				c-0.259-0.446-0.412-0.941-0.459-1.481c-0.048-0.541-0.012-1.092,0.108-1.654c0.12-0.564,0.265-1.076,0.43-1.539
				c0.231-0.646,0.462-1.174,0.69-1.582c0.229-0.41,0.449-0.739,0.66-0.99s0.385-0.449,0.528-0.589
				c0.146-0.14,0.24-0.271,0.285-0.396c0.026-0.079,0.007-0.172-0.06-0.271c0.088-0.076,0.134-0.113,0.222-0.189
				C1869.386,1305.115,1869.73,1305.449,1870.419,1306.118z"/>
		</g>
	</g>
	<g>
		<g>
			<path d="M1876.912,759.486c-0.01-0.035-0.018-0.069-0.02-0.1c-0.002-0.029-0.012-0.064-0.021-0.1
				c-0.021-0.07-0.135-0.213-0.35-0.432c-0.215-0.22-0.469-0.502-0.76-0.849c-0.292-0.346-0.576-0.753-0.854-1.221
				c-0.278-0.468-0.501-0.979-0.667-1.531c-0.22-0.725-0.339-1.449-0.357-2.17s0.088-1.399,0.313-2.028
				c0.228-0.629,0.582-1.18,1.062-1.656s1.105-0.835,1.874-1.074c0.757-0.236,1.468-0.294,2.14-0.176
				c0.672,0.119,1.281,0.376,1.83,0.769c0.547,0.394,1.023,0.897,1.424,1.509c0.398,0.613,0.709,1.286,0.931,2.019
				c0.179,0.593,0.294,1.144,0.347,1.653c0.053,0.512,0.082,0.963,0.086,1.355c0.004,0.392-0.01,0.708-0.039,0.943
				c-0.031,0.238-0.039,0.382-0.024,0.427c0.018,0.058,0.062,0.099,0.131,0.122s0.124,0.042,0.165,0.055
				c-0.053,0.13-0.078,0.195-0.13,0.325c-0.996-0.293-1.492-0.439-2.488-0.73c0.026-0.084,0.043-0.127,0.069-0.211
				c0.035-0.011,0.067-0.022,0.102-0.04c0.032-0.016,0.068-0.038,0.109-0.061c0.115-0.063,0.217-0.219,0.285-0.467
				c0.07-0.25,0.11-0.543,0.121-0.883c0.012-0.34,0.004-0.69-0.031-1.055c-0.032-0.364-0.097-0.691-0.184-0.98
				c-0.146-0.487-0.355-0.933-0.63-1.336c-0.274-0.404-0.59-0.73-0.954-0.979c-0.365-0.249-0.77-0.412-1.214-0.489
				c-0.444-0.078-0.915-0.04-1.405,0.113c-0.494,0.153-0.901,0.388-1.226,0.702c-0.325,0.313-0.571,0.677-0.733,1.084
				c-0.164,0.409-0.248,0.854-0.252,1.34s0.07,0.97,0.215,1.453c0.111,0.369,0.271,0.742,0.478,1.12
				c0.207,0.376,0.426,0.714,0.658,1.011c0.23,0.294,0.466,0.529,0.7,0.705c0.232,0.176,0.426,0.241,0.574,0.197
				c0.081-0.025,0.143-0.069,0.188-0.132c0.084,0.081,0.126,0.122,0.21,0.201c-0.597,0.678-0.897,1.015-1.494,1.689
				C1877.02,759.543,1876.982,759.525,1876.912,759.486z"/>
			<path d="M1876.501,761.527c0.065,0.143,0.175,0.239,0.326,0.29c0.151,0.049,0.321,0.091,0.508,0.124
				c3.062,0.493,4.593,0.743,7.653,1.249c0.174,0.038,0.335,0.069,0.479,0.098c0.146,0.028,0.263,0.027,0.354,0
				c0.115-0.034,0.184-0.098,0.207-0.193c0.022-0.094,0.031-0.192,0.029-0.293c0.123-0.037,0.187-0.054,0.311-0.091
				c0.341,1.186,0.512,1.778,0.85,2.965c-0.125,0.036-0.188,0.056-0.312,0.091c-0.047-0.073-0.102-0.147-0.163-0.218
				c-0.063-0.07-0.162-0.086-0.287-0.049c-0.092,0.027-0.178,0.074-0.258,0.141c-0.08,0.067-0.188,0.165-0.313,0.29
				c-2.4,2.279-3.604,3.411-6.021,5.659c-0.111,0.094-0.185,0.199-0.215,0.313c-0.03,0.113-0.058,0.245-0.079,0.39
				c-0.125,0.035-0.188,0.052-0.312,0.087c-0.341-1.228-0.513-1.84-0.857-3.065c0.125-0.034,0.188-0.054,0.313-0.089
				c0.013,0.046,0.046,0.101,0.099,0.159c0.055,0.06,0.117,0.079,0.188,0.061c0.115-0.033,0.249-0.124,0.408-0.27
				c0.438-0.411,0.654-0.617,1.093-1.029c-0.481-1.702-0.723-2.552-1.213-4.25c-0.563-0.107-0.843-0.16-1.406-0.267
				c-0.274-0.046-0.466-0.054-0.569-0.022c-0.125,0.036-0.157,0.166-0.094,0.386c-0.125,0.036-0.188,0.055-0.313,0.091
				c-0.285-0.985-0.427-1.48-0.714-2.464C1876.314,761.582,1876.376,761.564,1876.501,761.527z M1881.605,767.15
				c1.121-0.958,1.683-1.438,2.801-2.402c-1.475-0.283-2.215-0.424-3.689-0.704C1881.074,765.286,1881.252,765.907,1881.605,767.15z
				"/>
			<path d="M1879.756,774.177c0.125-0.035,0.188-0.052,0.312-0.087c0.117,0.432,0.281,0.617,0.49,0.56
				c3.149-0.876,4.723-1.318,7.87-2.209c0.207-0.06,0.252-0.307,0.134-0.741c0.125-0.035,0.188-0.053,0.312-0.088
				c0.686,2.482,1.021,3.728,1.688,6.221c0.305,1.133,0.334,2.08,0.095,2.842s-0.854,1.276-1.839,1.542
				c-0.984,0.268-1.769,0.133-2.352-0.401c-0.583-0.535-1.021-1.365-1.322-2.492c-0.379-1.415-0.57-2.122-0.955-3.534
				c-1.234,0.343-1.852,0.515-3.088,0.856c-0.207,0.057-0.265,0.271-0.162,0.646c-0.125,0.034-0.186,0.052-0.312,0.086
				C1880.283,776.095,1880.107,775.455,1879.756,774.177z M1886.803,779.095c0.104,0.389,0.264,0.698,0.488,0.935
				c0.225,0.234,0.555,0.296,0.996,0.175c0.439-0.12,0.701-0.34,0.777-0.659c0.078-0.318,0.062-0.672-0.041-1.061
				c-0.401-1.506-0.604-2.258-1.014-3.761c-0.888,0.249-1.331,0.373-2.22,0.621C1886.199,776.843,1886.4,777.593,1886.803,779.095z"
				/>
			<path d="M1893.614,789.574c0.144,0.569,0.222,1.1,0.239,1.59c0.018,0.489-0.039,0.927-0.172,1.316
				c-0.134,0.388-0.349,0.716-0.647,0.982c-0.3,0.266-0.698,0.464-1.198,0.593c-0.768,0.197-1.414,0.114-1.936-0.243
				c-0.521-0.355-0.948-0.906-1.284-1.651c-1.091,1.286-1.636,1.927-2.729,3.204c-0.096,0.111-0.143,0.227-0.138,0.346
				c0.004,0.117,0.019,0.224,0.042,0.318c-0.126,0.031-0.189,0.048-0.314,0.08c-0.326-1.323-0.489-1.985-0.82-3.307
				c0.126-0.031,0.188-0.048,0.312-0.08c0.026,0.105,0.067,0.191,0.122,0.261c0.056,0.065,0.11,0.094,0.167,0.078
				c0.059-0.015,0.119-0.056,0.184-0.122c0.062-0.066,0.147-0.163,0.253-0.291c0.895-1.058,1.34-1.588,2.229-2.649
				c-0.257-1.013-0.385-1.519-0.645-2.53c-1.24,0.327-1.862,0.49-3.104,0.815c-0.104,0.026-0.172,0.085-0.203,0.176
				c-0.033,0.09-0.024,0.235,0.026,0.436c-0.126,0.033-0.188,0.05-0.315,0.082c-0.312-1.219-0.468-1.829-0.783-3.045
				c0.125-0.032,0.188-0.05,0.313-0.083c0.088,0.34,0.235,0.483,0.444,0.429c3.162-0.837,4.742-1.26,7.902-2.109
				c0.211-0.056,0.271-0.254,0.182-0.598c0.125-0.034,0.187-0.052,0.312-0.084C1892.688,785.917,1893,787.135,1893.614,789.574z
				 M1889.418,790.178c0.107,0.426,0.229,0.773,0.362,1.04c0.135,0.269,0.28,0.47,0.438,0.605c0.157,0.136,0.325,0.219,0.5,0.249
				c0.174,0.029,0.354,0.021,0.541-0.026c0.188-0.048,0.35-0.128,0.487-0.24c0.14-0.111,0.248-0.267,0.322-0.463
				c0.075-0.197,0.11-0.444,0.102-0.747c-0.008-0.302-0.065-0.665-0.174-1.092c-0.312-1.23-0.468-1.846-0.782-3.075
				c-1.031,0.274-1.547,0.412-2.578,0.686C1888.952,788.338,1889.107,788.95,1889.418,790.178z"/>
			<path d="M1886.432,798.65c0.074,0.307,0.219,0.435,0.428,0.382c3.175-0.791,4.759-1.19,7.931-1.995
				c0.21-0.053,0.278-0.234,0.203-0.544c0.126-0.032,0.188-0.048,0.313-0.08c0.289,1.188,0.434,1.783,0.717,2.973
				c-0.125,0.032-0.188,0.047-0.313,0.079c-0.075-0.311-0.217-0.438-0.428-0.387c-3.174,0.798-4.763,1.193-7.938,1.977
				c-0.209,0.054-0.279,0.232-0.205,0.539c-0.125,0.031-0.188,0.047-0.313,0.078c-0.281-1.179-0.423-1.767-0.709-2.943
				C1886.242,798.697,1886.305,798.682,1886.432,798.65z"/>
			<path d="M1891.066,814.29c-0.01-0.036-0.015-0.071-0.015-0.103c0-0.03-0.005-0.064-0.013-0.101
				c-0.016-0.07-0.124-0.225-0.325-0.461c-0.2-0.236-0.436-0.539-0.702-0.908c-0.269-0.371-0.523-0.803-0.771-1.296
				c-0.248-0.494-0.438-1.023-0.568-1.594c-0.171-0.747-0.242-1.489-0.216-2.224c0.028-0.732,0.179-1.411,0.445-2.033
				c0.268-0.623,0.657-1.16,1.169-1.61c0.511-0.452,1.156-0.773,1.938-0.965c0.771-0.189,1.486-0.201,2.148-0.036
				s1.254,0.465,1.775,0.899c0.521,0.435,0.959,0.975,1.317,1.621c0.358,0.647,0.628,1.351,0.801,2.105
				c0.14,0.612,0.218,1.179,0.237,1.699s0.02,0.981-0.003,1.38c-0.022,0.397-0.054,0.714-0.099,0.952
				c-0.047,0.238-0.062,0.383-0.052,0.43c0.015,0.06,0.052,0.105,0.12,0.134c0.067,0.028,0.122,0.049,0.163,0.064
				c-0.062,0.128-0.09,0.19-0.149,0.318c-0.975-0.361-1.463-0.541-2.438-0.9c0.033-0.084,0.049-0.126,0.082-0.209
				c0.035-0.008,0.068-0.02,0.104-0.034c0.034-0.014,0.073-0.035,0.117-0.056c0.118-0.058,0.227-0.206,0.312-0.453
				c0.086-0.248,0.147-0.545,0.182-0.888c0.034-0.342,0.042-0.697,0.031-1.068c-0.012-0.371-0.047-0.706-0.115-1.005
				c-0.115-0.503-0.3-0.971-0.546-1.396s-0.54-0.778-0.888-1.053c-0.349-0.276-0.74-0.466-1.18-0.574
				c-0.438-0.108-0.908-0.1-1.41,0.022c-0.502,0.121-0.924,0.331-1.269,0.628c-0.344,0.298-0.61,0.647-0.801,1.051
				c-0.188,0.403-0.304,0.852-0.338,1.342c-0.035,0.491,0.004,0.987,0.118,1.486c0.087,0.381,0.222,0.771,0.404,1.167
				c0.183,0.396,0.379,0.75,0.59,1.065c0.213,0.314,0.434,0.566,0.654,0.761c0.221,0.193,0.409,0.271,0.562,0.235
				c0.081-0.019,0.144-0.058,0.192-0.119c0.078,0.087,0.118,0.131,0.197,0.219c-0.639,0.646-0.959,0.97-1.599,1.613
				C1891.168,814.355,1891.136,814.334,1891.066,814.29z"/>
			<path d="M1900.984,820.904c0.141,0.664,0.188,1.363,0.139,2.097c-0.05,0.732-0.211,1.426-0.48,2.081
				c-0.271,0.654-0.662,1.227-1.182,1.719c-0.52,0.493-1.186,0.828-1.996,1.004c-0.811,0.177-1.55,0.146-2.217-0.087
				c-0.667-0.232-1.251-0.589-1.755-1.068s-0.915-1.042-1.233-1.687c-0.318-0.646-0.548-1.296-0.687-1.954
				c-0.14-0.659-0.194-1.347-0.165-2.068s0.18-1.405,0.445-2.056c0.264-0.649,0.649-1.219,1.163-1.714
				c0.515-0.493,1.175-0.835,1.982-1.021c0.807-0.187,1.547-0.168,2.217,0.056s1.263,0.572,1.771,1.05
				c0.51,0.478,0.936,1.04,1.275,1.684C1900.604,819.583,1900.844,820.239,1900.984,820.904z M1899.366,821.269
				c-0.097-0.459-0.265-0.899-0.505-1.325c-0.237-0.427-0.526-0.793-0.87-1.101c-0.343-0.307-0.732-0.53-1.168-0.67
				c-0.437-0.139-0.901-0.153-1.395-0.042c-0.489,0.112-0.905,0.326-1.243,0.643c-0.338,0.314-0.601,0.686-0.785,1.109
				s-0.297,0.88-0.34,1.367c-0.045,0.486-0.019,0.959,0.078,1.413c0.098,0.455,0.262,0.896,0.497,1.321
				c0.235,0.424,0.526,0.791,0.866,1.1s0.73,0.536,1.163,0.679c0.434,0.145,0.899,0.161,1.392,0.053
				c0.493-0.108,0.908-0.318,1.248-0.633s0.605-0.687,0.794-1.112c0.188-0.428,0.306-0.887,0.349-1.376
				C1899.492,822.203,1899.463,821.729,1899.366,821.269z"/>
			<path d="M1903.863,835.688c0.111,0.584,0.167,1.125,0.158,1.621c-0.011,0.496-0.09,0.938-0.244,1.324
				c-0.151,0.385-0.387,0.706-0.7,0.96c-0.313,0.253-0.722,0.432-1.229,0.534c-0.776,0.158-1.419,0.042-1.921-0.348
				s-0.898-0.969-1.193-1.739c-1.157,1.242-1.733,1.861-2.896,3.096c-0.103,0.108-0.157,0.224-0.159,0.343
				c-0.003,0.118,0.008,0.228,0.026,0.323c-0.128,0.026-0.192,0.039-0.32,0.064c-0.254-1.356-0.383-2.034-0.642-3.388
				c0.128-0.026,0.191-0.039,0.318-0.065c0.021,0.108,0.058,0.199,0.107,0.271c0.05,0.072,0.104,0.103,0.162,0.091
				c0.061-0.014,0.122-0.051,0.189-0.113c0.066-0.065,0.155-0.159,0.268-0.282c0.949-1.021,1.424-1.534,2.369-2.562
				c-0.2-1.038-0.303-1.558-0.508-2.595c-1.257,0.266-1.886,0.396-3.142,0.659c-0.104,0.022-0.178,0.077-0.215,0.167
				c-0.037,0.089-0.035,0.236,0.006,0.44c-0.128,0.026-0.192,0.04-0.319,0.065c-0.246-1.25-0.367-1.873-0.617-3.121
				c0.127-0.026,0.189-0.038,0.316-0.064c0.069,0.349,0.209,0.5,0.422,0.455c3.201-0.677,4.803-1.02,8.004-1.71
				c0.213-0.045,0.28-0.244,0.211-0.597c0.127-0.027,0.188-0.041,0.315-0.068C1903.135,831.94,1903.381,833.188,1903.863,835.688z
				 M1899.643,836.076c0.084,0.437,0.188,0.793,0.309,1.07c0.121,0.278,0.257,0.49,0.406,0.636c0.151,0.146,0.312,0.236,0.484,0.276
				s0.354,0.042,0.541,0.003c0.188-0.04,0.354-0.111,0.499-0.217c0.146-0.104,0.263-0.256,0.347-0.45s0.131-0.444,0.14-0.75
				s-0.027-0.677-0.111-1.114c-0.243-1.263-0.368-1.893-0.616-3.151c-1.045,0.222-1.565,0.333-2.609,0.553
				C1899.277,834.188,1899.398,834.818,1899.643,836.076z"/>
			<path d="M1896.23,844.632c0.043,0.229,0.17,0.324,0.383,0.281c3.212-0.631,4.817-0.948,8.029-1.593
				c0.213-0.042,0.299-0.183,0.254-0.415c0.127-0.025,0.189-0.036,0.316-0.062c0.23,1.254,0.348,1.881,0.574,3.138
				c-0.127,0.024-0.192,0.036-0.319,0.062c-0.018-0.099-0.085-0.136-0.202-0.112c-0.096,0.02-0.238,0.174-0.431,0.465
				c-1.729,2.521-2.601,3.777-4.349,6.275c2.254-0.425,3.381-0.64,5.634-1.073c0.213-0.041,0.292-0.22,0.235-0.54
				c0.127-0.023,0.191-0.037,0.318-0.062c0.194,1.112,0.291,1.669,0.48,2.782c-0.127,0.023-0.189,0.036-0.316,0.06
				c-0.041-0.232-0.167-0.331-0.381-0.291c-3.219,0.611-4.828,0.913-8.048,1.509c-0.214,0.039-0.298,0.176-0.259,0.406
				c-0.127,0.023-0.195,0.035-0.323,0.059c-0.201-1.182-0.302-1.772-0.507-2.953c0.129-0.024,0.19-0.036,0.317-0.061
				c0.027,0.158,0.097,0.228,0.202,0.207c0.083-0.016,0.202-0.139,0.355-0.368c1.867-2.647,2.793-3.979,4.639-6.656
				c-2.35,0.464-3.521,0.693-5.873,1.15c-0.212,0.041-0.291,0.201-0.241,0.479c-0.127,0.023-0.192,0.036-0.319,0.061
				c-0.193-1.076-0.293-1.612-0.489-2.687C1896.04,844.669,1896.104,844.657,1896.23,844.632z"/>
		</g>
	</g>
	<g>
		<g>
			<path d="M1620.746,362.078c0.13,0.089,0.273,0.119,0.432,0.084c0.154-0.034,0.318-0.084,0.494-0.15
				c2.891-1.125,4.336-1.69,7.225-2.829c0.168-0.057,0.324-0.108,0.463-0.16c0.14-0.053,0.24-0.113,0.306-0.184
				c0.082-0.087,0.11-0.179,0.082-0.271c-0.028-0.094-0.071-0.183-0.124-0.266c0.089-0.096,0.131-0.145,0.22-0.24
				c0.89,0.841,1.333,1.262,2.22,2.104c-0.088,0.096-0.133,0.145-0.222,0.24c-0.077-0.042-0.163-0.075-0.253-0.104
				c-0.09-0.027-0.179,0.007-0.27,0.104c-0.065,0.069-0.115,0.153-0.15,0.254s-0.075,0.238-0.121,0.41
				c-0.918,3.188-1.382,4.78-2.321,7.956c-0.048,0.137-0.059,0.263-0.024,0.377c0.033,0.114,0.076,0.239,0.132,0.377
				c-0.091,0.094-0.138,0.141-0.228,0.233c-0.916-0.882-1.374-1.321-2.291-2.2c0.09-0.095,0.135-0.142,0.223-0.235
				c0.035,0.033,0.095,0.062,0.171,0.085c0.075,0.023,0.139,0.008,0.188-0.044c0.082-0.086,0.155-0.234,0.218-0.439
				c0.17-0.577,0.254-0.865,0.422-1.444c-1.273-1.219-1.913-1.825-3.191-3.035c-0.539,0.193-0.809,0.291-1.348,0.484
				c-0.26,0.102-0.428,0.189-0.502,0.268c-0.092,0.097-0.052,0.225,0.114,0.382c-0.089,0.094-0.135,0.142-0.224,0.236
				c-0.743-0.704-1.114-1.058-1.858-1.759C1620.614,362.22,1620.657,362.172,1620.746,362.078z M1627.979,364.317
				c0.48-1.397,0.722-2.099,1.197-3.499c-1.41,0.515-2.111,0.771-3.521,1.281C1626.586,362.985,1627.047,363.429,1627.979,364.317z"
				/>
			<path d="M1635.08,378.693c0.061-0.01,0.119-0.024,0.183-0.049c0.063-0.021,0.121-0.059,0.171-0.11
				c0.051-0.052,0.082-0.161,0.098-0.324c0.015-0.163,0.021-0.352,0.021-0.562c0.001-0.209-0.003-0.418-0.016-0.625
				c-0.013-0.206,0.034-0.467,0.007-0.518c-0.07-0.131-0.577-0.342-0.836-0.553c-0.258-0.211-0.507-0.429-0.739-0.657
				c-0.476-0.464-0.896-1.004-1.264-1.614c-0.367-0.608-0.62-1.256-0.753-1.938c-0.133-0.684-0.12-1.372,0.037-2.065
				c0.158-0.691,0.524-1.341,1.097-1.945c0.571-0.605,1.196-1.007,1.874-1.198c0.678-0.192,1.357-0.237,2.039-0.133
				c0.682,0.104,1.337,0.323,1.97,0.658s1.188,0.733,1.667,1.197s0.896,1.012,1.254,1.639c0.357,0.628,0.602,1.287,0.734,1.978
				c0.132,0.689,0.117,1.385-0.043,2.083c-0.161,0.698-0.529,1.35-1.105,1.955c-0.601,0.631-1.248,1.036-1.945,1.214
				c-0.695,0.178-2.067,0.004-2.119,0.051c-0.015,0.012,0.015,0.215,0.009,0.361c-0.007,0.146-0.015,0.294-0.015,0.444
				c-0.002,0.151,0.006,0.288,0.021,0.412c0.015,0.125,0.044,0.208,0.087,0.251c0.104,0.103,0.221,0.153,0.355,0.15
				c0.013,0.124,0.02,0.186,0.031,0.309c-1.104-0.062-1.658-0.094-2.765-0.156C1635.113,378.847,1635.104,378.795,1635.08,378.693z
				 M1639.49,369.476c-0.329-0.32-0.709-0.59-1.139-0.804c-0.431-0.214-0.869-0.35-1.322-0.409
				c-0.451-0.059-0.896-0.023-1.334,0.106s-0.83,0.381-1.178,0.75c-0.35,0.368-0.574,0.775-0.685,1.225
				c-0.108,0.448-0.129,0.899-0.051,1.354c0.077,0.452,0.23,0.893,0.46,1.316c0.229,0.426,0.508,0.799,0.836,1.119
				c0.208,0.202,0.574,0.47,0.583,0.466c0.063-0.03,0.057-0.807,0.021-1.103c-0.035-0.296-0.074-0.538-0.125-0.721
				c-0.051-0.185-0.095-0.321-0.136-0.411c-0.04-0.09-0.043-0.15-0.01-0.187c0.065-0.068,0.216-0.041,0.452,0.089
				c0.236,0.128,0.463,0.299,0.68,0.51c0.182,0.177,0.329,0.365,0.438,0.564c0.11,0.201,0.194,0.409,0.259,0.622
				c0.063,0.214,0.11,0.44,0.146,0.677c0.033,0.237,0.045,0.65,0.108,0.715c0.134,0.131,0.912,0.029,1.354-0.094
				s0.843-0.373,1.201-0.75c0.35-0.369,0.58-0.777,0.691-1.229c0.109-0.451,0.122-0.907,0.046-1.362
				c-0.077-0.457-0.228-0.896-0.457-1.324C1640.102,370.169,1639.82,369.797,1639.49,369.476z"/>
			<path d="M1648.371,376.472c-0.189-0.188-0.358-0.204-0.51-0.045c-1.502,1.585-2.256,2.375-3.762,3.95
				c-0.527,0.551-0.714,1.104-0.562,1.655c0.15,0.551,0.561,1.162,1.229,1.833c0.668,0.669,1.274,1.076,1.818,1.219
				s1.081-0.059,1.609-0.609c1.514-1.574,2.27-2.365,3.775-3.95c0.151-0.159,0.1-0.366-0.158-0.623
				c0.09-0.097,0.137-0.146,0.227-0.241c0.826,0.827,1.236,1.243,2.061,2.074c-0.091,0.095-0.134,0.144-0.225,0.238
				c-0.206-0.208-0.387-0.232-0.537-0.073c-1.484,1.559-2.229,2.335-3.718,3.884c-0.497,0.515-0.979,0.868-1.448,1.056
				c-0.469,0.189-0.943,0.237-1.43,0.146c-0.483-0.094-0.979-0.322-1.479-0.688s-1.029-0.832-1.595-1.396
				c-0.563-0.566-1.032-1.104-1.397-1.604c-0.366-0.503-0.598-0.999-0.695-1.489c-0.1-0.49-0.062-0.977,0.115-1.458
				c0.177-0.48,0.509-0.979,1.002-1.496c1.479-1.55,2.221-2.327,3.694-3.888c0.151-0.159,0.104-0.355-0.139-0.596
				c0.09-0.095,0.134-0.143,0.224-0.236c0.852,0.84,1.275,1.261,2.125,2.104C1648.507,376.33,1648.461,376.377,1648.371,376.472z"/>
			<path d="M1648.803,389.54c0.127,0.094,0.271,0.125,0.428,0.094c0.155-0.031,0.324-0.074,0.502-0.135
				c2.918-1.073,4.377-1.614,7.291-2.699c0.17-0.055,0.322-0.104,0.463-0.153c0.14-0.049,0.244-0.107,0.312-0.179
				c0.084-0.088,0.11-0.179,0.084-0.275c-0.025-0.097-0.064-0.188-0.115-0.276c0.092-0.095,0.137-0.142,0.228-0.237
				c0.868,0.883,1.3,1.325,2.166,2.212c-0.091,0.096-0.134,0.143-0.226,0.237c-0.076-0.044-0.16-0.08-0.248-0.11
				c-0.092-0.03-0.182,0.002-0.273,0.101c-0.068,0.07-0.119,0.156-0.156,0.256c-0.037,0.101-0.083,0.239-0.134,0.416
				c-0.995,3.237-1.496,4.852-2.515,8.074c-0.051,0.14-0.062,0.269-0.03,0.387c0.028,0.118,0.067,0.248,0.121,0.388
				c-0.093,0.095-0.14,0.14-0.23,0.233c-0.895-0.927-1.342-1.389-2.237-2.313c0.092-0.094,0.137-0.142,0.229-0.235
				c0.035,0.035,0.087,0.065,0.164,0.093c0.076,0.026,0.143,0.013,0.193-0.039c0.086-0.088,0.16-0.235,0.228-0.445
				c0.183-0.586,0.272-0.877,0.456-1.464c-1.244-1.279-1.867-1.921-3.115-3.193c-0.544,0.185-0.812,0.277-1.357,0.462
				c-0.264,0.097-0.435,0.185-0.512,0.263c-0.094,0.096-0.057,0.226,0.104,0.39c-0.091,0.095-0.136,0.142-0.228,0.235
				c-0.727-0.74-1.091-1.109-1.816-1.848C1648.667,389.68,1648.712,389.634,1648.803,389.54z M1655.979,392.024
				c0.516-1.417,0.772-2.126,1.283-3.546c-1.423,0.488-2.133,0.731-3.556,1.217C1654.618,390.625,1655.07,391.091,1655.979,392.024z
				"/>
			<path d="M1668.879,396.914c0.406,0.425,0.739,0.851,0.997,1.271c0.258,0.423,0.427,0.841,0.506,1.25
				c0.079,0.412,0.056,0.816-0.069,1.207c-0.125,0.394-0.369,0.779-0.735,1.155c-0.563,0.578-1.159,0.846-1.787,0.805
				c-0.627-0.042-1.271-0.303-1.931-0.784c-0.299,1.704-0.45,2.557-0.756,4.26c-0.026,0.148-0.009,0.274,0.055,0.378
				c0.062,0.101,0.127,0.188,0.193,0.259c-0.093,0.094-0.139,0.14-0.23,0.234c-0.941-1-1.414-1.498-2.357-2.494
				c0.092-0.094,0.135-0.142,0.229-0.235c0.076,0.081,0.156,0.135,0.236,0.165c0.08,0.032,0.145,0.028,0.188-0.016
				c0.044-0.043,0.07-0.112,0.093-0.204c0.022-0.093,0.046-0.221,0.073-0.388c0.244-1.401,0.367-2.104,0.607-3.505
				c-0.727-0.761-1.09-1.141-1.816-1.897c-0.909,0.933-1.362,1.4-2.273,2.33c-0.076,0.079-0.106,0.165-0.09,0.262
				s0.099,0.22,0.241,0.37c-0.092,0.094-0.139,0.141-0.229,0.234c-0.877-0.917-1.316-1.375-2.194-2.289
				c0.092-0.094,0.138-0.141,0.229-0.234c0.244,0.255,0.446,0.305,0.601,0.148c2.319-2.372,3.476-3.565,5.782-5.96
				c0.151-0.158,0.104-0.365-0.143-0.62c0.092-0.096,0.137-0.144,0.229-0.237C1666.27,394.185,1667.141,395.093,1668.879,396.914z
				 M1665.566,399.647c0.304,0.319,0.58,0.562,0.83,0.728c0.248,0.165,0.475,0.265,0.678,0.301s0.386,0.022,0.552-0.042
				c0.167-0.064,0.319-0.167,0.455-0.306c0.137-0.141,0.235-0.298,0.3-0.469c0.064-0.172,0.083-0.365,0.049-0.576
				c-0.033-0.21-0.128-0.448-0.285-0.71c-0.156-0.261-0.386-0.552-0.69-0.872c-0.88-0.921-1.321-1.378-2.202-2.295
				c-0.753,0.779-1.13,1.168-1.885,1.944C1664.246,398.268,1664.688,398.727,1665.566,399.647z"/>
			<path d="M1667.217,408.696c0.219,0.231,0.4,0.27,0.557,0.112c2.339-2.368,3.506-3.56,5.832-5.952
				c0.153-0.158,0.119-0.353-0.1-0.584c0.092-0.096,0.141-0.146,0.232-0.24c0.84,0.891,1.256,1.34,2.095,2.233
				c-0.093,0.096-0.136,0.143-0.229,0.237c-0.219-0.233-0.405-0.271-0.561-0.114c-2.329,2.393-3.497,3.583-5.839,5.952
				c-0.155,0.157-0.122,0.351,0.096,0.584c-0.093,0.094-0.14,0.143-0.231,0.235c-0.834-0.895-1.252-1.341-2.088-2.231
				C1667.074,408.837,1667.124,408.79,1667.217,408.696z"/>
			<path d="M1679.561,408.749c-0.186-0.199-0.354-0.22-0.508-0.062c-1.545,1.58-2.316,2.368-3.867,3.938
				c-0.541,0.549-0.748,1.108-0.612,1.678c0.135,0.57,0.526,1.211,1.176,1.918s1.242,1.143,1.782,1.306
				c0.54,0.164,1.084-0.028,1.628-0.578c1.557-1.569,2.336-2.357,3.887-3.937c0.155-0.158,0.107-0.372-0.144-0.646
				c0.093-0.095,0.139-0.143,0.23-0.237c0.803,0.873,1.205,1.312,2.006,2.188c-0.093,0.095-0.143,0.143-0.234,0.236
				c-0.2-0.219-0.377-0.251-0.533-0.093c-1.527,1.553-2.291,2.327-3.823,3.87c-0.511,0.515-1.005,0.861-1.479,1.041
				c-0.476,0.18-0.953,0.213-1.435,0.104c-0.48-0.108-0.969-0.357-1.457-0.748c-0.487-0.39-1.007-0.882-1.556-1.48
				s-0.998-1.161-1.35-1.687c-0.353-0.526-0.57-1.042-0.655-1.549c-0.084-0.506-0.034-1.003,0.155-1.493
				c0.188-0.487,0.539-0.988,1.047-1.503c1.521-1.544,2.281-2.317,3.799-3.873c0.152-0.157,0.115-0.362-0.119-0.614
				c0.093-0.096,0.137-0.145,0.229-0.238c0.827,0.887,1.241,1.332,2.066,2.222C1679.7,408.606,1679.652,408.653,1679.561,408.749z"
				/>
			<path d="M1682.831,421.669c0.022,0.081,0.038,0.122,0.062,0.203c-0.078,0.079-0.134,0.167-0.16,0.264
				c-0.047,0.167-0.035,0.397,0.033,0.685c0.069,0.288,0.177,0.594,0.316,0.915c0.141,0.319,0.311,0.639,0.501,0.952
				c0.191,0.313,0.381,0.576,0.571,0.787c0.141,0.157,0.334,0.349,0.578,0.575c0.244,0.229,0.508,0.427,0.793,0.597
				c0.283,0.169,0.566,0.281,0.847,0.335c0.277,0.053,0.515-0.021,0.716-0.221s0.275-0.43,0.229-0.687s-0.169-0.537-0.36-0.843
				c-0.19-0.308-0.433-0.636-0.721-0.985s-0.578-0.711-0.866-1.087s-0.553-0.761-0.794-1.156s-0.41-0.795-0.503-1.2
				c-0.093-0.404-0.084-0.812,0.018-1.221c0.103-0.41,0.351-0.814,0.747-1.217c0.271-0.271,0.595-0.474,0.976-0.604
				c0.379-0.13,0.789-0.158,1.238-0.085c0.447,0.073,0.931,0.257,1.437,0.552c0.507,0.296,1.021,0.729,1.535,1.298
				c0.439,0.487,0.784,0.947,1.038,1.378c0.255,0.43,0.462,0.814,0.619,1.156c0.158,0.342,0.285,0.64,0.375,0.89
				c0.093,0.251,0.19,0.436,0.299,0.556c0.115,0.13,0.223,0.195,0.324,0.197c0.019,0.109,0.028,0.164,0.047,0.271
				c-0.996,0.274-1.492,0.412-2.487,0.686c-0.028-0.077-0.044-0.116-0.072-0.193c0.104-0.141,0.175-0.276,0.204-0.411
				c0.038-0.18,0.027-0.403-0.024-0.676c-0.052-0.271-0.145-0.562-0.272-0.871c-0.129-0.31-0.29-0.622-0.481-0.937
				c-0.192-0.315-0.407-0.606-0.647-0.873c-0.184-0.203-0.389-0.397-0.613-0.582c-0.227-0.187-0.445-0.334-0.664-0.448
				c-0.217-0.113-0.433-0.175-0.637-0.19c-0.203-0.014-0.375,0.053-0.521,0.201c-0.207,0.209-0.295,0.449-0.253,0.715
				c0.041,0.267,0.156,0.558,0.341,0.87c0.184,0.313,0.416,0.646,0.701,0.999c0.285,0.354,0.572,0.719,0.86,1.096
				c0.288,0.376,0.549,0.765,0.785,1.167c0.235,0.401,0.399,0.807,0.491,1.214c0.092,0.405,0.088,0.813-0.013,1.221
				c-0.1,0.404-0.344,0.804-0.735,1.195c-0.453,0.453-0.939,0.693-1.454,0.727c-0.517,0.033-1.022-0.058-1.526-0.271
				s-0.98-0.512-1.428-0.893c-0.449-0.381-0.841-0.76-1.178-1.136c-0.469-0.523-0.838-0.991-1.099-1.4
				c-0.262-0.408-0.458-0.771-0.586-1.088c-0.128-0.314-0.22-0.576-0.278-0.777c-0.06-0.202-0.135-0.354-0.226-0.454
				c-0.06-0.063-0.146-0.088-0.267-0.074c-0.027-0.119-0.043-0.178-0.069-0.297C1681.477,422.164,1681.927,421.999,1682.831,421.669
				z"/>
		</g>
	</g>
	<text transform="matrix(0.9718 0.2359 -0.2359 0.9718 1223.5586 157.4971)" font-family="'Copperplate'" font-size="18">PISCES</text>
</g>
<text transform="matrix(0.8289 -0.5594 0.5594 0.8289 427.1763 364.1152)" font-family="'Astro'" font-size="21">B</text>
<text transform="matrix(0.9931 -0.1176 0.1176 0.9931 827.1709 157.7637)" font-family="'Astro'" font-size="21">A</text>
<text transform="matrix(0.3405 -0.9402 0.9402 0.3405 176.1851 758.6133)" font-family="'Astro'" font-size="21">C</text>
<text transform="matrix(0.1161 -0.9932 0.9932 0.1161 153.0557 1214.4492)" font-family="'Astro'" font-size="21">D</text>
<text transform="matrix(-0.5885 -0.8085 0.8085 -0.5885 379.2695 1634.5234)" font-family="'Astro'" font-size="21">E</text>
<text transform="matrix(-0.9809 -0.1944 0.1944 -0.9809 763.6089 1871.8955)" font-family="'Astro'" font-size="21">F</text>
<text transform="matrix(-0.981 0.1939 -0.1939 -0.981 1219.9404 1890.125)" font-family="'Astro'" font-size="21">G</text>
<text transform="matrix(-0.7234 0.6904 -0.6904 -0.7234 1618.4297 1680.8789)" font-family="'Astro'" font-size="21">H</text>
<text transform="matrix(-0.4763 0.8793 -0.8793 -0.4763 1863.8125 1316.998)" font-family="'Astro'" font-size="21">I</text>
<text transform="matrix(0.1755 0.9845 -0.9845 0.1755 1896.8838 858.4893)" font-family="'Astro'" font-size="21">J</text>
<text transform="matrix(0.7068 0.7074 -0.7074 0.7068 1686.5293 434.3496)" font-family="'Astro'" font-size="21">K</text>
<text transform="matrix(0.9519 0.3065 -0.3065 0.9519 1290.3691 177.5845)" font-family="'Astro'" font-size="21">L</text>
</svg>
