<?xml version="1.0" encoding="utf-8"?>
<!-- Generator: Adobe Illustrator 14.0.0, SVG Export Plug-In . SVG Version: 6.00 Build 43363)  -->
<!DOCTYPE svg PUBLIC "-//W3C//DTD SVG 1.1//EN" "http://www.w3.org/Graphics/SVG/1.1/DTD/svg11.dtd">
<svg version="1.1" xmlns="http://www.w3.org/2000/svg" xmlns:xlink="http://www.w3.org/1999/xlink" x="0px" y="0px" width="2048px"
	 height="512px" viewBox="0 0 2048 512" enable-background="new 0 0 2048 512" xml:space="preserve">
<g id="svg3059" xmlns:inkscape="http://www.inkscape.org/namespaces/inkscape" xmlns:sodipodi="http://sodipodi.sourceforge.net/DTD/sodipodi-0.dtd" xmlns:svg="http://www.w3.org/2000/svg" inkscape:version="0.48.4 r9939" xmlns:cc="http://creativecommons.org/ns#" xmlns:dc="http://purl.org/dc/elements/1.1/" xmlns:rdf="http://www.w3.org/1999/02/22-rdf-syntax-ns#" sodipodi:docname="New document 4">
	
		<sodipodi:namedview  id="base" inkscape:window-maximized="0" inkscape:window-width="787" bordercolor="#666666" inkscape:window-height="588" inkscape:pageopacity="0.0" inkscape:pageshadow="2" inkscape:window-x="115" showgrid="false" inkscape:zoom="0.35" inkscape:cx="912.65107" inkscape:document-units="px" inkscape:cy="291.42857" inkscape:window-y="72" borderopacity="1.0" inkscape:current-layer="layer1" pagecolor="#ffffff">
		</sodipodi:namedview>
	<g id="layer1" transform="translate(0,-540.36218)" inkscape:groupmode="layer" inkscape:label="Layer 1">
		
			<image overflow="visible" enable-background="new    " width="254" height="248" id="image3075" xlink:href="F43D6C8B.jpeg"  transform="matrix(8.063 0 0 2.0645 0 540.3622)">
		</image>
	</g>
	<line fill="none" stroke="#000000" stroke-width="2" x1="293" y1="313.5" x2="293" y2="375.5"/>
	<line fill="none" stroke="#000000" stroke-width="2" x1="147" y1="313.5" x2="147" y2="375.5"/>
	<line fill="none" stroke="#000000" stroke-width="2" x1="82" y1="313.5" x2="82" y2="375.5"/>
	<line fill="none" stroke="#000000" stroke-width="2" x1="70" y1="313.5" x2="70" y2="375.5"/>
	<line fill="none" stroke="#000000" stroke-width="2" x1="549" y1="313.5" x2="549" y2="375.5"/>
	<line fill="none" stroke="#000000" stroke-width="2" x1="613" y1="313.5" x2="613" y2="375.5"/>
	<text transform="matrix(1 0 0 1 291.5 388.5)" font-family="'Copperplate-Bold'" font-size="12">MERCURY</text>
	<text transform="matrix(1 0 0 1 612.5 389.5)" font-family="'Copperplate-Bold'" font-size="12">VENUS</text>
	<text transform="matrix(1 0 0 1 547.5 390.5)" font-family="'Copperplate-Bold'" font-size="12">MARS</text>
	<text transform="matrix(1 0 0 1 143.5 389.5)" font-family="'Copperplate-Bold'" font-size="12">JUPITER</text>
	<text transform="matrix(1 0 0 1 79.5 389.5)" font-family="'Copperplate-Bold'" font-size="12">SATURN</text>
	<text transform="matrix(1 0 0 1 33.8301 388.3262)" font-family="'Copperplate-Bold'" font-size="12">MOON</text>
</g>
<g id="Layer_2">
	<rect x="1" y="313.5" fill="none" stroke="#000000" width="800" height="180"/>
	<rect x="800" y="313.5" fill="none" stroke="#000000" width="800" height="180"/>
</g>
</svg>
