<?xml version="1.0" encoding="utf-8"?>
<!-- Generator: Adobe Illustrator 14.0.0, SVG Export Plug-In . SVG Version: 6.00 Build 43363)  -->
<!DOCTYPE svg PUBLIC "-//W3C//DTD SVG 1.1//EN" "http://www.w3.org/Graphics/SVG/1.1/DTD/svg11.dtd">
<svg version="1.1" id="Layer_1" xmlns="http://www.w3.org/2000/svg" xmlns:xlink="http://www.w3.org/1999/xlink" x="0px" y="0px"
	 width="2048px" height="2048px" viewBox="0 0 2048 2048" enable-background="new 0 0 2048 2048" xml:space="preserve">
<g id="Layer_1_2_">
	<g id="Layer_2">
		
			<image overflow="visible" enable-background="new    " width="2048" height="2048" xlink:href="brassfeb.jpg"  transform="matrix(1 0 0 1 0 -0.002)">
		</image>
	</g>
	<g id="Layer_1_1_">
		<ellipse fill="none" stroke="#000000" stroke-width="4" cx="1024" cy="1024" rx="1000" ry="1000"/>
	</g>
</g>
<g id="Layer_2_1_">
	<circle cx="754.02" cy="743.78" r="12"/>
	<circle cx="484.04" cy="463.55" r="12"/>
	<line fill="none" stroke="#000000" stroke-width="2" x1="484.04" y1="463.55" x2="1024" y2="1024"/>
	<circle cx="1024" cy="1024" r="12"/>
	<text transform="matrix(0.7181 -0.696 0.696 0.7181 768.5996 734.7803)" font-family="'Copperplate-Bold'" font-size="36.0015">D</text>
	<text transform="matrix(0.7181 -0.696 0.696 0.7181 496.04 451.5503)" font-family="'Copperplate-Bold'" font-size="36.0015">E</text>
	<circle cx="1023.811" cy="950.04" r="12"/>
	<circle cx="1023.811" cy="875.09" r="12"/>
	<text transform="matrix(1 0.008 -0.008 1 1039.7021 958.6387)" font-family="'Copperplate-Bold'" font-size="36.0012">D</text>
	<text transform="matrix(0.999 -0.0447 0.0447 0.999 1041.1992 881.9453)" font-family="'Copperplate-Bold'" font-size="36">E</text>
	<line fill="none" stroke="#000000" x1="1023.811" y1="875.09" x2="1023.811" y2="1024"/>
	<circle cx="621.439" cy="969.81" r="12"/>
	<circle cx="822.72" cy="996.91" r="12"/>
	<line fill="none" stroke="#000000" stroke-width="2" x1="621.439" y1="969.81" x2="1023.811" y2="1024"/>
	<text transform="matrix(0.1036 -0.9946 0.9946 0.1036 834.1123 982.1816)" font-family="'Copperplate-Bold'" font-size="36">D</text>
	<text transform="matrix(0.1007 -0.9949 0.9949 0.1007 633.4199 953.2368)" font-family="'Copperplate-Bold'" font-size="36">E</text>
	<circle cx="955.689" cy="1235.689" r="12"/>
	<circle cx="887.379" cy="1447.38" r="12"/>
	<line fill="none" stroke="#000000" stroke-width="2" x1="1023.811" y1="1024" x2="887.379" y2="1447.38"/>
	<text transform="matrix(0.999 -0.0447 0.0447 0.999 899.3799 1468.9463)" font-family="'Copperplate-Bold'" font-size="36">E</text>
	<text transform="matrix(1 0.008 -0.008 1 967.6885 1255.6387)" font-family="'Copperplate-Bold'" font-size="36.0012">D</text>
	<circle cx="648.88" cy="1245.41" r="12"/>
	<line fill="none" stroke="#000000" stroke-width="2" x1="1023.811" y1="1024" x2="473.33" y2="1349.22"/>
	<g>
		<circle cx="824.44" cy="1141.625" r="3"/>
		<g>
			<circle cx="473.33" cy="1349.22" r="3"/>
			<line fill="none" x1="473.955" y1="1348.852" x2="825.064" y2="1142.042"/>
		</g>
	</g>
	<g>
		<circle cx="820.71" cy="1135.562" r="3"/>
		<g>
			<circle cx="477.059" cy="1355.284" r="3"/>
			<line fill="none" x1="477.67" y1="1354.895" x2="821.349" y2="1135.957"/>
		</g>
	</g>
	<g>
		<circle cx="816.771" cy="1129.633" r="3"/>
		<g>
			<circle cx="480.998" cy="1361.214" r="3"/>
			<line fill="none" x1="481.595" y1="1360.804" x2="817.423" y2="1130.005"/>
		</g>
	</g>
	<g>
		<circle cx="812.627" cy="1123.845" r="3"/>
		<g>
			<circle cx="485.141" cy="1367.003" r="3"/>
			<line fill="none" x1="485.723" y1="1366.572" x2="813.292" y2="1124.193"/>
		</g>
	</g>
	<g>
		<circle cx="808.284" cy="1118.205" r="3"/>
		<g>
			<circle cx="489.483" cy="1372.644" r="3"/>
			<line fill="none" x1="490.05" y1="1372.193" x2="808.96" y2="1118.53"/>
		</g>
	</g>
	<g>
		<circle cx="803.747" cy="1112.72" r="3"/>
		<g>
			<circle cx="494.02" cy="1378.13" r="3"/>
			<line fill="none" x1="494.57" y1="1377.659" x2="804.434" y2="1113.021"/>
		</g>
	</g>
	<g>
		<circle cx="799.021" cy="1107.397" r="3"/>
		<g>
			<circle cx="498.745" cy="1383.455" r="3.001"/>
			<line fill="none" x1="499.279" y1="1382.965" x2="799.718" y2="1107.674"/>
		</g>
	</g>
	<g>
		<circle cx="794.112" cy="1102.242" r="3"/>
		<g>
			<circle cx="503.654" cy="1388.61" r="3"/>
			<line fill="none" x1="504.169" y1="1388.103" x2="794.818" y2="1102.494"/>
		</g>
	</g>
	<g>
		<circle cx="789.026" cy="1097.261" r="3"/>
		<g>
			<circle cx="508.739" cy="1393.592" r="3"/>
			<line fill="none" x1="509.237" y1="1393.066" x2="789.741" y2="1097.488"/>
		</g>
	</g>
	<g>
		<path d="M782.842,1089.607c1.576-0.512,3.269,0.349,3.78,1.927c0.513,1.575-0.348,3.269-1.924,3.78
			c-1.578,0.51-3.271-0.35-3.782-1.927C780.405,1091.811,781.268,1090.119,782.842,1089.607z"/>
		<g>
			<circle cx="513.995" cy="1398.393" r="3"/>
			<line fill="none" x1="514.474" y1="1397.851" x2="784.492" y2="1092.662"/>
		</g>
	</g>
	<g>
		<circle cx="778.349" cy="1087.847" r="3.001"/>
		<g>
			<circle cx="519.415" cy="1403.008" r="3"/>
			<line fill="none" x1="519.875" y1="1402.449" x2="779.078" y2="1088.022"/>
		</g>
	</g>
	<g>
		<circle cx="772.77" cy="1083.425" r="3.001"/>
		<g>
			<circle cx="524.993" cy="1407.431" r="2.999"/>
			<line fill="none" x1="525.434" y1="1406.856" x2="773.505" y2="1083.574"/>
		</g>
	</g>
	<g>
		<circle cx="767.041" cy="1079.2" r="3.001"/>
		<g>
			<path d="M529.502,1408.917c1.514-0.677,3.286,0.006,3.961,1.519c0.674,1.514-0.007,3.287-1.521,3.961
				c-1.514,0.674-3.287-0.008-3.961-1.521C527.307,1411.361,527.988,1409.588,529.502,1408.917z"/>
			<line fill="none" x1="531.143" y1="1411.066" x2="767.78" y2="1079.324"/>
		</g>
	</g>
	<g>
		<path d="M759.851,1072.482c1.491-0.727,3.286-0.109,4.012,1.382c0.728,1.487,0.112,3.285-1.378,4.011
			c-1.491,0.725-3.287,0.109-4.014-1.381C757.745,1075.004,758.364,1073.209,759.851,1072.482z"/>
		<g>
			<path d="M535.28,1412.984c1.489-0.729,3.284-0.109,4.012,1.379c0.727,1.489,0.107,3.285-1.382,4.012
				c-1.489,0.726-3.285,0.107-4.012-1.381C533.171,1415.504,533.791,1413.708,535.28,1412.984z"/>
			<line fill="none" x1="536.995" y1="1415.075" x2="761.91" y2="1075.276"/>
		</g>
	</g>
	<g>
		<circle cx="755.157" cy="1071.364" r="3.001"/>
		<g>
			<path d="M541.197,1416.848c1.463-0.781,3.278-0.224,4.058,1.238c0.778,1.463,0.222,3.279-1.241,4.057s-3.279,0.222-4.058-1.24
				C539.177,1419.438,539.733,1417.622,541.197,1416.848z"/>
			<line fill="none" x1="542.983" y1="1418.877" x2="755.903" y2="1071.436"/>
		</g>
	</g>
	<g>
		<path d="M747.516,1065.162c1.438-0.826,3.271-0.336,4.099,1.1c0.829,1.434,0.341,3.27-1.095,4.099
			c-1.438,0.827-3.271,0.338-4.101-1.098C745.592,1067.826,746.084,1065.993,747.516,1065.162z"/>
		<g>
			<path d="M547.245,1420.502c1.435-0.832,3.269-0.339,4.099,1.096c0.828,1.436,0.336,3.27-1.099,4.098
				c-1.435,0.827-3.269,0.336-4.099-1.098C545.316,1423.162,545.809,1421.327,547.245,1420.502z"/>
			<line fill="none" x1="549.101" y1="1422.468" x2="749.766" y2="1067.807"/>
		</g>
	</g>
	<g>
		<path d="M741.164,1061.83c1.408-0.876,3.257-0.449,4.135,0.956c0.878,1.403,0.454,3.256-0.951,4.134
			c-1.407,0.877-3.258,0.452-4.137-0.953C739.335,1064.56,739.763,1062.711,741.164,1061.83z"/>
		<g>
			<path d="M553.416,1423.943c1.405-0.882,3.255-0.453,4.135,0.951c0.877,1.405,0.45,3.256-0.956,4.134
				c-1.405,0.877-3.255,0.45-4.134-0.954C551.582,1426.668,552.01,1424.817,553.416,1423.943z"/>
			<line fill="none" x1="555.34" y1="1425.843" x2="743.505" y2="1064.395"/>
		</g>
	</g>
	<g>
		<path d="M734.7,1058.723c1.377-0.926,3.239-0.563,4.165,0.811c0.927,1.371,0.568,3.238-0.806,4.164
			c-1.376,0.926-3.24,0.565-4.167-0.809C732.968,1061.514,733.33,1059.65,734.7,1058.723z"/>
		<g>
			<path d="M559.704,1427.167c1.374-0.931,3.237-0.566,4.166,0.806c0.926,1.374,0.563,3.238-0.811,4.165
				c-1.375,0.926-3.237,0.563-4.165-0.81C557.966,1429.954,558.33,1428.089,559.704,1427.167z"/>
			<line fill="none" x1="561.693" y1="1428.998" x2="737.129" y2="1061.203"/>
		</g>
	</g>
	<g>
		<path d="M728.132,1055.842c1.344-0.974,3.218-0.676,4.19,0.664c0.974,1.338,0.682,3.217-0.66,4.191
			c-1.343,0.973-3.218,0.677-4.193-0.664C726.498,1058.691,726.795,1056.816,728.132,1055.842z"/>
		<g>
			<path d="M566.101,1430.169c1.34-0.979,3.215-0.679,4.191,0.659c0.973,1.341,0.676,3.217-0.665,4.191
				c-1.342,0.973-3.216,0.676-4.191-0.664C564.461,1433.015,564.76,1431.138,566.101,1430.169z"/>
			<line fill="none" x1="568.152" y1="1431.93" x2="730.646" y2="1058.236"/>
		</g>
	</g>
	<g>
		<path d="M721.467,1053.191c1.309-1.02,3.192-0.787,4.211,0.518c1.02,1.303,0.793,3.191-0.513,4.212
			c-1.308,1.02-3.193,0.789-4.213-0.517C719.934,1056.098,720.165,1054.213,721.467,1053.191z"/>
		<g>
			<path d="M572.599,1432.946c1.305-1.024,3.19-0.791,4.212,0.513c1.019,1.306,0.788,3.191-0.518,4.212
				c-1.307,1.019-3.19,0.788-4.211-0.519C571.06,1435.847,571.292,1433.961,572.599,1432.946z"/>
			<line fill="none" x1="574.71" y1="1434.634" x2="724.063" y2="1055.498"/>
		</g>
	</g>
	<g>
		<path d="M714.713,1050.775c1.272-1.064,3.163-0.897,4.227,0.371c1.065,1.266,0.904,3.162-0.366,4.227
			c-1.271,1.065-3.163,0.9-4.229-0.369C713.283,1053.733,713.448,1051.842,714.713,1050.775z"/>
		<g>
			<path d="M579.189,1435.494c1.268-1.068,3.16-0.901,4.227,0.366c1.064,1.27,0.899,3.162-0.371,4.227
				c-1.271,1.064-3.161,0.899-4.227-0.37C577.752,1438.446,577.918,1436.555,579.189,1435.494z"/>
			<line fill="none" x1="581.358" y1="1437.107" x2="717.389" y2="1052.99"/>
		</g>
	</g>
	<g>
		<path d="M707.879,1048.598c1.235-1.109,3.13-1.008,4.238,0.223c1.108,1.229,1.014,3.129-0.218,4.236
			c-1.234,1.109-3.13,1.011-4.239-0.221C706.553,1051.604,706.652,1049.707,707.879,1048.598z"/>
		<g>
			<path d="M585.865,1437.812c1.229-1.112,3.126-1.012,4.237,0.218c1.108,1.232,1.009,3.129-0.223,4.237
				c-1.233,1.108-3.127,1.009-4.237-0.223C584.532,1440.812,584.632,1438.915,585.865,1437.812z"/>
			<line fill="none" x1="588.088" y1="1439.348" x2="710.631" y2="1050.717"/>
		</g>
	</g>
	<g>
		<path d="M700.974,1046.659c1.195-1.151,3.093-1.116,4.243,0.075c1.15,1.188,1.122,3.091-0.071,4.24
			c-1.194,1.152-3.092,1.12-4.244-0.072C699.754,1049.709,699.787,1047.811,700.974,1046.659z"/>
		<g>
			<path d="M592.617,1439.894c1.19-1.154,3.089-1.119,4.242,0.07c1.15,1.192,1.118,3.092-0.075,4.242
				c-1.193,1.151-3.09,1.118-4.242-0.074C591.39,1442.938,591.423,1441.039,592.617,1439.894z"/>
			<line fill="none" x1="594.893" y1="1441.352" x2="703.798" y2="1048.682"/>
		</g>
	</g>
	<g>
		<path d="M694.005,1044.963c1.154-1.192,3.052-1.224,4.243-0.073c1.191,1.147,1.229,3.05,0.077,4.239
			c-1.153,1.194-3.051,1.229-4.244,0.077C692.892,1048.053,692.858,1046.154,694.005,1044.963z"/>
		<g>
			<path d="M599.438,1441.739c1.149-1.195,3.048-1.226,4.242-0.078c1.191,1.151,1.225,3.051,0.073,4.242
				c-1.152,1.192-3.05,1.226-4.242,0.074C598.317,1444.825,598.285,1442.926,599.438,1441.739z"/>
			<line fill="none" x1="601.763" y1="1443.117" x2="696.898" y2="1046.886"/>
		</g>
	</g>
	<g>
		<path d="M686.981,1043.51c1.112-1.23,3.008-1.328,4.238-0.221c1.23,1.105,1.334,3.005,0.225,4.234
			c-1.111,1.234-3.006,1.334-4.239,0.226C685.977,1046.637,685.877,1044.74,686.981,1043.51z"/>
		<g>
			<path d="M606.319,1443.346c1.107-1.235,3.004-1.332,4.237-0.226c1.231,1.108,1.33,3.006,0.221,4.236
				c-1.11,1.231-3.005,1.331-4.237,0.223C605.307,1446.469,605.208,1444.571,606.319,1443.346z"/>
			<line fill="none" x1="608.69" y1="1444.642" x2="689.94" y2="1045.332"/>
		</g>
	</g>
	<g>
		<path d="M679.911,1042.304c1.068-1.269,2.959-1.433,4.228-0.368c1.268,1.062,1.438,2.955,0.373,4.224
			c-1.067,1.272-2.958,1.438-4.229,0.372C679.017,1045.463,678.85,1043.571,679.911,1042.304z"/>
		<g>
			<path d="M613.252,1444.711c1.063-1.272,2.956-1.436,4.227-0.373c1.269,1.064,1.435,2.957,0.369,4.226
				c-1.066,1.27-2.957,1.435-4.227,0.371C612.35,1447.868,612.185,1445.975,613.252,1444.711z"/>
			<line fill="none" x1="615.667" y1="1445.924" x2="682.931" y2="1044.021"/>
		</g>
	</g>
	<g>
		<path d="M672.803,1041.346c1.023-1.306,2.908-1.535,4.213-0.516c1.304,1.017,1.541,2.902,0.52,4.207
			c-1.022,1.31-2.906,1.541-4.213,0.52C672.02,1044.533,671.787,1042.648,672.803,1041.346z"/>
		<g>
			<path d="M620.229,1445.834c1.019-1.309,2.903-1.538,4.211-0.521c1.305,1.019,1.537,2.904,0.516,4.209
				c-1.021,1.307-2.905,1.538-4.211,0.519C619.437,1449.021,619.206,1447.134,620.229,1445.834z"/>
			<line fill="none" x1="622.685" y1="1446.961" x2="675.881" y2="1042.957"/>
		</g>
	</g>
	<g>
		<path d="M665.666,1040.635c0.977-1.34,2.853-1.635,4.193-0.661c1.338,0.97,1.641,2.847,0.666,4.187
			c-0.976,1.344-2.851,1.641-4.192,0.666C664.994,1043.85,664.696,1041.974,665.666,1040.635z"/>
		<g>
			<path d="M627.24,1446.712c0.972-1.343,2.848-1.638,4.19-0.666c1.339,0.972,1.637,2.849,0.662,4.188
				c-0.974,1.342-2.85,1.639-4.189,0.666C626.56,1449.925,626.263,1448.047,627.24,1446.712z"/>
			<line fill="none" x1="629.733" y1="1447.753" x2="668.799" y2="1042.139"/>
		</g>
	</g>
	<g>
		<path d="M658.509,1040.174c0.929-1.373,2.793-1.732,4.167-0.807c1.372,0.923,1.739,2.788,0.812,4.161
			c-0.929,1.377-2.792,1.739-4.167,0.812C657.949,1043.41,657.586,1041.546,658.509,1040.174z"/>
		<g>
			<path d="M634.278,1447.346c0.924-1.377,2.789-1.736,4.164-0.812c1.373,0.924,1.735,2.79,0.808,4.161
				c-0.927,1.376-2.791,1.737-4.164,0.812C633.709,1450.58,633.348,1448.714,634.278,1447.346z"/>
			<line fill="none" x1="636.806" y1="1448.299" x2="661.692" y2="1041.568"/>
		</g>
	</g>
	<g>
		<path d="M651.34,1039.963c0.88-1.404,2.731-1.828,4.135-0.951c1.404,0.875,1.835,2.726,0.957,4.131
			c-0.879,1.408-2.729,1.835-4.136,0.957C650.893,1043.217,650.465,1041.366,651.34,1039.963z"/>
		<g>
			<path d="M641.333,1447.732c0.875-1.408,2.727-1.832,4.133-0.957c1.404,0.875,1.831,2.728,0.952,4.131
				c-0.878,1.407-2.729,1.833-4.133,0.957C640.878,1450.985,640.452,1449.132,641.333,1447.732z"/>
			<line fill="none" x1="643.893" y1="1448.598" x2="654.569" y2="1041.246"/>
		</g>
	</g>
	<g>
		<path d="M644.168,1040.002c0.83-1.434,2.665-1.922,4.099-1.094c1.434,0.824,1.929,2.659,1.1,4.094
			c-0.83,1.438-2.664,1.93-4.1,1.102C643.834,1043.27,643.343,1041.436,644.168,1040.002z"/>
		<g>
			<path d="M648.398,1447.873c0.826-1.438,2.661-1.926,4.097-1.101c1.434,0.825,1.925,2.662,1.096,4.095
				c-0.828,1.438-2.664,1.928-4.097,1.101C648.057,1451.14,647.566,1449.303,648.398,1447.873z"/>
			<line fill="none" x1="650.986" y1="1448.648" x2="647.44" y2="1041.173"/>
		</g>
	</g>
	<g>
		<path d="M637.001,1040.292c0.779-1.462,2.597-2.013,4.059-1.235c1.462,0.772,2.021,2.59,1.243,4.052
			c-0.779,1.468-2.595,2.021-4.059,1.245C636.782,1043.568,636.227,1041.753,637.001,1040.292z"/>
		<g>
			<path d="M655.464,1447.768c0.775-1.466,2.592-2.019,4.056-1.243c1.461,0.774,2.017,2.593,1.238,4.054
				c-0.778,1.466-2.595,2.02-4.056,1.242C655.237,1451.044,654.682,1449.225,655.464,1447.768z"/>
			<line fill="none" x1="658.077" y1="1448.451" x2="640.312" y2="1041.349"/>
		</g>
	</g>
	<g>
		<path d="M629.849,1040.832c0.728-1.488,2.525-2.103,4.013-1.376c1.488,0.72,2.11,2.517,1.383,4.005
			c-0.728,1.494-2.522,2.111-4.013,1.387C629.745,1044.113,629.126,1042.318,629.849,1040.832z"/>
		<g>
			<path d="M662.521,1447.415c0.723-1.492,2.521-2.108,4.01-1.384c1.488,0.723,2.107,2.521,1.379,4.008
				c-0.726,1.492-2.523,2.109-4.01,1.383C662.409,1450.697,661.791,1448.898,662.521,1447.415z"/>
			<line fill="none" x1="665.157" y1="1448.008" x2="633.195" y2="1041.771"/>
		</g>
	</g>
	<g>
		<path d="M622.72,1041.621c0.675-1.512,2.45-2.189,3.962-1.515c1.513,0.667,2.197,2.44,1.523,3.954
			c-0.675,1.518-2.447,2.198-3.962,1.525C622.73,1044.904,622.049,1043.133,622.72,1041.621z"/>
		<g>
			<path d="M669.562,1446.816c0.67-1.517,2.445-2.194,3.959-1.522c1.513,0.67,2.193,2.444,1.518,3.957
				c-0.673,1.517-2.448,2.195-3.959,1.522C669.564,1450.101,668.884,1448.324,669.562,1446.816z"/>
			<line fill="none" x1="672.216" y1="1447.317" x2="626.097" y2="1042.443"/>
		</g>
	</g>
	<g>
		<path d="M615.623,1042.658c0.622-1.534,2.372-2.273,3.907-1.652c1.535,0.615,2.281,2.363,1.66,3.899
			c-0.622,1.54-2.369,2.282-3.906,1.663C615.748,1045.939,615.005,1044.192,615.623,1042.658z"/>
		<g>
			<path d="M676.578,1445.973c0.617-1.539,2.367-2.278,3.904-1.659c1.535,0.616,2.277,2.365,1.655,3.9
				c-0.62,1.54-2.37,2.28-3.904,1.66C676.695,1449.255,675.953,1447.503,676.578,1445.973z"/>
			<line fill="none" x1="679.248" y1="1446.38" x2="619.026" y2="1043.363"/>
		</g>
	</g>
	<g>
		<path d="M608.566,1043.943c0.568-1.555,2.292-2.355,3.847-1.787c1.555,0.561,2.362,2.281,1.795,3.838
			c-0.567,1.561-2.288,2.363-3.846,1.799C608.806,1047.219,608.003,1045.498,608.566,1043.943z"/>
		<g>
			<path d="M683.56,1444.885c0.563-1.56,2.286-2.359,3.843-1.795c1.556,0.562,2.358,2.285,1.791,3.841
				c-0.566,1.561-2.289,2.361-3.843,1.795C683.791,1448.16,682.988,1446.436,683.56,1444.885z"/>
			<line fill="none" x1="686.242" y1="1445.198" x2="611.993" y2="1044.528"/>
		</g>
	</g>
	<g>
		<path d="M601.559,1045.474c0.514-1.573,2.208-2.435,3.782-1.921c1.574,0.507,2.44,2.198,1.928,3.773
			c-0.513,1.58-2.204,2.441-3.781,1.932C601.913,1048.738,601.05,1047.047,601.559,1045.474z"/>
		<g>
			<path d="M690.499,1443.554c0.509-1.578,2.202-2.438,3.779-1.928c1.574,0.508,2.437,2.2,1.923,3.775
				c-0.511,1.58-2.205,2.439-3.778,1.928C690.845,1446.819,689.982,1445.123,690.499,1443.554z"/>
			<line fill="none" x1="693.191" y1="1443.773" x2="605.004" y2="1045.939"/>
		</g>
	</g>
	<g>
		<path d="M594.609,1047.248c0.458-1.591,2.122-2.512,3.713-2.053c1.59,0.452,2.516,2.112,2.059,3.705
			c-0.458,1.597-2.118,2.516-3.711,2.062C595.077,1050.498,594.156,1048.838,594.609,1047.248z"/>
		<g>
			<path d="M697.388,1441.981c0.453-1.595,2.115-2.515,3.709-2.059c1.591,0.452,2.512,2.113,2.054,3.705
				c-0.456,1.598-2.119,2.516-3.708,2.059C697.847,1445.233,696.926,1443.567,697.388,1441.981z"/>
			<line fill="none" x1="700.086" y1="1442.106" x2="598.068" y2="1047.594"/>
		</g>
	</g>
	<g>
		<path d="M587.725,1049.264c0.403-1.605,2.033-2.585,3.64-2.182c1.605,0.396,2.587,2.023,2.187,3.631
			c-0.401,1.612-2.028,2.588-3.637,2.19C588.307,1052.495,587.328,1050.868,587.725,1049.264z"/>
		<g>
			<path d="M704.218,1440.17c0.398-1.609,2.026-2.588,3.635-2.188c1.606,0.396,2.584,2.025,2.182,3.632
				c-0.4,1.612-2.03,2.588-3.634,2.186C704.791,1443.403,703.812,1441.771,704.218,1440.17z"/>
			<line fill="none" x1="706.918" y1="1440.2" x2="591.195" y2="1049.488"/>
		</g>
	</g>
	<g>
		<path d="M580.916,1051.519c0.347-1.618,1.942-2.655,3.561-2.308c1.618,0.34,2.657,1.932,2.312,3.553
			c-0.345,1.625-1.937,2.656-3.558,2.314C581.61,1054.728,580.575,1053.136,580.916,1051.519z"/>
		<g>
			<path d="M710.98,1438.121c0.341-1.622,1.935-2.658,3.556-2.313c1.619,0.34,2.653,1.935,2.307,3.554
				c-0.343,1.625-1.938,2.656-3.556,2.311C711.666,1441.332,710.63,1439.734,710.98,1438.121z"/>
			<line fill="none" x1="713.68" y1="1438.057" x2="584.392" y2="1051.621"/>
		</g>
	</g>
	<g>
		<path d="M574.189,1054.009c0.291-1.629,1.849-2.721,3.479-2.43c1.629,0.282,2.723,1.837,2.435,3.47
			c-0.288,1.635-1.844,2.723-3.475,2.438C574.996,1057.191,573.906,1055.637,574.189,1054.009z"/>
		<g>
			<path d="M717.667,1435.837c0.285-1.633,1.841-2.724,3.473-2.437c1.63,0.283,2.719,1.841,2.43,3.472
				c-0.286,1.636-1.844,2.723-3.473,2.434C718.464,1439.022,717.374,1437.462,717.667,1435.837z"/>
			<line fill="none" x1="720.363" y1="1435.679" x2="577.667" y2="1053.99"/>
		</g>
	</g>
	<g>
		<path d="M567.555,1056.732c0.233-1.638,1.752-2.783,3.392-2.549c1.638,0.225,2.785,1.74,2.555,3.382
			c-0.23,1.644-1.748,2.785-3.388,2.558C568.471,1059.886,567.328,1058.37,567.555,1056.732z"/>
		<g>
			<path d="M724.271,1433.32c0.228-1.642,1.745-2.786,3.386-2.556c1.639,0.227,2.782,1.745,2.549,3.385
				c-0.229,1.645-1.748,2.785-3.386,2.553C725.178,1436.477,724.034,1434.955,724.271,1433.32z"/>
			<line fill="none" x1="726.959" y1="1433.069" x2="571.029" y2="1056.594"/>
		</g>
	</g>
	<g>
		<path d="M561.019,1059.686c0.176-1.645,1.654-2.842,3.301-2.666c1.645,0.168,2.844,1.643,2.671,3.291
			c-0.173,1.65-1.649,2.846-3.296,2.676C562.045,1062.806,560.849,1061.331,561.019,1059.686z"/>
		<g>
			<path d="M730.782,1430.575c0.17-1.648,1.646-2.845,3.294-2.672c1.646,0.169,2.841,1.646,2.666,3.293
				c-0.171,1.651-1.649,2.846-3.295,2.67C731.798,1433.698,730.603,1432.218,730.782,1430.575z"/>
			<line fill="none" x1="733.46" y1="1430.23" x2="564.486" y2="1059.426"/>
		</g>
	</g>
	<g>
		<path d="M554.589,1062.865c0.119-1.649,1.554-2.897,3.206-2.779c1.649,0.111,2.899,1.543,2.785,3.196
			c-0.116,1.655-1.549,2.901-3.201,2.788C555.724,1065.947,554.477,1064.516,554.589,1062.865z"/>
		<g>
			<path d="M737.193,1427.604c0.112-1.653,1.545-2.9,3.199-2.785c1.65,0.111,2.896,1.546,2.779,3.197
				c-0.113,1.657-1.549,2.902-3.2,2.784C738.318,1430.69,737.071,1429.253,737.193,1427.604z"/>
			<line fill="none" x1="739.857" y1="1427.167" x2="558.046" y2="1062.484"/>
		</g>
	</g>
	<g>
		<path d="M548.275,1066.268c0.062-1.652,1.451-2.949,3.107-2.889c1.652,0.053,2.952,1.44,2.895,3.097
			c-0.058,1.658-1.447,2.954-3.102,2.897C549.517,1069.309,548.22,1067.921,548.275,1066.268z"/>
		<g>
			<path d="M743.497,1424.412c0.055-1.656,1.443-2.953,3.1-2.896c1.653,0.054,2.949,1.443,2.89,3.099
				c-0.056,1.66-1.446,2.954-3.101,2.895C744.729,1427.457,743.433,1426.064,743.497,1424.412z"/>
			<line fill="none" x1="746.145" y1="1423.882" x2="551.716" y2="1065.766"/>
		</g>
	</g>
	<g>
		<path d="M542.084,1069.889c0.004-1.654,1.347-2.998,3.004-2.996c1.653-0.004,3,1.337,3.001,2.994c0,1.66-1.343,3.003-2.999,3.004
			C543.431,1072.885,542.086,1071.543,542.084,1069.889z"/>
		<g>
			<path d="M749.686,1421.002c-0.003-1.657,1.34-3.003,2.997-3.003c1.654-0.004,2.997,1.34,2.996,2.996
				c0.002,1.661-1.343,3.004-2.998,3.002C751.023,1424.002,749.679,1422.655,749.686,1421.002z"/>
			<line fill="none" x1="752.312" y1="1420.379" x2="545.505" y2="1069.266"/>
		</g>
	</g>
	<g>
		<path d="M536.022,1073.724c-0.054-1.653,1.242-3.043,2.897-3.099c1.652-0.062,3.045,1.23,3.104,2.887
			c0.058,1.66-1.237,3.049-2.892,3.107C537.474,1076.671,536.083,1075.377,536.022,1073.724z"/>
		<g>
			<path d="M755.752,1417.378c-0.062-1.656,1.233-3.048,2.89-3.105c1.653-0.062,3.042,1.234,3.099,2.89
				c0.061,1.66-1.236,3.049-2.891,3.104C757.193,1420.329,755.803,1419.03,755.752,1417.378z"/>
			<line fill="none" x1="758.355" y1="1416.663" x2="539.42" y2="1072.98"/>
		</g>
	</g>
	<g>
		<path d="M530.099,1077.768c-0.112-1.65,1.135-3.085,2.788-3.198c1.649-0.12,3.086,1.123,3.203,2.776
			c0.116,1.657-1.13,3.092-2.781,3.207C531.652,1080.662,530.217,1079.418,530.099,1077.768z"/>
		<g>
			<path d="M761.688,1413.544c-0.119-1.653,1.127-3.089,2.78-3.204c1.649-0.119,3.083,1.127,3.197,2.779
				c0.118,1.657-1.13,3.09-2.781,3.203C763.23,1416.443,761.796,1415.193,761.688,1413.544z"/>
			<line fill="none" x1="764.265" y1="1412.738" x2="533.469" y2="1076.906"/>
		</g>
	</g>
	<g>
		<path d="M524.32,1082.016c-0.169-1.645,1.026-3.123,2.674-3.293c1.644-0.178,3.124,1.014,3.297,2.662
			c0.174,1.652-1.021,3.129-2.667,3.303C525.973,1084.854,524.496,1083.661,524.32,1082.016z"/>
		<g>
			<path d="M767.485,1409.505c-0.177-1.648,1.019-3.126,2.667-3.299c1.645-0.177,3.121,1.019,3.292,2.666
				c0.177,1.652-1.021,3.128-2.667,3.299C769.129,1412.35,767.651,1411.149,767.485,1409.505z"/>
			<line fill="none" x1="770.033" y1="1408.61" x2="527.658" y2="1081.037"/>
		</g>
	</g>
	<g>
		<path d="M518.692,1086.463c-0.227-1.638,0.917-3.157,2.558-3.385c1.637-0.234,3.157,0.904,3.388,2.547
			c0.231,1.644-0.912,3.162-2.55,3.393C520.443,1089.242,518.926,1088.102,518.692,1086.463z"/>
		<g>
			<path d="M773.14,1405.267c-0.234-1.642,0.908-3.16,2.55-3.391c1.637-0.233,3.154,0.909,3.383,2.55
				c0.234,1.646-0.911,3.161-2.55,3.39C774.881,1408.052,773.362,1406.904,773.14,1405.267z"/>
			<line fill="none" x1="775.654" y1="1404.283" x2="521.994" y2="1085.369"/>
		</g>
	</g>
	<g>
		<path d="M513.224,1091.104c-0.284-1.629,0.806-3.188,2.438-3.473c1.627-0.29,3.187,0.795,3.475,2.428
			c0.289,1.635-0.801,3.192-2.43,3.48C515.071,1093.82,513.514,1092.732,513.224,1091.104z"/>
		<g>
			<path d="M778.643,1400.833c-0.292-1.632,0.797-3.19,2.43-3.477c1.627-0.291,3.184,0.798,3.47,2.43
				c0.291,1.636-0.801,3.19-2.431,3.477C780.479,1403.556,778.922,1402.462,778.643,1400.833z"/>
			<line fill="none" x1="781.121" y1="1399.763" x2="516.485" y2="1089.896"/>
		</g>
	</g>
	<g>
		<path d="M507.92,1095.932c-0.341-1.617,0.694-3.213,2.315-3.555c1.616-0.347,3.212,0.684,3.557,2.305
			c0.346,1.623-0.689,3.219-2.306,3.563C509.861,1098.584,508.267,1097.55,507.92,1095.932z"/>
		<g>
			<path d="M783.987,1396.21c-0.35-1.621,0.685-3.216,2.307-3.56c1.616-0.347,3.21,0.687,3.552,2.308
				c0.349,1.625-0.688,3.217-2.308,3.56C785.918,1398.867,784.322,1397.828,783.987,1396.21z"/>
			<line fill="none" x1="786.427" y1="1395.054" x2="511.138" y2="1094.611"/>
		</g>
	</g>
	<g>
		<path d="M502.789,1100.942c-0.397-1.604,0.582-3.235,2.19-3.633c1.603-0.403,3.234,0.571,3.635,2.179
			c0.402,1.609-0.576,3.24-2.181,3.643C504.821,1103.525,503.192,1102.547,502.789,1100.942z"/>
		<g>
			<path d="M789.167,1391.403c-0.406-1.607,0.572-3.237,2.181-3.638c1.604-0.402,3.232,0.574,3.631,2.183
				c0.404,1.611-0.576,3.238-2.182,3.638C791.189,1393.991,789.559,1393.009,789.167,1391.403z"/>
			<line fill="none" x1="791.564" y1="1390.163" x2="505.958" y2="1099.511"/>
		</g>
	</g>
	<g>
		<path d="M497.835,1106.129c-0.453-1.59,0.468-3.254,2.062-3.706c1.588-0.46,3.252,0.458,3.709,2.05
			c0.458,1.594-0.463,3.258-2.053,3.717C499.956,1108.641,498.294,1107.719,497.835,1106.129z"/>
		<g>
			<path d="M794.176,1386.419c-0.462-1.593,0.459-3.256,2.053-3.712c1.588-0.457,3.25,0.461,3.704,2.055
				c0.461,1.597-0.463,3.257-2.053,3.712C796.287,1388.936,794.623,1388.01,794.176,1386.419z"/>
			<line fill="none" x1="796.528" y1="1385.096" x2="500.953" y2="1104.588"/>
		</g>
	</g>
	<g>
		<path d="M493.065,1111.486c-0.508-1.574,0.354-3.27,1.931-3.777c1.571-0.514,3.266,0.346,3.779,1.92
			c0.513,1.576-0.349,3.271-1.922,3.787C495.272,1113.922,493.579,1113.059,493.065,1111.486z"/>
		<g>
			<path d="M799.008,1381.263c-0.518-1.576,0.345-3.27,1.922-3.78c1.571-0.513,3.264,0.346,3.773,1.923
				c0.517,1.58-0.349,3.271-1.922,3.782C801.206,1383.704,799.51,1382.837,799.008,1381.263z"/>
			<line fill="none" x1="801.312" y1="1379.858" x2="496.127" y2="1109.837"/>
		</g>
	</g>
	<g>
		<path d="M488.486,1117.006c-0.563-1.555,0.24-3.279,1.798-3.842c1.552-0.568,3.276,0.231,3.843,1.787
			c0.568,1.557-0.235,3.281-1.789,3.852C490.776,1119.363,489.054,1118.561,488.486,1117.006z"/>
		<g>
			<path d="M803.656,1375.94c-0.571-1.557,0.23-3.279,1.789-3.844c1.553-0.568,3.274,0.231,3.838,1.79
				c0.572,1.561-0.233,3.281-1.788,3.846C805.939,1378.305,804.214,1377.496,803.656,1375.94z"/>
			<line fill="none" x1="805.911" y1="1374.457" x2="491.488" y2="1115.252"/>
		</g>
	</g>
	<g>
		<path d="M484.102,1122.682c-0.617-1.533,0.125-3.285,1.663-3.901c1.532-0.622,3.282,0.117,3.903,1.652
			c0.622,1.536-0.12,3.287-1.653,3.911C486.473,1124.959,484.723,1124.216,484.102,1122.682z"/>
		<g>
			<path d="M808.117,1370.46c-0.626-1.535,0.115-3.285,1.653-3.904c1.531-0.621,3.28,0.117,3.897,1.655
				c0.627,1.54-0.118,3.287-1.652,3.906C810.481,1372.743,808.729,1371.995,808.117,1370.46z"/>
			<line fill="none" x1="810.318" y1="1368.899" x2="487.041" y2="1120.824"/>
		</g>
	</g>
	<g>
		<path d="M479.918,1128.508c-0.67-1.511,0.01-3.287,1.526-3.957c1.509-0.675,3.284,0.002,3.958,1.515
			c0.675,1.514-0.005,3.29-1.515,3.967C482.368,1130.701,480.593,1130.02,479.918,1128.508z"/>
		<g>
			<path d="M812.384,1364.827c-0.68-1.513,0-3.287,1.516-3.959c1.509-0.675,3.282,0.002,3.953,1.518
				c0.68,1.518-0.004,3.29-1.515,3.961C814.826,1367.026,813.048,1366.34,812.384,1364.827z"/>
			<line fill="none" x1="814.529" y1="1363.19" x2="482.791" y2="1126.549"/>
		</g>
	</g>
	<g>
		<path d="M475.94,1134.477c-0.723-1.486-0.104-3.286,1.387-4.008c1.485-0.728,3.282-0.113,4.01,1.375
			c0.728,1.49,0.109,3.289-1.376,4.018C478.465,1136.583,476.667,1135.963,475.94,1134.477z"/>
		<g>
			<path d="M816.451,1359.049c-0.732-1.487-0.115-3.285,1.377-4.01c1.483-0.727,3.28-0.112,4.003,1.379
				c0.732,1.493,0.111,3.288-1.375,4.012C818.969,1361.161,817.168,1360.538,816.451,1359.049z"/>
			<line fill="none" x1="818.538" y1="1357.339" x2="478.743" y2="1132.418"/>
		</g>
	</g>
	<g>
		<path d="M472.173,1140.58c-0.774-1.461-0.219-3.281,1.246-4.054c1.459-0.779,3.276-0.228,4.056,1.234
			c0.779,1.464,0.224,3.283-1.236,4.063C474.77,1142.598,472.952,1142.04,472.173,1140.58z"/>
		<g>
			<path d="M820.314,1353.132c-0.784-1.461-0.229-3.279,1.236-4.055c1.457-0.778,3.274-0.228,4.048,1.238
				c0.784,1.466,0.227,3.282-1.233,4.057C822.903,1355.155,821.083,1354.595,820.314,1353.132z"/>
			<line fill="none" x1="822.34" y1="1351.35" x2="474.903" y2="1138.426"/>
		</g>
	</g>
	<g>
		<path d="M468.621,1146.812c-0.824-1.434-0.333-3.272,1.104-4.096c1.431-0.83,3.266-0.342,4.096,1.092
			c0.829,1.436,0.338,3.273-1.093,4.104C471.287,1148.736,469.45,1148.244,468.621,1146.812z"/>
		<g>
			<path d="M823.969,1347.084c-0.835-1.433-0.344-3.27,1.094-4.095c1.429-0.829,3.265-0.342,4.089,1.096
				c0.835,1.438,0.341,3.272-1.091,4.097C826.627,1349.016,824.788,1348.519,823.969,1347.084z"/>
			<line fill="none" x1="825.931" y1="1345.231" x2="471.274" y2="1144.563"/>
		</g>
	</g>
	<g>
		<path d="M465.289,1153.164c-0.874-1.403-0.447-3.259,0.96-4.132c1.401-0.88,3.252-0.456,4.132,0.948
			c0.878,1.406,0.452,3.26-0.95,4.141C468.02,1154.994,466.167,1154.566,465.289,1153.164z"/>
		<g>
			<path d="M827.409,1340.912c-0.884-1.402-0.457-3.255,0.951-4.131c1.398-0.878,3.25-0.455,4.124,0.953
				c0.885,1.407,0.455,3.259-0.947,4.132C830.134,1342.75,828.278,1342.317,827.409,1340.912z"/>
			<line fill="none" x1="829.306" y1="1338.992" x2="467.862" y2="1150.824"/>
		</g>
	</g>
	<g>
		<path d="M462.181,1159.629c-0.922-1.373-0.561-3.242,0.815-4.164c1.37-0.928,3.234-0.568,4.163,0.805
			c0.927,1.374,0.566,3.241-0.805,4.17C464.974,1161.362,463.108,1160.999,462.181,1159.629z"/>
		<g>
			<path d="M830.633,1334.624c-0.933-1.37-0.57-3.236,0.807-4.162c1.366-0.926,3.231-0.568,4.154,0.81
				c0.934,1.375,0.568,3.241-0.803,4.162C833.42,1336.365,831.551,1335.998,830.633,1334.624z"/>
			<line fill="none" x1="832.461" y1="1332.64" x2="464.67" y2="1157.199"/>
		</g>
	</g>
	<g>
		<path d="M459.301,1166.197c-0.97-1.34-0.674-3.221,0.669-4.189c1.336-0.975,3.212-0.681,4.188,0.658
			c0.975,1.342,0.679,3.221-0.658,4.195C462.151,1167.832,460.274,1167.535,459.301,1166.197z"/>
		<g>
			<path d="M833.635,1328.228c-0.979-1.338-0.683-3.215,0.661-4.188c1.333-0.973,3.21-0.68,4.18,0.665
				c0.981,1.341,0.682,3.219-0.656,4.187C836.48,1329.869,834.601,1329.568,833.635,1328.228z"/>
			<line fill="none" x1="835.393" y1="1326.181" x2="461.703" y2="1163.682"/>
		</g>
	</g>
	<g>
		<path d="M456.651,1172.863c-1.017-1.307-0.786-3.195,0.522-4.211c1.302-1.021,3.186-0.793,4.208,0.512
			c1.021,1.307,0.791,3.195-0.511,4.215C459.557,1174.396,457.671,1174.166,456.651,1172.863z"/>
		<g>
			<path d="M836.412,1321.73c-1.026-1.304-0.795-3.189,0.514-4.21c1.299-1.018,3.185-0.791,4.201,0.52
				c1.027,1.306,0.793,3.192-0.51,4.206C839.313,1323.271,837.424,1323.036,836.412,1321.73z"/>
			<line fill="none" x1="838.097" y1="1319.623" x2="458.964" y2="1170.264"/>
		</g>
	</g>
	<g>
		<path d="M454.235,1179.616c-1.062-1.271-0.897-3.166,0.375-4.226c1.265-1.066,3.156-0.904,4.223,0.364
			c1.066,1.271,0.902,3.166-0.364,4.229C457.193,1181.047,455.3,1180.883,454.235,1179.616z"/>
		<g>
			<path d="M838.961,1315.141c-1.071-1.269-0.906-3.16,0.366-4.227c1.263-1.062,3.155-0.901,4.217,0.373
				c1.072,1.269,0.904,3.163-0.363,4.221C841.914,1316.579,840.018,1316.409,838.961,1315.141z"/>
			<line fill="none" x1="840.571" y1="1312.975" x2="456.457" y2="1176.938"/>
		</g>
	</g>
	<g>
		<path d="M452.057,1186.449c-1.105-1.232-1.007-3.133,0.228-4.235c1.227-1.109,3.123-1.015,4.233,0.217
			c1.11,1.232,1.012,3.133-0.216,4.239C455.063,1187.775,453.166,1187.678,452.057,1186.449z"/>
		<g>
			<path d="M841.277,1308.465c-1.114-1.23-1.016-3.126,0.219-4.237c1.225-1.104,3.122-1.01,4.228,0.227
				c1.115,1.229,1.015,3.129-0.216,4.23C844.279,1309.8,842.378,1309.696,841.277,1308.465z"/>
			<line fill="none" x1="842.812" y1="1306.244" x2="454.184" y2="1183.695"/>
		</g>
	</g>
	<g>
		<path d="M450.118,1193.355c-1.147-1.193-1.116-3.097,0.08-4.241c1.188-1.151,3.085-1.124,4.238,0.068
			c1.152,1.193,1.121,3.097-0.068,4.245C453.168,1194.575,451.269,1194.543,450.118,1193.355z"/>
		<g>
			<path d="M843.36,1301.713c-1.157-1.191-1.124-3.089,0.07-4.242c1.186-1.147,3.085-1.119,4.232,0.078
				c1.158,1.19,1.124,3.092-0.067,4.236C846.406,1302.941,844.503,1302.904,843.36,1301.713z"/>
			<line fill="none" x1="844.815" y1="1299.439" x2="452.148" y2="1190.528"/>
		</g>
	</g>
	<g>
		<path d="M448.422,1200.324c-1.188-1.152-1.223-3.055-0.068-4.242c1.147-1.191,3.044-1.23,4.238-0.079
			c1.193,1.153,1.228,3.056,0.08,4.245C451.513,1201.438,449.613,1201.471,448.422,1200.324z"/>
		<g>
			<path d="M845.206,1294.892c-1.198-1.149-1.231-3.048-0.078-4.241c1.145-1.189,3.044-1.227,4.233-0.07
				c1.198,1.149,1.23,3.051,0.08,4.236C848.293,1296.014,846.39,1296.043,845.206,1294.892z"/>
			<line fill="none" x1="846.581" y1="1292.568" x2="450.352" y2="1197.428"/>
		</g>
	</g>
	<g>
		<path d="M446.97,1207.348c-1.228-1.109-1.329-3.01-0.216-4.236c1.104-1.23,3-1.336,4.232-0.228
			c1.233,1.11,1.334,3.011,0.228,4.239C450.098,1208.354,448.2,1208.453,446.97,1207.348z"/>
		<g>
			<path d="M846.812,1288.01c-1.237-1.106-1.337-3.003-0.226-4.235c1.102-1.229,2.999-1.332,4.228-0.218
				c1.238,1.106,1.337,3.006,0.229,4.23C849.937,1289.024,848.035,1289.12,846.812,1288.01z"/>
			<line fill="none" x1="848.105" y1="1285.641" x2="448.797" y2="1204.386"/>
		</g>
	</g>
	<g>
		<path d="M445.764,1214.418c-1.266-1.065-1.434-2.961-0.364-4.226c1.061-1.269,2.951-1.44,4.222-0.376
			c1.271,1.066,1.439,2.963,0.376,4.229C448.925,1215.314,447.032,1215.479,445.764,1214.418z"/>
		<g>
			<path d="M848.178,1281.077c-1.275-1.063-1.441-2.954-0.373-4.226c1.059-1.266,2.95-1.436,4.218-0.365
				c1.275,1.062,1.44,2.958,0.375,4.221C851.336,1281.981,849.438,1282.144,848.178,1281.077z"/>
			<line fill="none" x1="849.388" y1="1278.664" x2="447.486" y2="1211.395"/>
		</g>
	</g>
	<g>
		<path d="M444.805,1221.526c-1.303-1.021-1.536-2.909-0.512-4.211c1.016-1.304,2.899-1.542,4.206-0.522
			c1.308,1.021,1.542,2.911,0.523,4.213C447.996,1222.312,446.109,1222.543,444.805,1221.526z"/>
		<g>
			<path d="M849.301,1274.101c-1.312-1.019-1.544-2.901-0.521-4.21c1.015-1.303,2.899-1.538,4.203-0.512
				c1.312,1.017,1.543,2.905,0.522,4.204C852.488,1274.894,850.598,1275.122,849.301,1274.101z"/>
			<line fill="none" x1="850.425" y1="1271.646" x2="446.421" y2="1218.443"/>
		</g>
	</g>
	<g>
		<path d="M444.095,1228.664c-1.337-0.975-1.637-2.854-0.658-4.191c0.969-1.338,2.843-1.642,4.185-0.668
			c1.343,0.975,1.642,2.855,0.67,4.191C447.311,1229.338,445.434,1229.634,444.095,1228.664z"/>
		<g>
			<path d="M850.18,1267.089c-1.348-0.972-1.645-2.846-0.669-4.188c0.969-1.338,2.845-1.639,4.183-0.658
				c1.347,0.971,1.644,2.849,0.669,4.184C853.393,1267.771,851.511,1268.064,850.18,1267.089z"/>
			<line fill="none" x1="851.217" y1="1264.598" x2="445.602" y2="1225.525"/>
		</g>
	</g>
	<g>
		<path d="M443.635,1235.822c-1.371-0.928-1.735-2.795-0.804-4.166c0.922-1.371,2.784-1.74,4.16-0.813s1.741,2.796,0.815,4.165
			C446.872,1236.383,445.006,1236.744,443.635,1235.822z"/>
		<g>
			<path d="M850.812,1260.051c-1.381-0.924-1.742-2.787-0.814-4.162c0.922-1.371,2.786-1.737,4.157-0.804
				c1.38,0.923,1.742,2.789,0.814,4.157C854.047,1260.619,852.177,1260.979,850.812,1260.051z"/>
			<line fill="none" x1="851.763" y1="1257.525" x2="445.031" y2="1232.633"/>
		</g>
	</g>
	<g>
		<path d="M443.424,1242.991c-1.402-0.879-1.832-2.732-0.949-4.135c0.874-1.402,2.721-1.837,4.128-0.958
			c1.407,0.878,1.837,2.733,0.96,4.134C446.68,1243.439,444.827,1243.865,443.424,1242.991z"/>
		<g>
			<path d="M851.2,1252.995c-1.413-0.875-1.839-2.725-0.96-4.131c0.874-1.402,2.724-1.833,4.127-0.948
				c1.411,0.874,1.838,2.726,0.959,4.127C854.452,1253.451,852.596,1253.875,851.2,1252.995z"/>
			<line fill="none" x1="852.061" y1="1250.438" x2="444.709" y2="1239.756"/>
		</g>
	</g>
	<g>
		<path d="M443.464,1250.164c-1.432-0.83-1.926-2.668-1.093-4.1c0.825-1.432,2.656-1.932,4.093-1.102
			c1.437,0.828,1.931,2.668,1.104,4.098C446.733,1250.498,444.896,1250.988,443.464,1250.164z"/>
		<g>
			<path d="M851.341,1245.93c-1.442-0.824-1.933-2.658-1.104-4.094c0.824-1.433,2.658-1.928,4.091-1.092
				c1.441,0.824,1.933,2.659,1.103,4.09C854.606,1246.272,852.766,1246.761,851.341,1245.93z"/>
			<line fill="none" x1="852.111" y1="1243.346" x2="444.635" y2="1246.886"/>
		</g>
	</g>
	<g>
		<path d="M443.755,1257.33c-1.46-0.779-2.018-2.599-1.235-4.059c0.774-1.459,2.586-2.023,4.052-1.244
			c1.465,0.778,2.023,2.6,1.246,4.057C447.033,1257.551,445.214,1258.104,443.755,1257.33z"/>
		<g>
			<path d="M851.234,1238.864c-1.47-0.774-2.024-2.589-1.245-4.054c0.773-1.46,2.589-2.018,4.05-1.233
				c1.47,0.774,2.024,2.59,1.245,4.05C854.511,1239.094,852.688,1239.645,851.234,1238.864z"/>
			<line fill="none" x1="851.915" y1="1236.254" x2="444.81" y2="1254.014"/>
		</g>
	</g>
	<g>
		<path d="M444.295,1264.482c-1.487-0.729-2.108-2.527-1.376-4.014c0.722-1.484,2.514-2.111,4.006-1.385
			c1.491,0.728,2.112,2.527,1.387,4.012C447.579,1264.589,445.781,1265.205,444.295,1264.482z"/>
		<g>
			<path d="M850.882,1231.807c-1.496-0.723-2.113-2.517-1.386-4.008c0.722-1.486,2.517-2.106,4.004-1.373
				c1.496,0.722,2.114,2.517,1.386,4.003C854.164,1231.922,852.361,1232.536,850.882,1231.807z"/>
			<line fill="none" x1="851.471" y1="1229.174" x2="445.234" y2="1261.131"/>
		</g>
	</g>
	<g>
		<path d="M445.085,1271.611c-1.512-0.676-2.195-2.452-1.516-3.963c0.67-1.509,2.438-2.198,3.955-1.523
			c1.515,0.674,2.199,2.451,1.526,3.96C448.37,1271.604,446.595,1272.281,445.085,1271.611z"/>
		<g>
			<path d="M850.283,1224.766c-1.521-0.67-2.2-2.441-1.525-3.957c0.67-1.511,2.442-2.192,3.954-1.512
				c1.521,0.67,2.201,2.441,1.524,3.953C853.567,1224.767,851.787,1225.443,850.283,1224.766z"/>
			<line fill="none" x1="850.78" y1="1222.113" x2="445.906" y2="1268.229"/>
		</g>
	</g>
	<g>
		<path d="M446.123,1278.709c-1.534-0.623-2.279-2.375-1.653-3.908c0.617-1.531,2.36-2.281,3.899-1.661
			c1.538,0.621,2.283,2.374,1.663,3.905C449.406,1278.586,447.655,1279.324,446.123,1278.709z"/>
		<g>
			<path d="M849.439,1217.75c-1.543-0.617-2.284-2.363-1.663-3.9c0.617-1.535,2.364-2.277,3.899-1.65
				c1.543,0.617,2.285,2.363,1.661,3.898C852.722,1217.637,850.966,1218.375,849.439,1217.75z"/>
			<line fill="none" x1="849.844" y1="1215.082" x2="446.825" y2="1275.299"/>
		</g>
	</g>
	<g>
		<path d="M447.408,1285.766c-1.556-0.569-2.361-2.294-1.789-3.848c0.563-1.553,2.279-2.363,3.839-1.797
			c1.559,0.567,2.364,2.293,1.798,3.844C450.684,1285.528,448.96,1286.326,447.408,1285.766z"/>
		<g>
			<path d="M848.351,1210.768c-1.563-0.562-2.365-2.281-1.798-3.84c0.563-1.555,2.284-2.358,3.84-1.785
				c1.563,0.563,2.366,2.281,1.796,3.838C851.627,1210.541,849.898,1211.34,848.351,1210.768z"/>
			<line fill="none" x1="848.662" y1="1208.088" x2="447.991" y2="1282.333"/>
		</g>
	</g>
	<g>
		<path d="M448.938,1292.773c-1.575-0.516-2.44-2.211-1.922-3.783c0.508-1.572,2.195-2.441,3.774-1.93
			c1.577,0.512,2.443,2.209,1.931,3.778C452.204,1292.422,450.509,1293.279,448.938,1292.773z"/>
		<g>
			<path d="M847.02,1203.828c-1.582-0.508-2.443-2.197-1.931-3.775c0.509-1.573,2.2-2.436,3.774-1.918
				c1.582,0.509,2.444,2.197,1.929,3.773C850.286,1203.487,848.586,1204.346,847.02,1203.828z"/>
			<line fill="none" x1="847.237" y1="1201.139" x2="449.401" y2="1289.322"/>
		</g>
	</g>
	<g>
		<path d="M450.712,1299.723c-1.592-0.46-2.516-2.124-2.053-3.713c0.453-1.59,2.109-2.517,3.705-2.061
			c1.594,0.456,2.519,2.122,2.062,3.709C453.964,1299.258,452.3,1300.174,450.712,1299.723z"/>
		<g>
			<path d="M845.446,1196.939c-1.599-0.453-2.519-2.11-2.061-3.707c0.453-1.59,2.113-2.51,3.705-2.047
				c1.599,0.452,2.52,2.109,2.06,3.703C848.699,1196.484,847.03,1197.402,845.446,1196.939z"/>
			<line fill="none" x1="845.57" y1="1194.244" x2="451.054" y2="1296.258"/>
		</g>
	</g>
	<g>
		<path d="M452.728,1306.605c-1.607-0.403-2.588-2.034-2.182-3.638c0.398-1.604,2.02-2.589,3.631-2.188
			c1.609,0.4,2.591,2.032,2.189,3.635C455.961,1306.028,454.33,1307.002,452.728,1306.605z"/>
		<g>
			<path d="M843.634,1190.109c-1.613-0.396-2.59-2.021-2.188-3.633c0.397-1.604,2.024-2.582,3.632-2.175
				c1.613,0.396,2.591,2.021,2.188,3.63C846.869,1189.541,845.233,1190.517,843.634,1190.109z"/>
			<line fill="none" x1="843.664" y1="1187.411" x2="452.948" y2="1303.131"/>
		</g>
	</g>
	<g>
		<path d="M454.982,1313.414c-1.62-0.347-2.658-1.942-2.307-3.56c0.342-1.617,1.929-2.657,3.553-2.313
			c1.622,0.344,2.66,1.94,2.315,3.556C458.193,1312.725,456.597,1313.755,454.982,1313.414z"/>
		<g>
			<path d="M841.585,1183.348c-1.627-0.341-2.659-1.931-2.314-3.555c0.341-1.617,1.933-2.65,3.554-2.301
				c1.626,0.34,2.66,1.93,2.312,3.551C844.798,1182.666,843.197,1183.697,841.585,1183.348z"/>
			<line fill="none" x1="841.521" y1="1180.648" x2="455.081" y2="1309.934"/>
		</g>
	</g>
	<g>
		<path d="M457.473,1320.141c-1.631-0.29-2.724-1.849-2.43-3.478c0.285-1.628,1.835-2.723,3.47-2.437
			c1.633,0.287,2.726,1.847,2.438,3.473C460.658,1319.339,459.099,1320.425,457.473,1320.141z"/>
		<g>
			<path d="M839.301,1176.66c-1.638-0.283-2.725-1.836-2.438-3.471c0.285-1.629,1.84-2.717,3.472-2.424
				c1.637,0.283,2.726,1.836,2.436,3.467C842.488,1175.867,840.924,1176.954,839.301,1176.66z"/>
			<line fill="none" x1="839.142" y1="1173.966" x2="457.449" y2="1316.658"/>
		</g>
	</g>
	<g>
		<path d="M460.196,1326.776c-1.64-0.233-2.787-1.753-2.55-3.391c0.228-1.638,1.739-2.786,3.383-2.557
			c1.642,0.229,2.789,1.75,2.558,3.385C463.352,1325.863,461.831,1327.003,460.196,1326.776z"/>
		<g>
			<path d="M836.784,1170.057c-1.646-0.226-2.787-1.74-2.557-3.383c0.229-1.639,1.744-2.779,3.385-2.543
				c1.646,0.226,2.788,1.739,2.556,3.379C839.942,1169.154,838.417,1170.295,836.784,1170.057z"/>
			<line fill="none" x1="836.531" y1="1167.37" x2="460.051" y2="1323.297"/>
		</g>
	</g>
	<g>
		<path d="M463.15,1333.312c-1.647-0.175-2.846-1.653-2.667-3.299c0.171-1.645,1.641-2.846,3.292-2.673
			c1.649,0.172,2.848,1.651,2.674,3.293C466.271,1332.29,464.792,1333.481,463.15,1333.312z"/>
		<g>
			<path d="M834.039,1163.545c-1.653-0.168-2.846-1.642-2.673-3.291c0.171-1.646,1.646-2.839,3.294-2.66
				c1.652,0.169,2.847,1.642,2.672,3.289C837.164,1162.533,835.679,1163.727,834.039,1163.545z"/>
			<line fill="none" x1="833.692" y1="1160.869" x2="462.884" y2="1329.841"/>
		</g>
	</g>
	<g>
		<path d="M466.33,1339.74c-1.652-0.117-2.902-1.553-2.779-3.204c0.113-1.649,1.54-2.9,3.196-2.785
			c1.654,0.114,2.904,1.551,2.787,3.197C469.414,1338.61,467.977,1339.853,466.33,1339.74z"/>
		<g>
			<path d="M831.068,1157.133c-1.658-0.109-2.901-1.541-2.786-3.195c0.113-1.651,1.546-2.895,3.199-2.773
				c1.657,0.111,2.902,1.541,2.785,3.193C834.156,1156.014,832.714,1157.258,831.068,1157.133z"/>
			<line fill="none" x1="830.629" y1="1154.471" x2="465.943" y2="1336.281"/>
		</g>
	</g>
	<g>
		<path d="M469.732,1346.054c-1.655-0.06-2.954-1.45-2.889-3.104c0.055-1.653,1.438-2.953,3.097-2.896
			c1.657,0.057,2.956,1.449,2.896,3.099C472.775,1344.817,471.382,1346.108,469.732,1346.054z"/>
		<g>
			<path d="M827.876,1150.828c-1.661-0.051-2.953-1.438-2.896-3.096c0.056-1.654,1.444-2.946,3.101-2.883
				c1.66,0.053,2.954,1.438,2.895,3.094C830.923,1149.603,829.524,1150.896,827.876,1150.828z"/>
			<line fill="none" x1="827.344" y1="1148.184" x2="469.225" y2="1342.611"/>
		</g>
	</g>
</g>
<line fill="none" stroke="#000000" stroke-width="2" x1="1023.811" y1="1024" x2="1024" y2="-0.002"/>
<line fill="none" stroke="#000000" stroke-width="2" x1="1023.811" y1="1024" x2="1024" y2="2048"/>
<line fill="none" stroke="#000000" stroke-width="2" x1="928.842" y1="224" x2="1118.842" y2="224"/>
<line fill="none" stroke="#000000" stroke-width="2" x1="943.689" y1="1469" x2="1103.087" y2="1469"/>
<line fill="none" stroke="#000000" stroke-width="2" x1="944.095" y1="1913" x2="1103.493" y2="1913"/>
<path fill="none" stroke="#000000" d="M853,1246.001C853,1133.334,761.665,1042,649,1042c-112.669,0-204,91.334-204,204.001
	C445,1358.666,536.331,1450,649,1450C761.665,1450,853,1358.666,853,1246.001z"/>
</svg>
