<?xml version="1.0" encoding="utf-8"?>
<!-- Generator: Adobe Illustrator 14.0.0, SVG Export Plug-In . SVG Version: 6.00 Build 43363)  -->
<!DOCTYPE svg PUBLIC "-//W3C//DTD SVG 1.1//EN" "http://www.w3.org/Graphics/SVG/1.1/DTD/svg11.dtd">
<svg version="1.1" xmlns="http://www.w3.org/2000/svg" xmlns:xlink="http://www.w3.org/1999/xlink" x="0px" y="0px" width="2048px"
	 height="2048px" viewBox="0 0 2048 2048" enable-background="new 0 0 2048 2048" xml:space="preserve">
<g id="Layer_1">
	<g id="Layer_2">
		
			<image overflow="visible" enable-background="new    " width="2048" height="2048" xlink:href="brassfeb.jpg"  transform="matrix(1 0 0 1 0 -0.002)">
		</image>
	</g>
</g>
<g id="Layer_2_1_" display="none">
	<g id="Layer_1_1_" display="inline">
		<ellipse fill="none" stroke="#662D91" stroke-width="3" cx="1024" cy="1024" rx="961.059" ry="1000"/>
		<ellipse fill="none" stroke="#662D91" stroke-width="3" cx="1024" cy="1024" rx="910" ry="946.873"/>
	</g>
</g>
<g id="Layer_3">
	<g>
		<defs>
			<path id="SVGID_1_" d="M51.2,51.2v1945.6h1945.6V51.2H51.2z M1024,1950.25c-511.555,0-926.25-414.695-926.25-926.25
				c0-511.554,414.695-926.25,926.25-926.25c511.553,0,926.25,414.696,926.25,926.25
				C1950.25,1535.555,1535.553,1950.25,1024,1950.25z"/>
		</defs>
		<clipPath id="SVGID_2_">
			<use xlink:href="#SVGID_1_"  overflow="visible"/>
		</clipPath>
		<line clip-path="url(#SVGID_2_)" fill="none" stroke="#000000" stroke-width="2" x1="1024" y1="51.2" x2="1024" y2="1996.8"/>
		
			<line clip-path="url(#SVGID_2_)" fill="none" stroke="#000000" stroke-width="2" x1="939.214" y1="54.902" x2="1108.785" y2="1993.099"/>
		
			<line clip-path="url(#SVGID_2_)" fill="none" stroke="#000000" stroke-width="2" x1="855.075" y1="65.979" x2="1192.924" y2="1982.021"/>
		
			<line clip-path="url(#SVGID_2_)" fill="none" stroke="#000000" stroke-width="2" x1="772.22" y1="84.348" x2="1275.777" y2="1963.653"/>
		
			<line clip-path="url(#SVGID_2_)" fill="none" stroke="#000000" stroke-width="2" x1="691.282" y1="109.868" x2="1356.715" y2="1938.134"/>
		
			<line clip-path="url(#SVGID_2_)" fill="none" stroke="#000000" stroke-width="2" x1="612.875" y1="142.345" x2="1435.121" y2="1905.656"/>
		
			<line clip-path="url(#SVGID_2_)" fill="none" stroke="#000000" stroke-width="2" x1="537.598" y1="181.532" x2="1510.398" y2="1866.471"/>
		
			<line clip-path="url(#SVGID_2_)" fill="none" stroke="#000000" stroke-width="2" x1="466.022" y1="227.13" x2="1581.973" y2="1820.873"/>
		
			<line clip-path="url(#SVGID_2_)" fill="none" stroke="#000000" stroke-width="2" x1="398.694" y1="278.794" x2="1649.302" y2="1769.21"/>
		
			<line clip-path="url(#SVGID_2_)" fill="none" stroke="#000000" stroke-width="2" x1="336.125" y1="336.129" x2="1711.87" y2="1711.876"/>
		
			<line clip-path="url(#SVGID_2_)" fill="none" stroke="#000000" stroke-width="2" x1="278.79" y1="398.699" x2="1769.205" y2="1649.306"/>
		
			<line clip-path="url(#SVGID_2_)" fill="none" stroke="#000000" stroke-width="2" x1="227.127" y1="466.028" x2="1820.868" y2="1581.978"/>
		
			<line clip-path="url(#SVGID_2_)" fill="none" stroke="#000000" stroke-width="2" x1="181.528" y1="537.604" x2="1866.467" y2="1510.402"/>
		
			<line clip-path="url(#SVGID_2_)" fill="none" stroke="#000000" stroke-width="2" x1="142.342" y1="612.881" x2="1905.653" y2="1435.126"/>
		
			<line clip-path="url(#SVGID_2_)" fill="none" stroke="#000000" stroke-width="2" x1="109.865" y1="691.287" x2="1938.13" y2="1356.721"/>
		
			<line clip-path="url(#SVGID_2_)" fill="none" stroke="#000000" stroke-width="2" x1="84.345" y1="772.226" x2="1963.649" y2="1275.783"/>
		
			<line clip-path="url(#SVGID_2_)" fill="none" stroke="#000000" stroke-width="2" x1="65.977" y1="855.08" x2="1982.018" y2="1192.93"/>
		
			<line clip-path="url(#SVGID_2_)" fill="none" stroke="#000000" stroke-width="2" x1="54.9" y1="939.221" x2="1993.095" y2="1108.789"/>
		
			<line clip-path="url(#SVGID_2_)" fill="none" stroke="#000000" stroke-width="2" x1="51.198" y1="1024.006" x2="1996.796" y2="1024.005"/>
		
			<line clip-path="url(#SVGID_2_)" fill="none" stroke="#000000" stroke-width="2" x1="54.9" y1="1108.791" x2="1993.095" y2="939.22"/>
		
			<line clip-path="url(#SVGID_2_)" fill="none" stroke="#000000" stroke-width="2" x1="65.978" y1="1192.932" x2="1982.018" y2="855.081"/>
		
			<line clip-path="url(#SVGID_2_)" fill="none" stroke="#000000" stroke-width="2" x1="84.346" y1="1275.785" x2="1963.649" y2="772.227"/>
		
			<line clip-path="url(#SVGID_2_)" fill="none" stroke="#000000" stroke-width="2" x1="109.866" y1="1356.724" x2="1938.13" y2="691.289"/>
		
			<line clip-path="url(#SVGID_2_)" fill="none" stroke="#000000" stroke-width="2" x1="142.343" y1="1435.129" x2="1905.653" y2="612.883"/>
		
			<line clip-path="url(#SVGID_2_)" fill="none" stroke="#000000" stroke-width="2" x1="181.53" y1="1510.406" x2="1866.467" y2="537.606"/>
		
			<line clip-path="url(#SVGID_2_)" fill="none" stroke="#000000" stroke-width="2" x1="227.128" y1="1581.982" x2="1820.868" y2="466.032"/>
		
			<line clip-path="url(#SVGID_2_)" fill="none" stroke="#000000" stroke-width="2" x1="278.792" y1="1649.311" x2="1769.205" y2="398.704"/>
		
			<line clip-path="url(#SVGID_2_)" fill="none" stroke="#000000" stroke-width="2" x1="336.127" y1="1711.88" x2="1711.87" y2="336.134"/>
		
			<line clip-path="url(#SVGID_2_)" fill="none" stroke="#000000" stroke-width="2" x1="398.697" y1="1769.214" x2="1649.302" y2="278.8"/>
		
			<line clip-path="url(#SVGID_2_)" fill="none" stroke="#000000" stroke-width="2" x1="466.025" y1="1820.877" x2="1581.973" y2="227.137"/>
		
			<line clip-path="url(#SVGID_2_)" fill="none" stroke="#000000" stroke-width="2" x1="537.601" y1="1866.475" x2="1510.398" y2="181.539"/>
		
			<line clip-path="url(#SVGID_2_)" fill="none" stroke="#000000" stroke-width="2" x1="612.878" y1="1905.661" x2="1435.122" y2="142.353"/>
		
			<line clip-path="url(#SVGID_2_)" fill="none" stroke="#000000" stroke-width="2" x1="691.284" y1="1938.139" x2="1356.717" y2="109.875"/>
		
			<line clip-path="url(#SVGID_2_)" fill="none" stroke="#000000" stroke-width="2" x1="772.222" y1="1963.657" x2="1275.779" y2="84.356"/>
		
			<line clip-path="url(#SVGID_2_)" fill="none" stroke="#000000" stroke-width="2" x1="855.076" y1="1982.026" x2="1192.926" y2="65.988"/>
		
			<line clip-path="url(#SVGID_2_)" fill="none" stroke="#000000" stroke-width="2" x1="939.216" y1="1993.104" x2="1108.787" y2="54.911"/>
		<g id="Layer_1_2_" clip-path="url(#SVGID_2_)">
			<g id="Layer_2_2_" display="none">
				<circle display="inline" fill="none" stroke="#000000" stroke-width="2" cx="1024" cy="1024" r="945.25"/>
			</g>
			<line fill="none" stroke="#000000" stroke-width="2" x1="1024" y1="78.75" x2="1024" y2="1968.894"/>
			<line fill="none" stroke="#000000" stroke-width="2" x1="1007.507" y1="78.894" x2="1040.493" y2="1968.751"/>
			<line fill="none" stroke="#000000" stroke-width="2" x1="991.016" y1="79.326" x2="1056.98" y2="1968.319"/>
			<line fill="none" stroke="#000000" stroke-width="2" x1="974.538" y1="80.046" x2="1073.459" y2="1967.601"/>
			<line fill="none" stroke="#000000" stroke-width="2" x1="958.073" y1="81.053" x2="1089.923" y2="1966.593"/>
			<line fill="none" stroke="#000000" stroke-width="2" x1="941.628" y1="82.347" x2="1106.366" y2="1965.299"/>
			<line fill="none" stroke="#000000" stroke-width="2" x1="925.21" y1="83.928" x2="1122.784" y2="1963.717"/>
			<line fill="none" stroke="#000000" stroke-width="2" x1="908.822" y1="85.796" x2="1139.172" y2="1961.852"/>
			<line fill="none" stroke="#000000" stroke-width="2" x1="892.468" y1="87.948" x2="1155.527" y2="1959.7"/>
			<line fill="none" stroke="#000000" stroke-width="2" x1="876.154" y1="90.387" x2="1171.838" y2="1957.261"/>
			<line fill="none" stroke="#000000" stroke-width="2" x1="859.886" y1="93.109" x2="1188.105" y2="1954.54"/>
			<line fill="none" stroke="#000000" stroke-width="2" x1="843.667" y1="96.116" x2="1204.324" y2="1951.533"/>
			<line fill="none" stroke="#000000" stroke-width="2" x1="827.504" y1="99.405" x2="1220.488" y2="1948.245"/>
			<line fill="none" stroke="#000000" stroke-width="2" x1="811.4" y1="102.974" x2="1236.592" y2="1944.676"/>
			<line fill="none" stroke="#000000" stroke-width="2" x1="795.361" y1="106.825" x2="1252.631" y2="1940.825"/>
			<line fill="none" stroke="#000000" stroke-width="2" x1="779.392" y1="110.956" x2="1268.6" y2="1936.696"/>
			<line fill="none" stroke="#000000" stroke-width="2" x1="763.497" y1="115.363" x2="1284.493" y2="1932.287"/>
			<line fill="none" stroke="#000000" stroke-width="2" x1="747.681" y1="120.048" x2="1300.309" y2="1927.604"/>
			<line fill="none" stroke="#000000" stroke-width="2" x1="731.95" y1="125.008" x2="1316.039" y2="1922.645"/>
			<line fill="none" stroke="#000000" stroke-width="2" x1="716.308" y1="130.242" x2="1331.68" y2="1917.411"/>
			<line fill="none" stroke="#000000" stroke-width="2" x1="700.76" y1="135.748" x2="1347.229" y2="1911.905"/>
			<line fill="none" stroke="#000000" stroke-width="2" x1="685.31" y1="141.525" x2="1362.679" y2="1906.128"/>
			<line fill="none" stroke="#000000" stroke-width="2" x1="669.963" y1="147.57" x2="1378.025" y2="1900.083"/>
			<line fill="none" stroke="#000000" stroke-width="2" x1="654.724" y1="153.882" x2="1393.264" y2="1893.771"/>
			<line fill="none" stroke="#000000" stroke-width="2" x1="639.597" y1="160.459" x2="1408.391" y2="1887.192"/>
			<line fill="none" stroke="#000000" stroke-width="2" x1="624.588" y1="167.299" x2="1423.4" y2="1880.354"/>
			<line fill="none" stroke="#000000" stroke-width="2" x1="609.7" y1="174.401" x2="1438.287" y2="1873.252"/>
			<line fill="none" stroke="#000000" stroke-width="2" x1="594.938" y1="181.761" x2="1453.048" y2="1865.893"/>
			<line fill="none" stroke="#000000" stroke-width="2" x1="580.307" y1="189.378" x2="1467.68" y2="1858.276"/>
			<line fill="none" stroke="#000000" stroke-width="2" x1="565.812" y1="197.247" x2="1482.175" y2="1850.405"/>
			<line fill="none" stroke="#000000" stroke-width="2" x1="551.456" y1="205.37" x2="1496.53" y2="1842.284"/>
			<line fill="none" stroke="#000000" stroke-width="2" x1="537.243" y1="213.742" x2="1510.743" y2="1833.913"/>
			<line fill="none" stroke="#000000" stroke-width="2" x1="523.179" y1="222.361" x2="1524.805" y2="1825.295"/>
			<line fill="none" stroke="#000000" stroke-width="2" x1="509.268" y1="231.223" x2="1538.718" y2="1816.433"/>
			<line fill="none" stroke="#000000" stroke-width="2" x1="495.514" y1="240.328" x2="1552.471" y2="1807.329"/>
			<line fill="none" stroke="#000000" stroke-width="2" x1="481.919" y1="249.671" x2="1566.064" y2="1797.986"/>
			<line fill="none" stroke="#000000" stroke-width="2" x1="468.49" y1="259.25" x2="1579.492" y2="1788.408"/>
			<line fill="none" stroke="#000000" stroke-width="2" x1="455.232" y1="269.061" x2="1592.75" y2="1778.597"/>
			<line fill="none" stroke="#000000" stroke-width="2" x1="442.146" y1="279.103" x2="1605.838" y2="1768.556"/>
			<line fill="none" stroke="#000000" stroke-width="2" x1="429.237" y1="289.371" x2="1618.744" y2="1758.289"/>
			<line fill="none" stroke="#000000" stroke-width="2" x1="416.51" y1="299.863" x2="1631.473" y2="1747.797"/>
			<line fill="none" stroke="#000000" stroke-width="2" x1="403.967" y1="310.575" x2="1644.016" y2="1737.085"/>
			<line fill="none" stroke="#000000" stroke-width="2" x1="391.613" y1="321.505" x2="1656.368" y2="1726.155"/>
			<line fill="none" stroke="#000000" stroke-width="2" x1="379.452" y1="332.649" x2="1668.527" y2="1715.012"/>
			<line fill="none" stroke="#000000" stroke-width="2" x1="367.487" y1="344.003" x2="1680.493" y2="1703.659"/>
			<line fill="none" stroke="#000000" stroke-width="2" x1="355.723" y1="355.565" x2="1692.257" y2="1692.098"/>
			<line fill="none" stroke="#000000" stroke-width="2" x1="344.163" y1="367.33" x2="1703.817" y2="1680.333"/>
			<line fill="none" stroke="#000000" stroke-width="2" x1="332.807" y1="379.295" x2="1715.171" y2="1668.369"/>
			<line fill="none" stroke="#000000" stroke-width="2" x1="321.664" y1="391.457" x2="1726.314" y2="1656.208"/>
			<line fill="none" stroke="#000000" stroke-width="2" x1="310.734" y1="403.81" x2="1737.245" y2="1643.854"/>
			<line fill="none" stroke="#000000" stroke-width="2" x1="300.021" y1="416.354" x2="1747.957" y2="1631.312"/>
			<line fill="none" stroke="#000000" stroke-width="2" x1="289.531" y1="429.082" x2="1758.448" y2="1618.584"/>
			<line fill="none" stroke="#000000" stroke-width="2" x1="279.261" y1="441.99" x2="1768.717" y2="1605.676"/>
			<line fill="none" stroke="#000000" stroke-width="2" x1="269.221" y1="455.077" x2="1778.759" y2="1592.591"/>
			<line fill="none" stroke="#000000" stroke-width="2" x1="259.409" y1="468.336" x2="1788.569" y2="1579.333"/>
			<line fill="none" stroke="#000000" stroke-width="2" x1="249.831" y1="481.765" x2="1798.146" y2="1565.904"/>
			<line fill="none" stroke="#000000" stroke-width="2" x1="240.488" y1="495.359" x2="1807.488" y2="1552.311"/>
			<line fill="none" stroke="#000000" stroke-width="2" x1="231.385" y1="509.114" x2="1816.593" y2="1538.557"/>
			<line fill="none" stroke="#000000" stroke-width="2" x1="222.522" y1="523.025" x2="1825.455" y2="1524.646"/>
			<line fill="none" stroke="#000000" stroke-width="2" x1="213.904" y1="537.088" x2="1834.072" y2="1510.582"/>
			<line fill="none" stroke="#000000" stroke-width="2" x1="205.532" y1="551.301" x2="1842.444" y2="1496.37"/>
			<line fill="none" stroke="#000000" stroke-width="2" x1="197.41" y1="565.658" x2="1850.566" y2="1482.015"/>
			<line fill="none" stroke="#000000" stroke-width="2" x1="189.539" y1="580.153" x2="1858.438" y2="1467.521"/>
			<line fill="none" stroke="#000000" stroke-width="2" x1="181.922" y1="594.785" x2="1866.054" y2="1452.889"/>
			<line fill="none" stroke="#000000" stroke-width="2" x1="174.562" y1="609.547" x2="1873.413" y2="1438.128"/>
			<line fill="none" stroke="#000000" stroke-width="2" x1="167.462" y1="624.434" x2="1880.514" y2="1423.239"/>
			<line fill="none" stroke="#000000" stroke-width="2" x1="160.621" y1="639.444" x2="1887.354" y2="1408.231"/>
			<line fill="none" stroke="#000000" stroke-width="2" x1="154.044" y1="654.571" x2="1893.931" y2="1393.105"/>
			<line fill="none" stroke="#000000" stroke-width="2" x1="147.733" y1="669.81" x2="1900.243" y2="1377.867"/>
			<line fill="none" stroke="#000000" stroke-width="2" x1="141.687" y1="685.158" x2="1906.289" y2="1362.52"/>
			<line fill="none" stroke="#000000" stroke-width="2" x1="135.911" y1="700.607" x2="1912.065" y2="1347.071"/>
			<line fill="none" stroke="#000000" stroke-width="2" x1="130.404" y1="716.156" x2="1917.571" y2="1331.522"/>
			<line fill="none" stroke="#000000" stroke-width="2" x1="125.17" y1="731.799" x2="1922.806" y2="1315.881"/>
			<line fill="none" stroke="#000000" stroke-width="2" x1="120.21" y1="747.529" x2="1927.766" y2="1300.149"/>
			<line fill="none" stroke="#000000" stroke-width="2" x1="115.526" y1="763.346" x2="1932.448" y2="1284.336"/>
			<line fill="none" stroke="#000000" stroke-width="2" x1="111.118" y1="779.24" x2="1936.857" y2="1268.441"/>
			<line fill="none" stroke="#000000" stroke-width="2" x1="106.988" y1="795.209" x2="1940.986" y2="1252.473"/>
			<line fill="none" stroke="#000000" stroke-width="2" x1="103.138" y1="811.249" x2="1944.837" y2="1236.435"/>
			<line fill="none" stroke="#000000" stroke-width="2" x1="99.567" y1="827.352" x2="1948.407" y2="1220.333"/>
			<line fill="none" stroke="#000000" stroke-width="2" x1="96.279" y1="843.516" x2="1951.695" y2="1204.168"/>
			<line fill="none" stroke="#000000" stroke-width="2" x1="93.273" y1="859.734" x2="1954.702" y2="1187.951"/>
			<line fill="none" stroke="#000000" stroke-width="2" x1="90.55" y1="876.002" x2="1957.424" y2="1171.684"/>
			<line fill="none" stroke="#000000" stroke-width="2" x1="88.113" y1="892.315" x2="1959.862" y2="1155.369"/>
			<line fill="none" stroke="#000000" stroke-width="2" x1="85.96" y1="908.671" x2="1962.017" y2="1139.018"/>
			<line fill="none" stroke="#000000" stroke-width="2" x1="84.093" y1="925.059" x2="1963.883" y2="1122.631"/>
			<line fill="none" stroke="#000000" stroke-width="2" x1="82.512" y1="941.478" x2="1965.465" y2="1106.213"/>
			<line fill="none" stroke="#000000" stroke-width="2" x1="81.218" y1="957.921" x2="1966.758" y2="1089.77"/>
			<line fill="none" stroke="#000000" stroke-width="2" x1="80.211" y1="974.385" x2="1967.766" y2="1073.307"/>
			<line fill="none" stroke="#000000" stroke-width="2" x1="79.492" y1="990.865" x2="1968.485" y2="1056.827"/>
			<line fill="none" stroke="#000000" stroke-width="2" x1="79.062" y1="1007.353" x2="1968.918" y2="1040.34"/>
			<line fill="none" stroke="#000000" stroke-width="2" x1="78.917" y1="1023.811" x2="1969.061" y2="1023.811"/>
			<line fill="none" stroke="#000000" stroke-width="2" x1="79.062" y1="1040.305" x2="1968.918" y2="1007.318"/>
			<line fill="none" stroke="#000000" stroke-width="2" x1="79.493" y1="1056.793" x2="1968.485" y2="990.83"/>
			<line fill="none" stroke="#000000" stroke-width="2" x1="80.212" y1="1073.273" x2="1967.768" y2="974.352"/>
			<line fill="none" stroke="#000000" stroke-width="2" x1="81.22" y1="1089.737" x2="1966.76" y2="957.888"/>
			<line fill="none" stroke="#000000" stroke-width="2" x1="82.514" y1="1106.182" x2="1965.467" y2="941.445"/>
			<line fill="none" stroke="#000000" stroke-width="2" x1="84.096" y1="1122.602" x2="1963.885" y2="925.027"/>
			<line fill="none" stroke="#000000" stroke-width="2" x1="85.962" y1="1138.989" x2="1962.019" y2="908.639"/>
			<line fill="none" stroke="#000000" stroke-width="2" x1="88.116" y1="1155.344" x2="1959.866" y2="892.286"/>
			<line fill="none" stroke="#000000" stroke-width="2" x1="90.554" y1="1171.656" x2="1957.428" y2="875.973"/>
			<line fill="none" stroke="#000000" stroke-width="2" x1="93.277" y1="1187.926" x2="1954.706" y2="859.704"/>
			<line fill="none" stroke="#000000" stroke-width="2" x1="96.282" y1="1204.145" x2="1951.7" y2="843.486"/>
			<line fill="none" stroke="#000000" stroke-width="2" x1="99.571" y1="1220.308" x2="1948.412" y2="827.323"/>
			<line fill="none" stroke="#000000" stroke-width="2" x1="103.142" y1="1236.41" x2="1944.843" y2="811.219"/>
			<line fill="none" stroke="#000000" stroke-width="2" x1="106.992" y1="1252.45" x2="1940.992" y2="795.181"/>
			<line fill="none" stroke="#000000" stroke-width="2" x1="111.123" y1="1268.419" x2="1936.862" y2="779.212"/>
			<line fill="none" stroke="#000000" stroke-width="2" x1="115.531" y1="1284.314" x2="1932.454" y2="763.318"/>
			<line fill="none" stroke="#000000" stroke-width="2" x1="120.216" y1="1300.129" x2="1927.771" y2="747.502"/>
			<line fill="none" stroke="#000000" stroke-width="2" x1="125.175" y1="1315.861" x2="1922.812" y2="731.772"/>
			<line fill="none" stroke="#000000" stroke-width="2" x1="130.409" y1="1331.502" x2="1917.578" y2="716.13"/>
			<line fill="none" stroke="#000000" stroke-width="2" x1="135.915" y1="1347.051" x2="1912.072" y2="700.582"/>
			<line fill="none" stroke="#000000" stroke-width="2" x1="141.691" y1="1362.5" x2="1906.295" y2="685.132"/>
			<line fill="none" stroke="#000000" stroke-width="2" x1="147.737" y1="1377.848" x2="1900.25" y2="669.785"/>
			<line fill="none" stroke="#000000" stroke-width="2" x1="154.05" y1="1393.087" x2="1893.938" y2="654.546"/>
			<line fill="none" stroke="#000000" stroke-width="2" x1="160.627" y1="1408.214" x2="1887.36" y2="639.42"/>
			<line fill="none" stroke="#000000" stroke-width="2" x1="167.467" y1="1423.224" x2="1880.521" y2="624.412"/>
			<line fill="none" stroke="#000000" stroke-width="2" x1="174.568" y1="1438.111" x2="1873.419" y2="609.523"/>
			<line fill="none" stroke="#000000" stroke-width="2" x1="181.928" y1="1452.872" x2="1866.06" y2="594.763"/>
			<line fill="none" stroke="#000000" stroke-width="2" x1="189.544" y1="1467.504" x2="1858.443" y2="580.131"/>
			<line fill="none" stroke="#000000" stroke-width="2" x1="197.415" y1="1481.998" x2="1850.573" y2="565.636"/>
			<line fill="none" stroke="#000000" stroke-width="2" x1="205.537" y1="1496.355" x2="1842.45" y2="551.28"/>
			<line fill="none" stroke="#000000" stroke-width="2" x1="213.909" y1="1510.567" x2="1834.08" y2="537.068"/>
			<line fill="none" stroke="#000000" stroke-width="2" x1="222.527" y1="1524.632" x2="1825.462" y2="523.004"/>
			<line fill="none" stroke="#000000" stroke-width="2" x1="231.39" y1="1538.543" x2="1816.6" y2="509.094"/>
			<line fill="none" stroke="#000000" stroke-width="2" x1="240.495" y1="1552.297" x2="1807.496" y2="495.339"/>
			<line fill="none" stroke="#000000" stroke-width="2" x1="249.839" y1="1565.891" x2="1798.153" y2="481.747"/>
			<line fill="none" stroke="#000000" stroke-width="2" x1="259.417" y1="1579.319" x2="1788.575" y2="468.319"/>
			<line fill="none" stroke="#000000" stroke-width="2" x1="269.229" y1="1592.579" x2="1778.764" y2="455.06"/>
			<line fill="none" stroke="#000000" stroke-width="2" x1="279.27" y1="1605.664" x2="1768.722" y2="441.974"/>
			<line fill="none" stroke="#000000" stroke-width="2" x1="289.538" y1="1618.573" x2="1758.456" y2="429.064"/>
			<line fill="none" stroke="#000000" stroke-width="2" x1="300.031" y1="1631.302" x2="1747.964" y2="416.339"/>
			<line fill="none" stroke="#000000" stroke-width="2" x1="310.743" y1="1643.845" x2="1737.251" y2="403.796"/>
			<line fill="none" stroke="#000000" stroke-width="2" x1="321.673" y1="1656.197" x2="1726.322" y2="391.443"/>
			<line fill="none" stroke="#000000" stroke-width="2" x1="332.817" y1="1668.359" x2="1715.179" y2="379.282"/>
			<line fill="none" stroke="#000000" stroke-width="2" x1="344.171" y1="1680.323" x2="1703.826" y2="367.318"/>
			<line fill="none" stroke="#000000" stroke-width="2" x1="355.732" y1="1692.089" x2="1692.266" y2="355.554"/>
			<line fill="none" stroke="#000000" stroke-width="2" x1="367.497" y1="1703.65" x2="1680.5" y2="343.993"/>
			<line fill="none" stroke="#000000" stroke-width="2" x1="379.462" y1="1715.004" x2="1668.536" y2="332.641"/>
			<line fill="none" stroke="#000000" stroke-width="2" x1="391.625" y1="1726.147" x2="1656.375" y2="321.497"/>
			<line fill="none" stroke="#000000" stroke-width="2" x1="403.977" y1="1737.077" x2="1644.021" y2="310.567"/>
			<line fill="none" stroke="#000000" stroke-width="2" x1="416.52" y1="1747.789" x2="1631.479" y2="299.854"/>
			<line fill="none" stroke="#000000" stroke-width="2" x1="429.249" y1="1758.28" x2="1618.752" y2="289.363"/>
			<line fill="none" stroke="#000000" stroke-width="2" x1="442.157" y1="1768.549" x2="1605.843" y2="279.095"/>
			<line fill="none" stroke="#000000" stroke-width="2" x1="455.243" y1="1778.591" x2="1592.758" y2="269.054"/>
			<line fill="none" stroke="#000000" stroke-width="2" x1="468.503" y1="1788.402" x2="1579.5" y2="259.243"/>
			<line fill="none" stroke="#000000" stroke-width="2" x1="481.932" y1="1797.981" x2="1566.071" y2="249.665"/>
			<line fill="none" stroke="#000000" stroke-width="2" x1="495.526" y1="1807.322" x2="1552.479" y2="240.323"/>
			<line fill="none" stroke="#000000" stroke-width="2" x1="509.28" y1="1816.427" x2="1538.724" y2="231.219"/>
			<line fill="none" stroke="#000000" stroke-width="2" x1="523.193" y1="1825.29" x2="1524.812" y2="222.356"/>
			<line fill="none" stroke="#000000" stroke-width="2" x1="537.255" y1="1833.907" x2="1510.749" y2="213.739"/>
			<line fill="none" stroke="#000000" stroke-width="2" x1="551.468" y1="1842.279" x2="1496.538" y2="205.366"/>
			<line fill="none" stroke="#000000" stroke-width="2" x1="565.826" y1="1850.401" x2="1482.182" y2="197.244"/>
			<line fill="none" stroke="#000000" stroke-width="2" x1="580.32" y1="1858.271" x2="1467.688" y2="189.374"/>
			<line fill="none" stroke="#000000" stroke-width="2" x1="594.953" y1="1865.889" x2="1453.056" y2="181.758"/>
			<line fill="none" stroke="#000000" stroke-width="2" x1="609.713" y1="1873.248" x2="1438.295" y2="174.398"/>
			<line fill="none" stroke="#000000" stroke-width="2" x1="624.602" y1="1880.35" x2="1423.407" y2="167.297"/>
			<line fill="none" stroke="#000000" stroke-width="2" x1="639.611" y1="1887.19" x2="1408.398" y2="160.457"/>
			<line fill="none" stroke="#000000" stroke-width="2" x1="654.738" y1="1893.767" x2="1393.272" y2="153.879"/>
			<line fill="none" stroke="#000000" stroke-width="2" x1="669.977" y1="1900.079" x2="1378.033" y2="147.567"/>
			<line fill="none" stroke="#000000" stroke-width="2" x1="685.325" y1="1906.124" x2="1362.688" y2="141.522"/>
			<line fill="none" stroke="#000000" stroke-width="2" x1="700.775" y1="1911.901" x2="1347.238" y2="135.746"/>
			<line fill="none" stroke="#000000" stroke-width="2" x1="716.323" y1="1917.407" x2="1331.689" y2="130.24"/>
			<line fill="none" stroke="#000000" stroke-width="2" x1="731.965" y1="1922.641" x2="1316.048" y2="125.006"/>
			<line fill="none" stroke="#000000" stroke-width="2" x1="747.697" y1="1927.601" x2="1300.316" y2="120.046"/>
			<line fill="none" stroke="#000000" stroke-width="2" x1="763.512" y1="1932.285" x2="1284.502" y2="115.361"/>
			<line fill="none" stroke="#000000" stroke-width="2" x1="779.408" y1="1936.692" x2="1268.608" y2="110.954"/>
			<line fill="none" stroke="#000000" stroke-width="2" x1="795.376" y1="1940.822" x2="1252.641" y2="106.824"/>
			<line fill="none" stroke="#000000" stroke-width="2" x1="811.417" y1="1944.674" x2="1236.602" y2="102.974"/>
			<line fill="none" stroke="#000000" stroke-width="2" x1="827.519" y1="1948.243" x2="1220.5" y2="99.404"/>
			<line fill="none" stroke="#000000" stroke-width="2" x1="843.683" y1="1951.532" x2="1204.336" y2="96.115"/>
			<line fill="none" stroke="#000000" stroke-width="2" x1="859.901" y1="1954.538" x2="1188.118" y2="93.109"/>
			<line fill="none" stroke="#000000" stroke-width="2" x1="876.17" y1="1957.259" x2="1171.85" y2="90.387"/>
			<line fill="none" stroke="#000000" stroke-width="2" x1="892.483" y1="1959.698" x2="1155.538" y2="87.947"/>
			<line fill="none" stroke="#000000" stroke-width="2" x1="908.838" y1="1961.851" x2="1139.184" y2="85.795"/>
			<line fill="none" stroke="#000000" stroke-width="2" x1="925.225" y1="1963.717" x2="1122.797" y2="83.928"/>
			<line fill="none" stroke="#000000" stroke-width="2" x1="941.645" y1="1965.298" x2="1106.379" y2="82.347"/>
			<line fill="none" stroke="#000000" stroke-width="2" x1="958.089" y1="1966.591" x2="1089.936" y2="81.053"/>
			<line fill="none" stroke="#000000" stroke-width="2" x1="974.552" y1="1967.6" x2="1073.473" y2="80.045"/>
			<line fill="none" stroke="#000000" stroke-width="2" x1="991.032" y1="1968.318" x2="1056.994" y2="79.325"/>
			<line fill="none" stroke="#000000" stroke-width="2" x1="1007.521" y1="1968.75" x2="1040.506" y2="78.893"/>
		</g>
	</g>
	<text transform="matrix(1 0 0 1 1027.3252 113.4629)" font-family="'Copperplate-Bold'" font-size="19.95">0</text>
	<text transform="matrix(0.9997 -0.0262 0.0262 0.9997 947.1401 116.3096)" font-family="'Copperplate-Bold'" font-size="19.95">5</text>
	<text transform="matrix(0.991 -0.1342 0.1342 0.991 865.2393 126.9087)" font-family="'Copperplate-Bold'" font-size="19.95">10</text>
	<text transform="matrix(0.9794 -0.2018 0.2018 0.9794 787.7393 143.2671)" font-family="'Copperplate-Bold'" font-size="19.95">15</text>
	<text transform="matrix(0.9522 -0.3055 0.3055 0.9522 715.3613 167.1895)" font-family="'Copperplate-Bold'" font-size="19.95">20</text>
	<text transform="matrix(0.9238 -0.3828 0.3828 0.9238 642.0723 199.1436)" font-family="'Copperplate-Bold'" font-size="19.95">25</text>
	<text transform="matrix(0.8857 -0.4643 0.4643 0.8857 570.5771 234.0601)" font-family="'Copperplate-Bold'" font-size="19.95">30</text>
	<text transform="matrix(0.8402 -0.5422 0.5422 0.8402 504.8125 276.3462)" font-family="'Copperplate-Bold'" font-size="19.95">35</text>
	<text transform="matrix(0.7935 -0.6085 0.6085 0.7935 440.2456 324.3555)" font-family="'Copperplate-Bold'" font-size="19.95">40</text>
	<text transform="matrix(0.7289 -0.6847 0.6847 0.7289 382.2158 378.8691)" font-family="'Copperplate-Bold'" font-size="19.95">45</text>
	<text transform="matrix(0.6421 -0.7666 0.7666 0.6421 328.4146 437.7192)" font-family="'Copperplate-Bold'" font-size="19.95">50</text>
	<text transform="matrix(0.5827 -0.8127 0.8127 0.5827 279.6304 501.3477)" font-family="'Copperplate-Bold'" font-size="19.95">55</text>
	<text transform="matrix(0.4872 -0.8733 0.8733 0.4872 237.9863 567.9375)" font-family="'Copperplate-Bold'" font-size="19.95">60</text>
	<text transform="matrix(0.4616 -0.8871 0.8871 0.4616 200.1504 639.0244)" font-family="'Copperplate-Bold'" font-size="19.95">65</text>
	<text transform="matrix(0.3658 -0.9307 0.9307 0.3658 169.3672 711.3462)" font-family="'Copperplate-Bold'" font-size="19.95">70</text>
	<text transform="matrix(0.2519 -0.9678 0.9678 0.2519 146.3765 786.4717)" font-family="'Copperplate-Bold'" font-size="19.95">75</text>
	<text transform="matrix(0.1674 -0.9859 0.9859 0.1674 128.0249 865.209)" font-family="'Copperplate-Bold'" font-size="19.95">80</text>
	<text transform="matrix(0.1726 -0.985 0.985 0.1726 115.8735 942.8184)" font-family="'Copperplate-Bold'" font-size="19.95">85</text>
	<text transform="matrix(0.0061 -1 1 0.0061 114.5811 1021.3652)" font-family="'Copperplate-Bold'" font-size="19.95">90</text>
	<text transform="matrix(-0.1004 -0.995 0.995 -0.1004 117.8496 1100.5107)" font-family="'Copperplate-Bold'" font-size="19.95">95</text>
	<text transform="matrix(-0.156 -0.9878 0.9878 -0.156 128.0112 1180.2305)" font-family="'Copperplate-Bold'" font-size="19.95">100</text>
	<text transform="matrix(-0.2335 -0.9724 0.9724 -0.2335 144.2437 1257.2236)" font-family="'Copperplate-Bold'" font-size="19.95">105</text>
	<text transform="matrix(-0.3504 -0.9366 0.9366 -0.3504 168.4346 1333.7314)" font-family="'Copperplate-Bold'" font-size="19.95">110</text>
	<text transform="matrix(-0.3522 -0.9359 0.9359 -0.3522 197.4238 1407.8008)" font-family="'Copperplate-Bold'" font-size="19.95">115</text>
	<text transform="matrix(-0.5172 -0.8559 0.8559 -0.5172 236.1396 1476.9434)" font-family="'Copperplate-Bold'" font-size="19.95">120</text>
	<text transform="matrix(-0.5339 -0.8456 0.8456 -0.5339 277.355 1543.8916)" font-family="'Copperplate-Bold'" font-size="19.95">125</text>
	<text transform="matrix(-0.6096 -0.7927 0.7927 -0.6096 325.5742 1607.3301)" font-family="'Copperplate-Bold'" font-size="19.95">130</text>
	<text transform="matrix(-0.6726 -0.74 0.74 -0.6726 378.7183 1667.1309)" font-family="'Copperplate-Bold'" font-size="19.95">135</text>
	<text transform="matrix(-0.7719 -0.6357 0.6357 -0.7719 437.6104 1719.2979)" font-family="'Copperplate-Bold'" font-size="19.95">140</text>
	<text transform="matrix(-0.8027 -0.5964 0.5964 -0.8027 500.7422 1768.0059)" font-family="'Copperplate-Bold'" font-size="19.95">145</text>
	<text transform="matrix(-0.8543 -0.5197 0.5197 -0.8543 567.7114 1809.8652)" font-family="'Copperplate-Bold'" font-size="19.95">150</text>
	<text transform="matrix(-0.9211 -0.3894 0.3894 -0.9211 638.6465 1846.6055)" font-family="'Copperplate-Bold'" font-size="19.95">155</text>
	<text transform="matrix(-0.9345 -0.3558 0.3558 -0.9345 711.1514 1878.127)" font-family="'Copperplate-Bold'" font-size="19.95">160</text>
	<text transform="matrix(-0.9594 -0.2822 0.2822 -0.9594 786.9546 1900.9053)" font-family="'Copperplate-Bold'" font-size="19.95">165</text>
	<text transform="matrix(-0.9821 -0.1884 0.1884 -0.9821 864.9482 1918.96)" font-family="'Copperplate-Bold'" font-size="19.95">170</text>
	<text transform="matrix(-0.9899 -0.1416 0.1416 -0.9899 943.9668 1929.8047)" font-family="'Copperplate-Bold'" font-size="19.95">175</text>
	
		<text transform="matrix(-0.9999 -0.0107 0.0107 -0.9999 1022.8091 1931.9414)" font-family="'Copperplate-Bold'" font-size="19.95">180</text>
	<text transform="matrix(-0.9994 0.035 -0.035 -0.9994 1101.9746 1930.3662)" font-family="'Copperplate-Bold'" font-size="19.95">185</text>
	
		<text transform="matrix(-0.9842 0.1772 -0.1772 -0.9842 1180.4697 1919.9209)" font-family="'Copperplate-Bold'" font-size="19.95">190</text>
	<text transform="matrix(-0.9717 0.2362 -0.2362 -0.9717 1259.6064 1902.71)" font-family="'Copperplate-Bold'" font-size="19.95">195</text>
	
		<text transform="matrix(-0.9532 0.3023 -0.3023 -0.9532 1334.4473 1878.8359)" font-family="'Copperplate-Bold'" font-size="19.95">200</text>
	<text transform="matrix(-0.9177 0.3972 -0.3972 -0.9177 1407.3789 1848.748)" font-family="'Copperplate-Bold'" font-size="19.95">205</text>
	<text transform="matrix(-0.8738 0.4862 -0.4862 -0.8738 1476.8604 1812.626)" font-family="'Copperplate-Bold'" font-size="19.95">210</text>
	
		<text transform="matrix(-0.8327 0.5537 -0.5537 -0.8327 1543.9912 1769.1191)" font-family="'Copperplate-Bold'" font-size="19.95">215</text>
	<text transform="matrix(-0.7491 0.6625 -0.6625 -0.7491 1605.1602 1721.335)" font-family="'Copperplate-Bold'" font-size="19.95">220</text>
	
		<text transform="matrix(-0.7596 0.6503 -0.6503 -0.7596 1667.3018 1666.9805)" font-family="'Copperplate-Bold'" font-size="19.95">225</text>
	
		<text transform="matrix(-0.6227 0.7825 -0.7825 -0.6227 1718.8398 1608.8369)" font-family="'Copperplate-Bold'" font-size="19.95">230</text>
	
		<text transform="matrix(-0.5662 0.8242 -0.8242 -0.5662 1767.3613 1547.2031)" font-family="'Copperplate-Bold'" font-size="19.95">235</text>
	
		<text transform="matrix(-0.4748 0.8801 -0.8801 -0.4748 1810.5967 1480.3516)" font-family="'Copperplate-Bold'" font-size="19.95">240</text>
	
		<text transform="matrix(-0.4806 0.8769 -0.8769 -0.4806 1848.8145 1410.7793)" font-family="'Copperplate-Bold'" font-size="19.95">245</text>
	
		<text transform="matrix(-0.3387 0.9409 -0.9409 -0.3387 1877.4707 1337.5322)" font-family="'Copperplate-Bold'" font-size="19.95">250</text>
	
		<text transform="matrix(-0.2689 0.9632 -0.9632 -0.2689 1900.5723 1261.4385)" font-family="'Copperplate-Bold'" font-size="19.95">255</text>
	
		<text transform="matrix(-0.1581 0.9874 -0.9874 -0.1581 1918.6348 1183.5283)" font-family="'Copperplate-Bold'" font-size="19.95">260</text>
	<text transform="matrix(-0.0616 0.9981 -0.9981 -0.0616 1928.9502 1106.457)" font-family="'Copperplate-Bold'" font-size="19.95">265</text>
	
		<text transform="matrix(-0.0102 0.9999 -0.9999 -0.0102 1933.0342 1025.6387)" font-family="'Copperplate-Bold'" font-size="19.95">270</text>
	<text transform="matrix(0.0659 0.9978 -0.9978 0.0659 1929.6641 946.8301)" font-family="'Copperplate-Bold'" font-size="19.95">275</text>
	<text transform="matrix(0.1756 0.9845 -0.9845 0.1756 1919.0723 867.6777)" font-family="'Copperplate-Bold'" font-size="19.95">280</text>
	<text transform="matrix(0.2314 0.9729 -0.9729 0.2314 1902.71 791.0107)" font-family="'Copperplate-Bold'" font-size="19.95">285</text>
	<text transform="matrix(0.2973 0.9548 -0.9548 0.2973 1880.3633 715.4941)" font-family="'Copperplate-Bold'" font-size="19.95">290</text>
	<text transform="matrix(0.3986 0.9171 -0.9171 0.3986 1849.1016 641.2686)" font-family="'Copperplate-Bold'" font-size="19.95">295</text>
	<text transform="matrix(0.5502 0.8351 -0.8351 0.5502 1812.6006 571.3525)" font-family="'Copperplate-Bold'" font-size="19.95">300</text>
	<text transform="matrix(0.5449 0.8385 -0.8385 0.5449 1770.9746 504)" font-family="'Copperplate-Bold'" font-size="19.95">305</text>
	<text transform="matrix(0.6407 0.7678 -0.7678 0.6407 1722.1025 440.3701)" font-family="'Copperplate-Bold'" font-size="19.95">310</text>
	<text transform="matrix(0.7228 0.6911 -0.6911 0.7228 1668.8389 381.7158)" font-family="'Copperplate-Bold'" font-size="19.95">315</text>
	<text transform="matrix(0.7639 0.6454 -0.6454 0.7639 1609.3359 327.9727)" font-family="'Copperplate-Bold'" font-size="19.95">320</text>
	<text transform="matrix(0.7782 0.628 -0.628 0.7782 1547.3809 279.5376)" font-family="'Copperplate-Bold'" font-size="19.95">325</text>
	<text transform="matrix(0.8612 0.5083 -0.5083 0.8612 1480.1455 237.4727)" font-family="'Copperplate-Bold'" font-size="19.95">330</text>
	<text transform="matrix(0.9045 0.4264 -0.4264 0.9045 1410.2227 199.7734)" font-family="'Copperplate-Bold'" font-size="19.95">335</text>
	<text transform="matrix(0.9486 0.3166 -0.3166 0.9486 1337.2109 170.4219)" font-family="'Copperplate-Bold'" font-size="19.95">340</text>
	<text transform="matrix(0.9689 0.2474 -0.2474 0.9689 1261.0137 146.3364)" font-family="'Copperplate-Bold'" font-size="19.95">345</text>
	<text transform="matrix(0.9895 0.1443 -0.1443 0.9895 1183.3691 128.6104)" font-family="'Copperplate-Bold'" font-size="19.95">350</text>
	<text transform="matrix(0.9936 0.1127 -0.1127 0.9936 1106.5693 117.4546)" font-family="'Copperplate-Bold'" font-size="19.95">355</text>
	<circle fill="none" stroke="#000000" stroke-width="3" cx="1024" cy="1024" r="905"/>
</g>
<g id="Layer_4">
	<line fill="none" stroke="#000000" stroke-width="3" x1="1024" y1="97.75" x2="1024" y2="1950.25"/>
	<line fill="none" stroke="#000000" stroke-width="3" x1="560.875" y1="221.844" x2="1487.125" y2="1826.156"/>
	<line fill="none" stroke="#000000" stroke-width="3" x1="221.844" y1="560.875" x2="1826.156" y2="1487.125"/>
	<line fill="none" stroke="#000000" stroke-width="3" x1="97.75" y1="1024" x2="1950.25" y2="1024"/>
	<line fill="none" stroke="#000000" stroke-width="3" x1="221.845" y1="1487.125" x2="1826.156" y2="560.875"/>
	<line fill="none" stroke="#000000" stroke-width="3" x1="560.876" y1="1826.156" x2="1487.125" y2="221.844"/>
	<circle fill="none" cx="1024" cy="1024" r="905"/>
	<circle fill="none" stroke="#000000" stroke-width="3" cx="1024" cy="1024" r="885"/>
</g>
<g id="Layer_5">
	<text transform="matrix(0.9744 -0.2249 0.2249 0.9744 771.7959 169.0303)" font-family="'Copperplate'" font-size="18">ARIES</text>
	<text transform="matrix(0.696 -0.718 0.718 0.696 370.8726 419.8535)" font-family="'Copperplate'" font-size="18">TAURUS</text>
	<text transform="matrix(0.2463 -0.9692 0.9692 0.2463 155.9668 827.1357)" font-family="'Copperplate'" font-size="18">GEMINI</text>
	<text transform="matrix(-0.2469 -0.969 0.969 -0.2469 173.0684 1292.3359)" font-family="'Copperplate'" font-size="18">CANCER</text>
	<text transform="matrix(-0.6806 -0.7326 0.7326 -0.6806 406.5288 1666.8506)" font-family="'Copperplate'" font-size="18">LEO</text>
	<text transform="matrix(-0.9692 -0.2464 0.2464 -0.9692 821.2554 1891.5117)" font-family="'Copperplate'" font-size="18">VIRGO</text>
	<text transform="matrix(-0.9653 0.2613 -0.2613 -0.9653 1278.9297 1878.0977)" font-family="'Copperplate'" font-size="18">LIBRA</text>
	<text transform="matrix(-0.721 0.6929 -0.6929 -0.721 1682.6523 1624.3516)" font-family="'Copperplate'" font-size="18">SCORPIO</text>
	<g>
		<g>
			<path d="M1900.974,1199.255c-0.052,0.064-0.075,0.1-0.126,0.164c-0.105-0.025-0.207-0.026-0.299,0.003
				c-0.159,0.051-0.334,0.184-0.523,0.4c-0.189,0.216-0.372,0.47-0.548,0.765s-0.337,0.61-0.48,0.946
				c-0.143,0.335-0.247,0.643-0.31,0.92c-0.047,0.207-0.09,0.477-0.136,0.811c-0.044,0.334-0.058,0.67-0.034,1.008
				c0.021,0.337,0.09,0.643,0.2,0.913s0.302,0.438,0.57,0.505c0.268,0.066,0.49,0.012,0.667-0.168s0.336-0.437,0.472-0.766
				c0.137-0.33,0.263-0.718,0.38-1.155c0.118-0.438,0.247-0.884,0.385-1.337c0.138-0.452,0.298-0.889,0.479-1.312
				c0.181-0.424,0.405-0.786,0.675-1.086s0.596-0.513,0.977-0.643c0.38-0.131,0.839-0.134,1.377-0.002
				c0.362,0.089,0.702,0.264,1.014,0.527s0.559,0.612,0.747,1.046c0.188,0.433,0.306,0.949,0.35,1.552
				c0.045,0.604-0.019,1.284-0.188,2.041c-0.146,0.646-0.323,1.194-0.524,1.646c-0.201,0.452-0.395,0.837-0.578,1.157
				c-0.185,0.32-0.351,0.588-0.499,0.802c-0.148,0.213-0.239,0.397-0.275,0.556c-0.039,0.17-0.032,0.299,0.021,0.39
				c-0.076,0.073-0.114,0.113-0.19,0.187c-0.759-0.727-1.139-1.093-1.899-1.816c0.045-0.065,0.068-0.098,0.113-0.163
				c0.169,0.018,0.313,0.001,0.437-0.046c0.162-0.062,0.336-0.184,0.521-0.375s0.365-0.428,0.54-0.705
				c0.174-0.277,0.335-0.583,0.479-0.919c0.145-0.337,0.257-0.683,0.336-1.035c0.062-0.269,0.102-0.549,0.125-0.846
				s0.021-0.571-0.009-0.824c-0.03-0.252-0.099-0.469-0.199-0.653c-0.101-0.187-0.248-0.304-0.446-0.354
				c-0.281-0.069-0.514-0.014-0.701,0.164c-0.188,0.179-0.357,0.433-0.505,0.762s-0.284,0.712-0.407,1.149
				c-0.124,0.438-0.254,0.882-0.394,1.335c-0.14,0.451-0.306,0.89-0.494,1.311c-0.188,0.42-0.417,0.782-0.688,1.078
				c-0.272,0.297-0.599,0.509-0.975,0.638s-0.824,0.125-1.35-0.007c-0.607-0.152-1.066-0.441-1.376-0.87
				c-0.309-0.429-0.516-0.919-0.624-1.469c-0.108-0.551-0.137-1.121-0.082-1.713c0.055-0.593,0.139-1.139,0.25-1.633
				c0.155-0.688,0.321-1.257,0.501-1.703s0.359-0.812,0.54-1.094c0.18-0.281,0.334-0.505,0.462-0.665
				c0.128-0.161,0.203-0.306,0.232-0.439c0.02-0.084-0.008-0.173-0.085-0.268c0.079-0.089,0.116-0.135,0.195-0.224
				C1899.833,1198.346,1900.213,1198.647,1900.974,1199.255z"/>
			<path d="M1896.08,1208.83c-0.014,0.162,0.035,0.307,0.143,0.43c0.107,0.122,0.229,0.246,0.373,0.371
				c2.41,2.026,3.613,3.047,6.013,5.1c0.132,0.124,0.252,0.237,0.365,0.337c0.112,0.1,0.216,0.165,0.309,0.189
				c0.116,0.03,0.207,0.006,0.274-0.066s0.123-0.153,0.17-0.244c0.126,0.032,0.188,0.05,0.314,0.082
				c-0.293,1.229-0.439,1.844-0.736,3.071c-0.125-0.033-0.188-0.052-0.312-0.085c-0.003-0.091-0.015-0.184-0.035-0.279
				c-0.02-0.096-0.095-0.16-0.223-0.194c-0.093-0.024-0.191-0.025-0.294-0.008c-0.104,0.018-0.242,0.047-0.413,0.092
				c-3.207,0.759-4.811,1.133-8.019,1.881c-0.143,0.025-0.257,0.085-0.339,0.171c-0.084,0.086-0.172,0.187-0.262,0.304
				c-0.126-0.033-0.189-0.049-0.315-0.082c0.312-1.264,0.467-1.896,0.773-3.162c0.126,0.033,0.19,0.049,0.316,0.082
				c-0.012,0.048-0.012,0.112,0.007,0.193c0.018,0.081,0.061,0.129,0.131,0.147c0.113,0.03,0.279,0.024,0.488-0.022
				c0.583-0.139,0.876-0.212,1.459-0.352c0.426-1.759,0.635-2.639,1.053-4.402c-0.435-0.388-0.65-0.582-1.086-0.969
				c-0.216-0.183-0.377-0.288-0.481-0.314c-0.129-0.033-0.221,0.069-0.274,0.297c-0.126-0.032-0.189-0.051-0.315-0.083
				c0.242-1.024,0.363-1.537,0.603-2.563C1895.892,1208.782,1895.954,1208.798,1896.08,1208.83z M1897.717,1216.475
				c1.446-0.268,2.168-0.403,3.614-0.672c-1.137-1.021-1.704-1.531-2.843-2.547
				C1898.183,1214.544,1898.027,1215.188,1897.717,1216.475z"/>
			<path d="M1896.75,1232.241c0.079-0.132,0.119-0.198,0.198-0.33c0.062,0.044,0.128,0.075,0.197,0.095
				c0.175,0.049,0.36-0.02,0.557-0.202c0.195-0.182,0.386-0.431,0.572-0.745s0.356-0.665,0.506-1.055
				c0.149-0.389,0.269-0.764,0.36-1.124c0.112-0.444,0.162-0.904,0.152-1.376c-0.011-0.473-0.099-0.915-0.268-1.326
				c-0.169-0.412-0.43-0.778-0.784-1.099c-0.354-0.319-0.823-0.562-1.404-0.718c-0.569-0.153-1.087-0.18-1.552-0.081
				c-0.464,0.099-0.865,0.287-1.206,0.559c-0.341,0.272-0.63,0.61-0.862,1.014c-0.231,0.403-0.403,0.825-0.516,1.267
				c-0.173,0.68-0.275,1.309-0.304,1.88s-0.031,1.064-0.002,1.481c0.599,0.164,0.899,0.247,1.498,0.412
				c0.236-0.917,0.355-1.374,0.59-2.292c0.044-0.167,0.037-0.302-0.011-0.404c-0.049-0.104-0.185-0.2-0.41-0.288
				c0.033-0.129,0.049-0.193,0.082-0.322c0.892,0.242,1.337,0.365,2.229,0.609c-0.033,0.129-0.049,0.195-0.082,0.324
				c-0.203-0.03-0.343-0.01-0.416,0.06s-0.132,0.187-0.176,0.354c-0.459,1.795-0.69,2.691-1.158,4.481
				c-0.125-0.034-0.187-0.052-0.312-0.087c0.028-0.249,0.027-0.408-0.003-0.48c-0.031-0.072-0.123-0.131-0.273-0.172
				c-0.786-0.219-1.18-0.326-1.966-0.543c-0.116-0.032-0.2-0.021-0.254,0.041c-0.053,0.062-0.117,0.134-0.188,0.217
				c-0.111-0.031-0.167-0.047-0.278-0.078c-0.164-0.466-0.274-0.941-0.336-1.422c-0.062-0.481-0.083-0.957-0.067-1.431
				s0.072-0.938,0.163-1.391s0.188-0.896,0.297-1.324c0.213-0.834,0.507-1.569,0.884-2.201c0.376-0.632,0.827-1.137,1.351-1.521
				c0.523-0.384,1.104-0.632,1.747-0.748c0.643-0.117,1.329-0.079,2.062,0.117s1.354,0.507,1.862,0.932
				c0.508,0.426,0.903,0.939,1.187,1.543s0.443,1.282,0.484,2.033c0.04,0.751-0.046,1.549-0.261,2.392
				c-0.135,0.529-0.299,1.024-0.492,1.485c-0.192,0.46-0.381,0.866-0.563,1.214c-0.183,0.347-0.345,0.633-0.483,0.857
				c-0.139,0.224-0.216,0.37-0.231,0.43c-0.028,0.107-0.028,0.199,0.002,0.271c0.029,0.072,0.06,0.142,0.079,0.212
				c-0.071,0.072-0.109,0.109-0.181,0.182C1897.961,1233.261,1897.559,1232.92,1896.75,1232.241z"/>
			<path d="M1889.611,1234.855c-0.081,0.309-0.016,0.49,0.191,0.549c3.155,0.881,4.732,1.328,7.885,2.225
				c0.208,0.06,0.352-0.063,0.434-0.374c0.125,0.035,0.189,0.05,0.314,0.085c-0.315,1.192-0.474,1.791-0.793,2.981
				c-0.125-0.036-0.188-0.054-0.312-0.09c0.083-0.311,0.021-0.499-0.187-0.559c-3.15-0.903-4.727-1.348-7.88-2.235
				c-0.208-0.059-0.354,0.064-0.436,0.372c-0.125-0.035-0.189-0.054-0.314-0.089c0.316-1.18,0.473-1.768,0.785-2.949
				C1889.424,1234.807,1889.486,1234.82,1889.611,1234.855z"/>
			<path d="M1886.98,1245.807c-0.207-0.061-0.346,0.041-0.418,0.301c-0.125-0.036-0.188-0.054-0.312-0.09
				c0.303-1.089,0.452-1.636,0.752-2.727c0.125,0.036,0.189,0.053,0.314,0.089c-0.023,0.082-0.018,0.165,0.016,0.245
				c0.033,0.079,0.105,0.135,0.209,0.164c2.759,0.795,4.135,1.197,6.892,2.005c0.324-1.177,0.487-1.77,0.808-2.948
				c0.028-0.107,0.028-0.219-0.002-0.336c-0.031-0.118-0.126-0.202-0.288-0.249c0.034-0.128,0.054-0.191,0.088-0.319
				c0.972,0.28,1.456,0.42,2.427,0.701c-0.035,0.129-0.052,0.192-0.087,0.321c-0.162-0.047-0.284-0.024-0.369,0.06
				s-0.146,0.178-0.175,0.284c-0.864,3.178-1.303,4.763-2.192,7.926c-0.029,0.107-0.031,0.22-0.002,0.338
				c0.028,0.116,0.126,0.202,0.287,0.251c-0.036,0.128-0.056,0.191-0.092,0.319c-0.968-0.29-1.45-0.433-2.419-0.722
				c0.036-0.128,0.054-0.192,0.09-0.32c0.161,0.048,0.285,0.03,0.371-0.053c0.085-0.082,0.144-0.182,0.174-0.288
				c0.33-1.174,0.496-1.759,0.822-2.935C1891.117,1247.012,1889.737,1246.607,1886.98,1245.807z"/>
			<path d="M1883.921,1256.582c-0.207-0.062-0.349,0.036-0.424,0.295c-0.125-0.038-0.186-0.056-0.311-0.094
				c0.315-1.082,0.474-1.623,0.786-2.707c0.124,0.037,0.185,0.058,0.309,0.095c-0.023,0.082-0.018,0.162,0.016,0.242
				c0.033,0.079,0.101,0.135,0.203,0.165c2.75,0.823,4.124,1.238,6.872,2.074c0.337-1.169,0.506-1.754,0.84-2.926
				c0.03-0.106,0.03-0.219,0.001-0.336c-0.029-0.118-0.124-0.201-0.285-0.25c0.036-0.127,0.055-0.191,0.091-0.318
				c0.968,0.29,1.453,0.436,2.421,0.727c-0.036,0.128-0.055,0.192-0.091,0.32c-0.161-0.049-0.285-0.03-0.371,0.053
				s-0.146,0.177-0.177,0.282c-0.899,3.157-1.355,4.731-2.281,7.873c-0.031,0.107-0.035,0.221-0.008,0.339s0.123,0.202,0.284,0.252
				c-0.037,0.127-0.056,0.191-0.093,0.318c-0.965-0.301-1.446-0.451-2.411-0.75c0.038-0.127,0.055-0.19,0.093-0.317
				c0.161,0.05,0.284,0.034,0.371-0.048c0.087-0.083,0.146-0.178,0.178-0.283c0.344-1.166,0.516-1.752,0.855-2.92
				C1888.043,1257.827,1886.669,1257.411,1883.921,1256.582z"/>
			<path d="M1882.221,1261.229c-0.022,0.159,0.016,0.299,0.115,0.425c0.1,0.127,0.218,0.255,0.354,0.387
				c2.295,2.122,3.439,3.191,5.722,5.339c0.125,0.128,0.24,0.246,0.348,0.351c0.107,0.105,0.207,0.171,0.299,0.2
				c0.114,0.036,0.206,0.021,0.277-0.047c0.071-0.068,0.13-0.146,0.182-0.232c0.123,0.039,0.186,0.059,0.309,0.098
				c-0.359,1.191-0.539,1.787-0.902,2.977c-0.123-0.039-0.186-0.062-0.309-0.101c0.001-0.09-0.003-0.179-0.019-0.273
				c-0.016-0.094-0.087-0.164-0.212-0.204c-0.092-0.029-0.191-0.037-0.295-0.025c-0.102,0.012-0.242,0.033-0.416,0.067
				c-3.243,0.57-4.865,0.855-8.109,1.415c-0.145,0.018-0.262,0.065-0.35,0.146c-0.088,0.081-0.177,0.174-0.274,0.284
				c-0.124-0.039-0.187-0.057-0.311-0.096c0.38-1.225,0.568-1.84,0.944-3.067c0.124,0.039,0.188,0.062,0.312,0.101
				c-0.015,0.047-0.017,0.108-0.004,0.189c0.013,0.08,0.056,0.134,0.125,0.155c0.114,0.036,0.276,0.036,0.487,0.001
				c0.59-0.104,0.886-0.157,1.476-0.262c0.522-1.705,0.778-2.562,1.292-4.272c-0.413-0.404-0.617-0.605-1.031-1.009
				c-0.205-0.192-0.361-0.304-0.464-0.336c-0.126-0.039-0.222,0.055-0.288,0.276c-0.124-0.038-0.188-0.059-0.312-0.097
				c0.298-0.993,0.446-1.488,0.741-2.483C1882.033,1261.172,1882.096,1261.19,1882.221,1261.229z M1883.435,1268.824
				c1.459-0.184,2.188-0.274,3.647-0.46c-1.079-1.065-1.622-1.598-2.704-2.657
				C1884.002,1266.955,1883.814,1267.578,1883.435,1268.824z"/>
			<path d="M1885.174,1282.695c-0.179,0.559-0.388,1.049-0.631,1.471c-0.242,0.421-0.524,0.758-0.84,1.012
				c-0.314,0.254-0.672,0.414-1.064,0.475s-0.834,0.008-1.323-0.156c-0.752-0.252-1.253-0.668-1.505-1.252
				c-0.253-0.584-0.325-1.283-0.216-2.092c-1.598,0.493-2.398,0.738-3.997,1.228c-0.14,0.044-0.239,0.117-0.298,0.219
				c-0.058,0.101-0.101,0.197-0.131,0.29c-0.124-0.041-0.187-0.059-0.31-0.1c0.42-1.291,0.631-1.938,1.047-3.231
				c0.123,0.04,0.185,0.06,0.308,0.1c-0.033,0.104-0.045,0.198-0.034,0.284c0.01,0.086,0.043,0.143,0.1,0.161
				c0.057,0.02,0.131,0.014,0.221-0.008s0.211-0.056,0.366-0.107c1.313-0.411,1.968-0.618,3.281-1.032
				c0.317-0.994,0.478-1.492,0.792-2.488c-1.221-0.396-1.832-0.591-3.053-0.985c-0.103-0.034-0.191-0.022-0.266,0.036
				c-0.075,0.059-0.147,0.187-0.209,0.383c-0.124-0.04-0.182-0.062-0.306-0.103c0.38-1.2,0.567-1.799,0.943-3.001
				c0.124,0.04,0.183,0.06,0.307,0.1c-0.105,0.337-0.053,0.536,0.152,0.603c3.116,1,4.675,1.504,7.788,2.521
				c0.206,0.067,0.358-0.07,0.464-0.409c0.124,0.04,0.187,0.062,0.311,0.103C1886.32,1279.111,1885.94,1280.307,1885.174,1282.695z
				 M1881.318,1280.916c-0.134,0.418-0.216,0.775-0.242,1.074c-0.027,0.299-0.008,0.548,0.053,0.748
				c0.062,0.2,0.155,0.36,0.287,0.481s0.29,0.21,0.472,0.271c0.183,0.061,0.364,0.085,0.541,0.066
				c0.177-0.018,0.347-0.092,0.514-0.217s0.325-0.313,0.478-0.572c0.151-0.258,0.296-0.597,0.43-1.016
				c0.387-1.207,0.578-1.811,0.961-3.02c-1.015-0.333-1.519-0.498-2.533-0.829
				C1881.896,1279.109,1881.703,1279.712,1881.318,1280.916z"/>
			<path d="M1874.334,1286.443c-0.098,0.299-0.047,0.483,0.158,0.552c3.103,1.038,4.652,1.56,7.752,2.614
				c0.205,0.069,0.357-0.045,0.456-0.346c0.123,0.042,0.185,0.062,0.308,0.104c-0.38,1.154-0.57,1.73-0.953,2.882
				c-0.123-0.042-0.184-0.062-0.307-0.104c0.1-0.302,0.047-0.486-0.158-0.557c-3.097-1.061-4.646-1.586-7.746-2.631
				c-0.205-0.069-0.357,0.044-0.456,0.343c-0.123-0.042-0.183-0.061-0.306-0.103c0.38-1.142,0.568-1.713,0.944-2.857
				C1874.149,1286.381,1874.211,1286.402,1874.334,1286.443z"/>
			<path d="M1879.918,1297.581c0.086-0.253,0.026-0.417-0.178-0.488c-2.042-0.712-3.064-1.065-5.107-1.771
				c-0.715-0.246-1.284-0.184-1.709,0.188c-0.424,0.372-0.787,1.003-1.093,1.894s-0.407,1.613-0.302,2.168
				c0.106,0.556,0.519,0.957,1.232,1.208c2.039,0.716,3.06,1.074,5.098,1.798c0.204,0.072,0.365-0.062,0.485-0.406
				c0.122,0.043,0.184,0.064,0.306,0.107c-0.382,1.104-0.574,1.653-0.959,2.754c-0.122-0.044-0.186-0.065-0.308-0.109
				c0.096-0.274,0.044-0.449-0.16-0.521c-2.003-0.715-3.003-1.069-5.007-1.777c-0.668-0.236-1.186-0.528-1.554-0.876
				c-0.368-0.347-0.618-0.758-0.744-1.236s-0.134-1.02-0.026-1.626c0.107-0.605,0.291-1.286,0.549-2.038
				c0.259-0.753,0.528-1.404,0.814-1.949c0.287-0.546,0.629-0.968,1.021-1.268s0.84-0.473,1.342-0.518
				c0.504-0.045,1.092,0.046,1.762,0.276c2.011,0.689,3.016,1.036,5.025,1.732c0.204,0.07,0.362-0.055,0.471-0.378
				c0.122,0.042,0.186,0.062,0.308,0.104c-0.382,1.137-0.576,1.705-0.962,2.839
				C1880.101,1297.646,1880.04,1297.624,1879.918,1297.581z"/>
			<path d="M1870.419,1306.118c-0.059,0.056-0.09,0.084-0.148,0.14c-0.102-0.036-0.198-0.046-0.294-0.028
				c-0.163,0.03-0.354,0.139-0.565,0.326c-0.212,0.187-0.421,0.412-0.63,0.676c-0.209,0.265-0.402,0.548-0.581,0.855
				c-0.179,0.307-0.317,0.591-0.41,0.851c-0.069,0.193-0.146,0.448-0.228,0.765c-0.081,0.316-0.13,0.634-0.146,0.961
				s0.016,0.626,0.096,0.898c0.081,0.272,0.25,0.457,0.51,0.551c0.26,0.095,0.489,0.064,0.686-0.088
				c0.196-0.153,0.376-0.382,0.549-0.684c0.173-0.304,0.346-0.656,0.511-1.063s0.341-0.824,0.528-1.244s0.398-0.824,0.625-1.21
				c0.227-0.387,0.488-0.708,0.79-0.966c0.301-0.258,0.649-0.428,1.042-0.511c0.391-0.083,0.848-0.033,1.368,0.153
				c0.351,0.126,0.665,0.33,0.945,0.618c0.281,0.288,0.492,0.649,0.631,1.087c0.138,0.437,0.195,0.949,0.172,1.533
				c-0.023,0.586-0.16,1.23-0.415,1.939c-0.216,0.604-0.45,1.114-0.7,1.525c-0.251,0.412-0.486,0.761-0.704,1.048
				c-0.219,0.287-0.416,0.526-0.586,0.715c-0.171,0.188-0.283,0.355-0.337,0.503c-0.058,0.158-0.064,0.285-0.021,0.379
				c-0.084,0.062-0.127,0.094-0.211,0.155c-0.673-0.783-1.009-1.176-1.684-1.956c0.052-0.059,0.078-0.087,0.13-0.146
				c0.165,0.036,0.312,0.035,0.438,0.004c0.168-0.042,0.355-0.14,0.56-0.302c0.205-0.163,0.412-0.369,0.615-0.616
				c0.205-0.247,0.396-0.522,0.577-0.83c0.181-0.309,0.332-0.628,0.451-0.958c0.09-0.252,0.163-0.52,0.219-0.802
				c0.058-0.282,0.083-0.545,0.081-0.791c-0.002-0.245-0.043-0.462-0.122-0.651c-0.079-0.19-0.215-0.319-0.406-0.389
				c-0.271-0.098-0.513-0.071-0.72,0.079c-0.206,0.15-0.398,0.378-0.581,0.679c-0.184,0.301-0.362,0.649-0.533,1.057
				c-0.172,0.407-0.35,0.821-0.538,1.242c-0.188,0.419-0.402,0.822-0.637,1.205s-0.506,0.702-0.809,0.956
				c-0.304,0.255-0.648,0.421-1.036,0.503s-0.837,0.032-1.344-0.153c-0.587-0.215-1.006-0.545-1.266-0.992
				c-0.259-0.446-0.412-0.941-0.459-1.481c-0.048-0.541-0.012-1.092,0.108-1.655c0.12-0.564,0.265-1.076,0.43-1.539
				c0.231-0.646,0.462-1.173,0.69-1.582c0.229-0.41,0.45-0.739,0.661-0.99c0.21-0.251,0.384-0.449,0.528-0.589
				c0.145-0.139,0.24-0.27,0.285-0.395c0.027-0.079,0.007-0.172-0.06-0.271c0.088-0.076,0.134-0.113,0.222-0.189
				C1869.386,1305.115,1869.73,1305.449,1870.419,1306.118z"/>
		</g>
	</g>
	<g>
		<g>
			<path d="M1876.912,759.486c-0.01-0.035-0.017-0.069-0.019-0.099c-0.002-0.03-0.012-0.065-0.022-0.1
				c-0.021-0.07-0.135-0.213-0.35-0.432s-0.468-0.502-0.759-0.848c-0.292-0.346-0.576-0.753-0.854-1.221s-0.501-0.979-0.667-1.531
				c-0.219-0.725-0.339-1.449-0.357-2.17c-0.019-0.721,0.088-1.399,0.314-2.028c0.227-0.629,0.581-1.18,1.062-1.657
				c0.481-0.476,1.106-0.835,1.874-1.074c0.757-0.236,1.467-0.294,2.139-0.176c0.672,0.12,1.282,0.376,1.83,0.769
				c0.548,0.394,1.024,0.897,1.424,1.509c0.399,0.613,0.71,1.286,0.931,2.018c0.179,0.593,0.294,1.144,0.347,1.654
				c0.053,0.511,0.082,0.963,0.086,1.355s-0.01,0.708-0.04,0.944c-0.03,0.238-0.038,0.381-0.024,0.426
				c0.018,0.058,0.062,0.099,0.131,0.122c0.069,0.024,0.124,0.042,0.165,0.055c-0.052,0.13-0.078,0.195-0.13,0.325
				c-0.996-0.293-1.492-0.439-2.488-0.73c0.027-0.084,0.043-0.127,0.07-0.211c0.035-0.011,0.067-0.023,0.101-0.04
				c0.032-0.016,0.069-0.038,0.11-0.061c0.114-0.063,0.216-0.219,0.285-0.467c0.07-0.25,0.11-0.543,0.121-0.882
				c0.011-0.34,0.003-0.691-0.031-1.055c-0.033-0.364-0.097-0.692-0.184-0.981c-0.146-0.487-0.356-0.932-0.63-1.336
				s-0.59-0.73-0.954-0.978c-0.365-0.249-0.77-0.412-1.214-0.489c-0.445-0.078-0.915-0.04-1.406,0.113
				c-0.493,0.153-0.901,0.388-1.225,0.702c-0.325,0.314-0.571,0.677-0.734,1.084c-0.164,0.409-0.247,0.855-0.251,1.34
				s0.07,0.97,0.215,1.453c0.111,0.369,0.27,0.742,0.477,1.12c0.207,0.376,0.426,0.714,0.658,1.011
				c0.231,0.294,0.466,0.529,0.7,0.705c0.233,0.176,0.426,0.241,0.575,0.197c0.081-0.025,0.143-0.069,0.187-0.132
				c0.084,0.081,0.126,0.122,0.21,0.202c-0.596,0.677-0.897,1.014-1.494,1.689C1877.019,759.543,1876.983,759.525,1876.912,759.486z
				"/>
			<path d="M1876.501,761.527c0.065,0.143,0.175,0.24,0.326,0.29c0.151,0.049,0.322,0.091,0.508,0.124
				c3.062,0.494,4.592,0.744,7.653,1.249c0.174,0.038,0.335,0.07,0.48,0.098s0.262,0.027,0.354,0
				c0.115-0.034,0.184-0.098,0.207-0.193c0.023-0.094,0.032-0.193,0.029-0.293c0.124-0.037,0.187-0.054,0.311-0.091
				c0.341,1.186,0.512,1.778,0.849,2.965c-0.124,0.036-0.188,0.055-0.312,0.091c-0.047-0.074-0.101-0.148-0.163-0.218
				c-0.064-0.071-0.162-0.086-0.287-0.049c-0.092,0.027-0.178,0.074-0.258,0.141c-0.08,0.067-0.188,0.165-0.313,0.29
				c-2.401,2.279-3.604,3.411-6.021,5.659c-0.111,0.094-0.185,0.199-0.215,0.313c-0.03,0.114-0.058,0.245-0.079,0.39
				c-0.125,0.035-0.187,0.052-0.312,0.087c-0.341-1.228-0.513-1.84-0.858-3.065c0.125-0.035,0.189-0.054,0.314-0.089
				c0.013,0.046,0.045,0.1,0.099,0.159c0.054,0.059,0.117,0.079,0.187,0.06c0.115-0.033,0.249-0.124,0.408-0.269
				c0.438-0.411,0.655-0.617,1.093-1.029c-0.481-1.703-0.723-2.552-1.213-4.251c-0.563-0.107-0.843-0.16-1.406-0.266
				c-0.275-0.046-0.466-0.054-0.569-0.023c-0.126,0.037-0.158,0.166-0.094,0.386c-0.125,0.036-0.189,0.055-0.314,0.091
				c-0.285-0.985-0.426-1.48-0.714-2.464C1876.314,761.582,1876.376,761.564,1876.501,761.527z M1881.605,767.15
				c1.121-0.958,1.683-1.438,2.801-2.402c-1.475-0.283-2.215-0.424-3.689-0.704C1881.074,765.286,1881.252,765.907,1881.605,767.15z
				"/>
			<path d="M1879.756,774.177c0.125-0.035,0.188-0.052,0.312-0.087c0.118,0.431,0.282,0.617,0.49,0.559
				c3.15-0.876,4.723-1.318,7.871-2.209c0.207-0.059,0.252-0.306,0.133-0.741c0.125-0.035,0.188-0.053,0.313-0.088
				c0.685,2.483,1.022,3.728,1.688,6.221c0.304,1.133,0.334,2.08,0.094,2.842c-0.239,0.762-0.854,1.276-1.838,1.542
				c-0.985,0.267-1.769,0.133-2.352-0.402s-1.021-1.365-1.323-2.492c-0.378-1.415-0.57-2.122-0.954-3.534
				c-1.235,0.343-1.852,0.515-3.088,0.856c-0.208,0.057-0.265,0.272-0.162,0.646c-0.126,0.034-0.186,0.052-0.312,0.086
				C1880.283,776.095,1880.107,775.455,1879.756,774.177z M1886.803,779.095c0.104,0.388,0.264,0.698,0.488,0.934
				c0.224,0.235,0.555,0.296,0.996,0.175c0.439-0.12,0.701-0.34,0.778-0.659c0.077-0.318,0.062-0.672-0.041-1.061
				c-0.402-1.506-0.604-2.257-1.014-3.76c-0.888,0.249-1.331,0.373-2.22,0.621C1886.199,776.843,1886.401,777.593,1886.803,779.095z
				"/>
			<path d="M1893.614,789.574c0.144,0.57,0.222,1.1,0.239,1.59c0.018,0.489-0.039,0.927-0.172,1.316
				c-0.133,0.388-0.348,0.716-0.647,0.983c-0.3,0.266-0.698,0.464-1.198,0.593c-0.768,0.197-1.414,0.114-1.936-0.243
				c-0.521-0.356-0.948-0.907-1.284-1.652c-1.09,1.286-1.635,1.927-2.729,3.204c-0.096,0.112-0.143,0.227-0.138,0.346
				c0.004,0.117,0.018,0.224,0.042,0.318c-0.126,0.032-0.189,0.048-0.315,0.08c-0.326-1.323-0.489-1.985-0.82-3.306
				c0.126-0.032,0.188-0.048,0.313-0.08c0.026,0.105,0.067,0.191,0.122,0.26c0.055,0.066,0.11,0.094,0.167,0.079
				c0.058-0.015,0.119-0.056,0.183-0.122c0.063-0.067,0.148-0.164,0.253-0.292c0.895-1.057,1.34-1.587,2.23-2.649
				c-0.257-1.013-0.385-1.519-0.645-2.53c-1.24,0.327-1.862,0.49-3.103,0.815c-0.104,0.027-0.172,0.085-0.204,0.176
				c-0.033,0.09-0.024,0.235,0.027,0.436c-0.126,0.033-0.189,0.049-0.315,0.082c-0.312-1.219-0.468-1.829-0.784-3.045
				c0.126-0.033,0.188-0.05,0.314-0.083c0.088,0.34,0.235,0.483,0.444,0.428c3.162-0.836,4.743-1.259,7.903-2.109
				c0.21-0.056,0.27-0.254,0.181-0.598c0.125-0.034,0.187-0.051,0.312-0.084C1892.687,785.917,1893,787.135,1893.614,789.574z
				 M1889.418,790.178c0.108,0.426,0.228,0.773,0.362,1.04c0.135,0.268,0.28,0.47,0.439,0.605c0.157,0.136,0.325,0.219,0.5,0.249
				c0.174,0.03,0.354,0.022,0.541-0.026c0.187-0.048,0.349-0.128,0.487-0.24c0.14-0.112,0.248-0.267,0.322-0.463
				c0.075-0.197,0.11-0.445,0.102-0.747c-0.008-0.302-0.066-0.665-0.174-1.092c-0.311-1.231-0.468-1.846-0.783-3.075
				c-1.031,0.274-1.546,0.412-2.577,0.685C1888.952,788.338,1889.107,788.95,1889.418,790.178z"/>
			<path d="M1886.432,798.65c0.074,0.307,0.218,0.435,0.428,0.382c3.174-0.791,4.758-1.19,7.93-1.995
				c0.21-0.053,0.278-0.234,0.203-0.544c0.126-0.032,0.188-0.048,0.314-0.08c0.289,1.188,0.433,1.783,0.717,2.973
				c-0.126,0.032-0.188,0.047-0.314,0.079c-0.075-0.311-0.217-0.439-0.428-0.387c-3.174,0.798-4.762,1.193-7.938,1.977
				c-0.21,0.053-0.279,0.232-0.205,0.539c-0.126,0.031-0.188,0.047-0.314,0.078c-0.281-1.179-0.423-1.767-0.709-2.943
				C1886.242,798.697,1886.305,798.682,1886.432,798.65z"/>
			<path d="M1891.066,814.29c-0.01-0.036-0.014-0.071-0.014-0.102s-0.005-0.065-0.013-0.101c-0.016-0.07-0.124-0.225-0.325-0.461
				s-0.436-0.539-0.703-0.908c-0.268-0.371-0.523-0.803-0.771-1.296c-0.248-0.494-0.438-1.024-0.568-1.594
				c-0.171-0.747-0.243-1.489-0.216-2.223c0.028-0.733,0.178-1.412,0.445-2.034c0.268-0.623,0.658-1.16,1.169-1.61
				c0.511-0.452,1.157-0.773,1.938-0.965c0.77-0.189,1.486-0.201,2.148-0.036s1.254,0.465,1.775,0.899
				c0.521,0.435,0.959,0.975,1.318,1.622c0.359,0.647,0.628,1.35,0.801,2.105c0.14,0.612,0.218,1.179,0.237,1.699
				c0.02,0.521,0.019,0.982-0.003,1.38s-0.054,0.714-0.099,0.952c-0.046,0.239-0.062,0.383-0.051,0.43
				c0.014,0.06,0.052,0.105,0.12,0.134c0.067,0.028,0.122,0.049,0.163,0.064c-0.061,0.128-0.09,0.191-0.15,0.319
				c-0.974-0.362-1.462-0.541-2.437-0.901c0.033-0.084,0.049-0.126,0.082-0.209c0.035-0.008,0.069-0.019,0.104-0.034
				c0.034-0.014,0.073-0.035,0.117-0.056c0.118-0.057,0.227-0.206,0.312-0.453c0.086-0.248,0.148-0.545,0.182-0.887
				c0.034-0.342,0.042-0.698,0.031-1.069s-0.046-0.706-0.115-1.005c-0.115-0.503-0.3-0.97-0.546-1.396s-0.54-0.778-0.888-1.053
				c-0.348-0.276-0.74-0.466-1.179-0.574c-0.438-0.109-0.909-0.1-1.411,0.022s-0.924,0.331-1.268,0.628
				c-0.344,0.298-0.611,0.648-0.801,1.051c-0.189,0.403-0.304,0.852-0.338,1.342c-0.035,0.491,0.004,0.987,0.118,1.486
				c0.087,0.381,0.222,0.771,0.404,1.167c0.183,0.396,0.379,0.75,0.591,1.066c0.212,0.314,0.433,0.566,0.654,0.76
				s0.409,0.272,0.561,0.236c0.081-0.019,0.144-0.058,0.192-0.119c0.079,0.087,0.119,0.13,0.198,0.218
				c-0.639,0.647-0.959,0.97-1.599,1.614C1891.168,814.355,1891.136,814.334,1891.066,814.29z"/>
			<path d="M1900.984,820.904c0.141,0.664,0.188,1.364,0.139,2.097c-0.05,0.732-0.211,1.426-0.481,2.081
				c-0.271,0.654-0.662,1.227-1.181,1.719c-0.519,0.493-1.185,0.828-1.996,1.004c-0.811,0.176-1.55,0.146-2.217-0.087
				s-1.251-0.589-1.755-1.069c-0.504-0.479-0.915-1.042-1.233-1.686c-0.319-0.646-0.548-1.296-0.687-1.954
				c-0.14-0.659-0.194-1.347-0.165-2.069c0.03-0.721,0.18-1.405,0.445-2.055s0.65-1.219,1.164-1.714
				c0.514-0.493,1.175-0.835,1.982-1.021s1.547-0.168,2.217,0.056c0.67,0.223,1.262,0.572,1.771,1.05
				c0.509,0.477,0.935,1.04,1.275,1.683C1900.604,819.583,1900.844,820.239,1900.984,820.904z M1899.366,821.269
				c-0.097-0.459-0.265-0.9-0.504-1.326c-0.238-0.426-0.527-0.793-0.871-1.1c-0.343-0.307-0.732-0.531-1.168-0.67
				s-0.901-0.154-1.394-0.042c-0.49,0.112-0.906,0.326-1.244,0.642c-0.337,0.315-0.6,0.686-0.784,1.11
				c-0.185,0.424-0.297,0.88-0.341,1.367c-0.044,0.486-0.018,0.959,0.079,1.413c0.097,0.455,0.261,0.896,0.497,1.321
				c0.235,0.424,0.526,0.791,0.866,1.1s0.73,0.536,1.163,0.679c0.434,0.144,0.899,0.161,1.392,0.052
				c0.493-0.108,0.908-0.318,1.248-0.632c0.34-0.315,0.606-0.687,0.794-1.113c0.188-0.427,0.305-0.886,0.349-1.376
				C1899.492,822.203,1899.463,821.728,1899.366,821.269z"/>
			<path d="M1903.863,835.687c0.112,0.584,0.167,1.125,0.158,1.622c-0.01,0.496-0.09,0.938-0.243,1.324
				c-0.152,0.385-0.388,0.706-0.701,0.96c-0.313,0.253-0.722,0.431-1.228,0.534c-0.776,0.158-1.419,0.042-1.921-0.348
				c-0.502-0.389-0.899-0.968-1.194-1.739c-1.157,1.242-1.733,1.861-2.895,3.096c-0.102,0.108-0.157,0.223-0.159,0.343
				c-0.003,0.118,0.008,0.227,0.026,0.323c-0.128,0.026-0.192,0.039-0.32,0.064c-0.254-1.356-0.383-2.034-0.642-3.388
				c0.128-0.026,0.192-0.039,0.319-0.065c0.021,0.108,0.057,0.199,0.107,0.271s0.103,0.102,0.162,0.09
				c0.06-0.013,0.122-0.05,0.189-0.113c0.067-0.065,0.156-0.159,0.268-0.282c0.949-1.021,1.424-1.534,2.37-2.562
				c-0.201-1.038-0.304-1.557-0.509-2.594c-1.256,0.265-1.885,0.396-3.141,0.659c-0.105,0.022-0.178,0.077-0.215,0.167
				c-0.037,0.089-0.035,0.236,0.006,0.44c-0.128,0.027-0.192,0.04-0.32,0.066c-0.245-1.25-0.367-1.873-0.617-3.121
				c0.127-0.027,0.19-0.039,0.317-0.065c0.069,0.349,0.209,0.5,0.421,0.455c3.202-0.677,4.803-1.019,8.004-1.71
				c0.213-0.045,0.281-0.244,0.211-0.597c0.127-0.027,0.189-0.041,0.316-0.068C1903.135,831.94,1903.381,833.188,1903.863,835.687z
				 M1899.643,836.076c0.084,0.437,0.188,0.793,0.308,1.071c0.121,0.278,0.257,0.49,0.407,0.635
				c0.151,0.146,0.312,0.237,0.484,0.277c0.172,0.04,0.353,0.042,0.541,0.003c0.188-0.04,0.354-0.112,0.499-0.217
				s0.263-0.256,0.347-0.45c0.084-0.195,0.13-0.445,0.139-0.75c0.009-0.306-0.027-0.677-0.111-1.115
				c-0.244-1.262-0.368-1.892-0.617-3.151c-1.044,0.222-1.565,0.333-2.609,0.553
				C1899.277,834.188,1899.398,834.818,1899.643,836.076z"/>
			<path d="M1896.231,844.632c0.043,0.229,0.169,0.324,0.382,0.281c3.212-0.631,4.818-0.948,8.029-1.593
				c0.213-0.042,0.299-0.182,0.255-0.415c0.127-0.025,0.189-0.036,0.316-0.062c0.231,1.254,0.348,1.881,0.574,3.137
				c-0.127,0.025-0.192,0.037-0.319,0.062c-0.018-0.099-0.085-0.136-0.203-0.112c-0.095,0.019-0.237,0.173-0.43,0.464
				c-1.73,2.522-2.601,3.778-4.349,6.276c2.254-0.425,3.381-0.64,5.634-1.073c0.213-0.041,0.292-0.22,0.236-0.54
				c0.127-0.024,0.191-0.038,0.318-0.062c0.194,1.112,0.291,1.669,0.481,2.782c-0.128,0.024-0.19,0.036-0.317,0.06
				c-0.041-0.233-0.167-0.331-0.381-0.291c-3.218,0.611-4.828,0.913-8.048,1.509c-0.213,0.039-0.298,0.175-0.258,0.406
				c-0.128,0.023-0.196,0.035-0.324,0.059c-0.201-1.182-0.301-1.773-0.506-2.954c0.128-0.024,0.19-0.036,0.317-0.06
				c0.027,0.158,0.096,0.227,0.202,0.207c0.083-0.016,0.202-0.139,0.356-0.368c1.866-2.648,2.792-3.98,4.638-6.657
				c-2.35,0.464-3.522,0.694-5.873,1.151c-0.212,0.041-0.291,0.201-0.241,0.479c-0.127,0.024-0.192,0.036-0.319,0.061
				c-0.194-1.076-0.293-1.612-0.49-2.687C1896.04,844.669,1896.104,844.657,1896.231,844.632z"/>
		</g>
	</g>
	<g>
		<g>
			<path d="M1620.746,362.078c0.13,0.089,0.274,0.119,0.432,0.084c0.154-0.034,0.318-0.084,0.494-0.15
				c2.891-1.125,4.336-1.691,7.225-2.829c0.167-0.057,0.324-0.109,0.463-0.161s0.239-0.113,0.305-0.183
				c0.082-0.087,0.11-0.179,0.082-0.272s-0.071-0.182-0.124-0.265c0.089-0.096,0.131-0.145,0.22-0.24
				c0.889,0.84,1.333,1.261,2.22,2.104c-0.089,0.096-0.133,0.145-0.222,0.24c-0.077-0.042-0.163-0.075-0.253-0.103
				s-0.179,0.007-0.27,0.104c-0.065,0.07-0.115,0.154-0.15,0.254c-0.035,0.101-0.075,0.238-0.121,0.41
				c-0.918,3.189-1.382,4.781-2.321,7.956c-0.048,0.137-0.059,0.263-0.025,0.377c0.033,0.115,0.077,0.24,0.132,0.377
				c-0.09,0.094-0.137,0.141-0.227,0.234c-0.916-0.882-1.374-1.322-2.291-2.201c0.089-0.094,0.134-0.141,0.223-0.235
				c0.034,0.033,0.094,0.062,0.17,0.085c0.075,0.023,0.139,0.008,0.188-0.044c0.082-0.086,0.155-0.234,0.218-0.439
				c0.169-0.578,0.253-0.866,0.422-1.445c-1.274-1.218-1.914-1.825-3.192-3.035c-0.539,0.194-0.808,0.291-1.347,0.485
				c-0.261,0.101-0.429,0.189-0.503,0.267c-0.091,0.097-0.051,0.225,0.115,0.382c-0.089,0.094-0.135,0.142-0.224,0.236
				c-0.743-0.704-1.114-1.057-1.858-1.758C1620.614,362.22,1620.657,362.172,1620.746,362.078z M1627.978,364.317
				c0.481-1.397,0.722-2.098,1.198-3.499c-1.41,0.515-2.111,0.771-3.522,1.282C1626.586,362.985,1627.047,363.429,1627.978,364.317z
				"/>
			<path d="M1635.08,378.693c0.061-0.009,0.119-0.024,0.183-0.048c0.063-0.022,0.121-0.059,0.171-0.111s0.081-0.161,0.097-0.324
				c0.015-0.163,0.021-0.352,0.021-0.562c0.001-0.209-0.003-0.418-0.016-0.625c-0.012-0.206,0.034-0.466,0.007-0.517
				c-0.07-0.131-0.577-0.342-0.836-0.553c-0.258-0.211-0.507-0.429-0.739-0.657c-0.476-0.464-0.896-1.004-1.264-1.614
				c-0.367-0.609-0.62-1.256-0.753-1.939s-0.12-1.372,0.038-2.065c0.158-0.692,0.524-1.341,1.096-1.946s1.196-1.006,1.874-1.198
				s1.357-0.237,2.039-0.133s1.337,0.324,1.97,0.659s1.188,0.733,1.667,1.197s0.896,1.012,1.254,1.639s0.602,1.287,0.734,1.977
				s0.118,1.385-0.043,2.083s-0.529,1.35-1.105,1.955c-0.601,0.631-1.248,1.036-1.945,1.214c-0.696,0.178-2.068,0.004-2.12,0.051
				c-0.014,0.012,0.015,0.215,0.009,0.361c-0.007,0.146-0.014,0.294-0.015,0.445s0.007,0.288,0.021,0.412
				c0.015,0.125,0.044,0.208,0.087,0.251c0.104,0.102,0.22,0.153,0.355,0.15c0.013,0.124,0.02,0.186,0.032,0.309
				c-1.105-0.063-1.659-0.094-2.765-0.157C1635.113,378.847,1635.103,378.795,1635.08,378.693z M1639.49,369.476
				c-0.329-0.321-0.709-0.59-1.139-0.804s-0.869-0.35-1.321-0.409s-0.896-0.024-1.334,0.106c-0.439,0.13-0.831,0.381-1.179,0.75
				c-0.349,0.368-0.574,0.776-0.684,1.225c-0.109,0.448-0.129,0.899-0.051,1.354c0.078,0.452,0.231,0.893,0.46,1.317
				c0.229,0.425,0.508,0.798,0.836,1.119c0.208,0.202,0.575,0.47,0.583,0.466c0.063-0.031,0.057-0.807,0.021-1.103
				s-0.075-0.538-0.125-0.721c-0.051-0.184-0.095-0.321-0.136-0.411c-0.04-0.09-0.043-0.15-0.01-0.186
				c0.066-0.069,0.216-0.041,0.452,0.089c0.236,0.128,0.463,0.298,0.68,0.509c0.181,0.177,0.329,0.366,0.438,0.565
				c0.11,0.201,0.194,0.409,0.258,0.622c0.063,0.214,0.111,0.44,0.145,0.677s0.045,0.65,0.109,0.714
				c0.134,0.131,0.912,0.03,1.354-0.093c0.443-0.123,0.843-0.373,1.201-0.75c0.35-0.369,0.581-0.778,0.692-1.229
				c0.11-0.451,0.122-0.907,0.046-1.362c-0.077-0.457-0.228-0.896-0.457-1.324C1640.102,370.169,1639.82,369.797,1639.49,369.476z"
				/>
			<path d="M1648.371,376.472c-0.189-0.188-0.358-0.204-0.509-0.045c-1.502,1.585-2.256,2.375-3.763,3.95
				c-0.527,0.551-0.713,1.103-0.562,1.655c0.15,0.551,0.56,1.162,1.229,1.833c0.668,0.669,1.274,1.076,1.818,1.219
				s1.081-0.059,1.61-0.609c1.513-1.575,2.269-2.366,3.775-3.951c0.151-0.159,0.099-0.366-0.159-0.623
				c0.09-0.096,0.137-0.145,0.227-0.241c0.826,0.827,1.236,1.243,2.061,2.074c-0.091,0.095-0.134,0.144-0.225,0.239
				c-0.206-0.208-0.387-0.233-0.537-0.074c-1.484,1.559-2.229,2.335-3.718,3.884c-0.497,0.515-0.979,0.868-1.448,1.056
				c-0.469,0.189-0.944,0.237-1.43,0.145c-0.483-0.093-0.979-0.322-1.478-0.687c-0.499-0.365-1.029-0.832-1.595-1.397
				c-0.564-0.566-1.032-1.104-1.398-1.604c-0.366-0.503-0.597-0.999-0.695-1.489c-0.099-0.491-0.062-0.977,0.115-1.458
				s0.509-0.979,1.002-1.496c1.479-1.55,2.221-2.328,3.695-3.888c0.151-0.159,0.104-0.356-0.139-0.596
				c0.09-0.095,0.134-0.142,0.224-0.236c0.851,0.84,1.275,1.261,2.125,2.104C1648.507,376.33,1648.461,376.377,1648.371,376.472z"/>
			<path d="M1648.803,389.54c0.127,0.094,0.271,0.125,0.428,0.094c0.155-0.031,0.324-0.074,0.502-0.135
				c2.917-1.073,4.376-1.614,7.291-2.699c0.17-0.055,0.322-0.104,0.463-0.153c0.139-0.049,0.244-0.108,0.312-0.179
				c0.084-0.088,0.11-0.179,0.084-0.276c-0.026-0.096-0.064-0.188-0.115-0.276c0.091-0.095,0.136-0.142,0.227-0.237
				c0.868,0.883,1.3,1.325,2.166,2.212c-0.091,0.095-0.134,0.142-0.225,0.237c-0.076-0.044-0.16-0.08-0.249-0.11
				c-0.091-0.031-0.181,0.002-0.273,0.1c-0.068,0.07-0.119,0.156-0.156,0.256c-0.037,0.101-0.083,0.239-0.134,0.416
				c-0.995,3.237-1.496,4.852-2.514,8.074c-0.051,0.14-0.062,0.269-0.031,0.387c0.029,0.118,0.068,0.248,0.121,0.388
				c-0.092,0.094-0.139,0.139-0.23,0.233c-0.895-0.927-1.342-1.389-2.238-2.313c0.092-0.094,0.137-0.142,0.229-0.236
				c0.035,0.035,0.087,0.066,0.164,0.093c0.076,0.026,0.143,0.013,0.193-0.039c0.086-0.088,0.16-0.235,0.228-0.445
				c0.183-0.586,0.273-0.877,0.456-1.464c-1.244-1.28-1.867-1.921-3.115-3.194c-0.544,0.185-0.813,0.278-1.357,0.462
				c-0.264,0.097-0.435,0.185-0.512,0.263c-0.094,0.096-0.057,0.226,0.104,0.39c-0.091,0.094-0.136,0.141-0.228,0.235
				c-0.726-0.74-1.09-1.109-1.816-1.848C1648.667,389.68,1648.712,389.634,1648.803,389.54z M1655.979,392.024
				c0.515-1.417,0.772-2.126,1.283-3.545c-1.423,0.488-2.133,0.731-3.556,1.216C1654.618,390.625,1655.07,391.091,1655.979,392.024z
				"/>
			<path d="M1668.879,396.914c0.406,0.425,0.739,0.851,0.997,1.271c0.258,0.422,0.427,0.84,0.506,1.25
				c0.079,0.412,0.055,0.816-0.069,1.207c-0.125,0.393-0.369,0.779-0.736,1.155c-0.563,0.578-1.159,0.846-1.787,0.805
				c-0.627-0.042-1.271-0.303-1.93-0.785c-0.3,1.705-0.451,2.557-0.757,4.26c-0.026,0.149-0.008,0.275,0.055,0.378
				c0.062,0.101,0.127,0.188,0.194,0.259c-0.093,0.094-0.139,0.14-0.231,0.234c-0.942-1-1.414-1.498-2.358-2.494
				c0.093-0.094,0.136-0.142,0.229-0.235c0.076,0.081,0.156,0.134,0.236,0.165c0.081,0.032,0.145,0.028,0.188-0.016
				c0.044-0.043,0.07-0.112,0.093-0.204c0.022-0.093,0.046-0.221,0.073-0.388c0.244-1.401,0.367-2.103,0.607-3.505
				c-0.726-0.76-1.09-1.14-1.816-1.897c-0.909,0.933-1.362,1.4-2.273,2.33c-0.076,0.079-0.107,0.165-0.091,0.262
				c0.017,0.096,0.099,0.22,0.242,0.37c-0.092,0.094-0.139,0.141-0.23,0.234c-0.876-0.917-1.316-1.375-2.194-2.289
				c0.092-0.094,0.138-0.14,0.229-0.234c0.245,0.255,0.447,0.305,0.601,0.148c2.319-2.372,3.476-3.565,5.782-5.96
				c0.152-0.158,0.104-0.365-0.142-0.62c0.092-0.095,0.136-0.143,0.228-0.237C1666.269,394.185,1667.14,395.093,1668.879,396.914z
				 M1665.566,399.647c0.304,0.32,0.58,0.562,0.83,0.728c0.249,0.165,0.475,0.265,0.678,0.301c0.203,0.036,0.386,0.022,0.552-0.042
				c0.167-0.065,0.319-0.167,0.455-0.306c0.137-0.14,0.235-0.298,0.3-0.469c0.064-0.172,0.083-0.365,0.049-0.576
				c-0.034-0.21-0.128-0.448-0.285-0.71c-0.156-0.261-0.386-0.552-0.691-0.872c-0.879-0.921-1.321-1.378-2.202-2.295
				c-0.753,0.78-1.13,1.168-1.885,1.945C1664.246,398.268,1664.688,398.727,1665.566,399.647z"/>
			<path d="M1667.217,408.696c0.218,0.232,0.4,0.27,0.556,0.113c2.339-2.369,3.506-3.56,5.833-5.953
				c0.153-0.158,0.119-0.352-0.1-0.584c0.092-0.095,0.141-0.145,0.232-0.24c0.84,0.891,1.256,1.34,2.095,2.234
				c-0.093,0.095-0.136,0.142-0.229,0.237c-0.22-0.233-0.406-0.272-0.561-0.114c-2.329,2.392-3.497,3.583-5.839,5.952
				c-0.155,0.157-0.122,0.35,0.096,0.584c-0.093,0.094-0.14,0.142-0.232,0.235c-0.833-0.894-1.252-1.341-2.087-2.231
				C1667.074,408.837,1667.124,408.79,1667.217,408.696z"/>
			<path d="M1679.561,408.749c-0.186-0.199-0.354-0.22-0.508-0.062c-1.545,1.58-2.316,2.368-3.867,3.938
				c-0.542,0.549-0.748,1.108-0.613,1.678c0.135,0.57,0.526,1.211,1.176,1.918c0.65,0.707,1.242,1.142,1.782,1.305
				c0.54,0.164,1.084-0.028,1.628-0.578c1.557-1.569,2.336-2.357,3.887-3.936c0.155-0.158,0.107-0.372-0.144-0.646
				c0.093-0.094,0.139-0.142,0.231-0.237c0.803,0.873,1.205,1.312,2.006,2.187c-0.093,0.095-0.143,0.143-0.235,0.237
				c-0.2-0.219-0.377-0.251-0.533-0.093c-1.527,1.553-2.291,2.327-3.823,3.87c-0.511,0.515-1.005,0.861-1.48,1.041
				s-0.953,0.213-1.434,0.104c-0.481-0.109-0.969-0.358-1.457-0.748s-1.007-0.882-1.556-1.481s-0.998-1.161-1.35-1.686
				c-0.352-0.527-0.57-1.042-0.655-1.549c-0.084-0.506-0.034-1.003,0.155-1.493c0.189-0.488,0.539-0.989,1.047-1.503
				c1.522-1.544,2.281-2.318,3.799-3.873c0.153-0.158,0.116-0.363-0.119-0.615c0.093-0.095,0.137-0.144,0.229-0.238
				c0.827,0.887,1.241,1.332,2.066,2.222C1679.7,408.606,1679.653,408.653,1679.561,408.749z"/>
			<path d="M1682.831,421.669c0.023,0.081,0.038,0.122,0.062,0.203c-0.078,0.079-0.134,0.167-0.161,0.264
				c-0.047,0.167-0.035,0.397,0.034,0.684c0.069,0.288,0.176,0.594,0.316,0.915c0.14,0.32,0.311,0.639,0.501,0.952
				c0.191,0.314,0.381,0.577,0.571,0.788c0.141,0.157,0.334,0.348,0.578,0.575c0.244,0.228,0.508,0.427,0.793,0.596
				c0.283,0.169,0.567,0.282,0.847,0.335c0.277,0.053,0.515-0.02,0.716-0.22s0.275-0.43,0.228-0.687s-0.169-0.537-0.36-0.843
				c-0.191-0.307-0.433-0.635-0.721-0.985s-0.578-0.711-0.866-1.087s-0.553-0.761-0.794-1.156c-0.242-0.396-0.41-0.795-0.503-1.2
				s-0.084-0.813,0.018-1.221c0.102-0.41,0.35-0.814,0.747-1.217c0.27-0.271,0.595-0.473,0.975-0.603
				c0.379-0.13,0.79-0.158,1.238-0.085s0.931,0.257,1.437,0.552c0.507,0.295,1.021,0.728,1.535,1.297
				c0.44,0.488,0.784,0.948,1.038,1.378c0.255,0.43,0.462,0.815,0.62,1.157c0.158,0.341,0.284,0.639,0.375,0.889
				c0.092,0.251,0.19,0.436,0.298,0.556c0.116,0.13,0.223,0.195,0.325,0.197c0.018,0.109,0.028,0.164,0.046,0.272
				c-0.995,0.274-1.492,0.412-2.487,0.685c-0.028-0.077-0.044-0.116-0.072-0.193c0.105-0.141,0.175-0.277,0.204-0.411
				c0.038-0.18,0.028-0.404-0.024-0.676s-0.145-0.562-0.273-0.871c-0.128-0.31-0.29-0.622-0.481-0.937
				c-0.193-0.315-0.408-0.606-0.648-0.873c-0.184-0.203-0.389-0.397-0.613-0.582c-0.227-0.186-0.445-0.334-0.664-0.448
				c-0.217-0.113-0.433-0.175-0.637-0.19c-0.203-0.014-0.375,0.052-0.521,0.201c-0.207,0.209-0.295,0.449-0.253,0.715
				c0.041,0.266,0.156,0.557,0.34,0.87s0.417,0.646,0.702,0.999s0.572,0.718,0.86,1.095c0.288,0.376,0.549,0.765,0.785,1.167
				s0.399,0.807,0.491,1.214c0.092,0.406,0.088,0.814-0.012,1.221c-0.1,0.404-0.344,0.804-0.735,1.195
				c-0.454,0.453-0.94,0.694-1.455,0.727c-0.516,0.033-1.022-0.058-1.526-0.271c-0.504-0.213-0.98-0.511-1.428-0.892
				c-0.449-0.381-0.841-0.76-1.178-1.136c-0.469-0.523-0.837-0.991-1.098-1.4c-0.262-0.409-0.458-0.772-0.586-1.088
				c-0.128-0.315-0.22-0.576-0.279-0.778c-0.059-0.202-0.134-0.354-0.225-0.454c-0.059-0.063-0.146-0.088-0.267-0.074
				c-0.027-0.119-0.042-0.178-0.069-0.297C1681.477,422.164,1681.927,421.999,1682.831,421.669z"/>
		</g>
	</g>
	<text transform="matrix(0.9718 0.2359 -0.2359 0.9718 1223.5586 157.4971)" font-family="'Copperplate'" font-size="18">PISCES</text>
</g>
</svg>
